<svg width="28" height="28" viewBox="0 0 28 28" fill="none" xmlns="http://www.w3.org/2000/svg">
<g id="fi_5977575" style="mix-blend-mode:luminosity" clip-path="url(#clip0_3808_129601)">
<g id="Group">
<path id="Vector" d="M22.3412 0.00158691H5.65529C2.53017 0.00158691 0 2.53176 0 5.65688V22.3463C0 25.4679 2.53017 27.9981 5.65529 27.9981H22.3447C25.4663 27.9981 28 25.4679 28 22.3428V5.65688C27.9965 2.53176 25.4663 0.00158691 22.3412 0.00158691Z" fill="url(#paint0_linear_3808_129601)"/>
<g id="Group_2">
<path id="Vector_2" d="M13.8793 6.43394L14.4462 5.45405C14.7962 4.8416 15.5766 4.63516 16.189 4.9851C16.8015 5.33505 17.0079 6.11544 16.658 6.72788L11.1951 16.1837H15.1461C16.427 16.1837 17.1443 17.6886 16.588 18.7314H5.00443C4.29754 18.7314 3.73059 18.1645 3.73059 17.4576C3.73059 16.7507 4.29754 16.1837 5.00443 16.1837H8.25204L12.4096 8.97811L11.1112 6.72438C10.7613 6.11194 10.9677 5.33855 11.5802 4.9816C12.1926 4.63166 12.966 4.8381 13.3229 5.45055L13.8793 6.43394Z" fill="#FFD0B7"/>
<path id="Vector_3" d="M8.96589 20.0437L7.74106 22.1679C7.39111 22.7804 6.61072 22.9868 5.99828 22.6369C5.38583 22.2869 5.17939 21.5065 5.52933 20.8941L6.43922 19.3193C7.46806 19.0009 8.30445 19.2458 8.96589 20.0437Z" fill="#FFD0B7"/>
<path id="Vector_4" d="M19.5136 16.1908H22.8276C23.5345 16.1908 24.1015 16.7577 24.1015 17.4646C24.1015 18.1715 23.5345 18.7385 22.8276 18.7385H20.9869L22.2292 20.8942C22.5791 21.5066 22.3727 22.28 21.7603 22.637C21.1478 22.9869 20.3744 22.7805 20.0175 22.168C17.9247 18.539 16.3534 15.8233 15.3106 14.0141C14.2432 12.1733 15.0061 10.3255 15.7585 9.6991C16.595 11.1339 17.8443 13.3002 19.5136 16.1908Z" fill="#FFD0B7"/>
</g>
</g>
</g>
<defs>
<linearGradient id="paint0_linear_3808_129601" x1="14" y1="0.00158691" x2="14" y2="27.9981" gradientUnits="userSpaceOnUse">
<stop stop-color="#00BFFC"/>
<stop offset="1" stop-color="#0073F6"/>
</linearGradient>
<clipPath id="clip0_3808_129601">
<rect width="28" height="28" fill="white"/>
</clipPath>
</defs>
</svg>
