<svg width="27" height="30" viewBox="0 0 27 30" fill="none" xmlns="http://www.w3.org/2000/svg">
<g id="Group 11457">
<g id="Vector 15">
<path d="M4.43365 11.1789C5.78699 4.70225 13.7137 2.96225 14.1003 2.96225C17.6041 2.25134 20.0142 1.96722 21.737 2.33408C21.3503 1.99569 19.8037 1.24158 16.7103 0.932248C13.617 0.622915 9.68587 1.96336 8.10699 2.67225C6.5281 3.28447 3.09966 5.34025 2.017 8.66558C0.663664 12.8223 0.960758 16.4801 0.960761 19.2022C0.960765 22.4433 1.47282 26.6456 8.51157 28.7722C6.62769 28.1805 5.35229 26.688 4.91699 25.1956C4.24032 22.8756 3.08032 17.6556 4.43365 11.1789Z" fill="#D94F04"/>
<path d="M8.68699 12.2422C9.46032 8.91692 12.764 7.44114 14.3192 7.11892C17.7917 6.0934 20.0025 5.84229 21.447 6.07337C20.8348 5.77744 18.9723 5.30158 16.4203 5.76558C13.2303 6.34558 9.46032 7.69892 8.10699 10.6956C6.75365 13.6922 6.85032 17.8489 7.04366 19.8789C7.23699 21.9089 7.81699 24.9056 10.6203 25.8723C7.62366 24.6156 7.72032 16.3989 8.68699 12.2422Z" fill="#D94F04"/>
<path d="M17.967 12.8223C18.9337 12.6289 19.417 13.1123 19.2237 14.1756C19.0303 15.2389 17.387 15.6256 16.3237 16.1089C15.2603 16.5922 15.647 17.3656 15.647 18.7189C15.647 19.0383 15.7008 19.2554 15.7958 19.3956M17.967 12.8223C17.0003 13.0156 17.4837 14.1756 16.4203 14.5622C15.6267 14.8508 14.7254 15.3548 14.3192 14.9489M17.967 12.8223C18.1603 13.4345 18.0443 14.7749 16.0337 15.2389C15.067 15.5289 14.777 16.0122 14.6803 16.6889C14.5837 17.3656 14.6803 17.8489 14.6803 18.4289C14.6803 18.8929 15.424 19.2667 15.7958 19.3956M14.3192 14.9489C14.1812 14.811 14.1003 14.5679 14.1003 14.1756C14.1326 13.3378 14.6997 11.4109 16.7103 10.4056C18.5309 9.4953 20.25 9.80233 21.1329 10.6653M14.3192 14.9489C13.9885 14.8845 13.3077 14.6396 13.2303 14.1756C13.1337 13.5956 13.327 11.9523 14.777 10.6956C16.2207 9.44441 18.8266 8.38489 21.1329 10.6653M15.7958 19.3956C16.1032 19.8495 16.8418 19.4977 17.5803 19.2022C18.547 18.8156 17.967 18.6222 18.3537 17.6556C21.737 16.0122 21.9303 13.4989 21.737 11.8556C21.6853 11.4164 21.4818 11.0187 21.1633 10.6956C21.1532 10.6854 21.143 10.6754 21.1329 10.6653M16.0337 23.9389C15.7759 23.81 15.125 23.4169 14.5837 22.8756C13.965 21.7929 14.9381 20.6845 15.5503 20.1689C16.0337 19.6856 17.155 19.5309 18.1603 20.4589M16.0337 23.9389C15.6148 23.6811 14.9317 22.9143 15.5503 21.9089C16.3237 20.6522 17.387 19.9756 18.1603 20.4589M16.0337 23.9389C16.807 24.1323 17.1937 23.8423 17.967 23.1656C18.7403 22.4889 18.9337 20.9422 18.1603 20.4589M10.6203 25.8723C7.62366 24.6156 7.72032 16.3989 8.68699 12.2422C9.46032 8.91692 12.764 7.44114 14.3192 7.11892C17.7917 6.0934 20.0025 5.84229 21.447 6.07337M10.6203 25.8723C13.617 27.1289 15.8403 25.8723 18.3537 24.9056C20.867 23.9389 23.5737 21.7156 24.057 19.2022C24.5403 16.6889 24.927 10.8889 24.2503 8.66558C23.8728 7.42503 23.2704 6.36505 21.447 6.07337M10.6203 25.8723C7.81699 24.9056 7.23699 21.9089 7.04366 19.8789C6.85032 17.8489 6.75365 13.6922 8.10699 10.6956C9.46032 7.69892 13.2303 6.34558 16.4203 5.76558C18.9723 5.30158 20.8348 5.77744 21.447 6.07337M8.51157 28.7722C6.62769 28.1805 5.35229 26.688 4.91699 25.1956C4.24032 22.8756 3.08032 17.6556 4.43365 11.1789C5.78699 4.70225 13.7137 2.96225 14.1003 2.96225C17.6041 2.25134 20.0142 1.96722 21.737 2.33408M8.51157 28.7722C9.55614 29.1004 10.7878 29.1515 12.167 28.7722C16.0337 27.7089 20.4803 25.9689 22.027 24.4222C23.5737 22.8756 25.217 20.3622 25.507 17.6556C25.797 14.9489 26.5703 8.37558 25.0237 5.08891C24.2895 3.52873 23.2939 2.6656 21.737 2.33408M8.51157 28.7722C1.47282 26.6456 0.960765 22.4433 0.960761 19.2022C0.960758 16.4801 0.663664 12.8223 2.017 8.66558C3.09966 5.34025 6.5281 3.28447 8.10699 2.67225C9.68587 1.96336 13.617 0.622915 16.7103 0.932248C19.8037 1.24158 21.3503 1.99569 21.737 2.33408" stroke="#D94F04" stroke-width="0.193333"/>
</g>
<path id="Vector 18" fill-rule="evenodd" clip-rule="evenodd" d="M14.1004 2.96223C13.7137 2.96223 5.78706 4.70223 4.43373 11.1789C3.0804 17.6556 4.2404 22.8756 4.91706 25.1956C5.35236 26.688 6.62777 28.1805 8.51165 28.7722C9.55621 29.1003 10.7878 29.1515 12.1671 28.7722C16.0337 27.7089 20.4804 25.9689 22.0271 24.4222C23.5737 22.8756 25.2171 20.3622 25.5071 17.6556C25.7971 14.9489 26.5704 8.37556 25.0237 5.08889C24.2895 3.52871 23.2939 2.66558 21.7371 2.33406C20.0143 1.9672 17.6042 2.25132 14.1004 2.96223ZM18.3537 24.9056C15.8404 25.8722 13.6171 27.1289 10.6204 25.8722C7.81707 24.9056 7.23706 21.9089 7.04373 19.8789C6.8504 17.8489 6.75373 13.6922 8.10706 10.6956C9.4604 7.6989 13.2304 6.34556 16.4204 5.76556C18.9724 5.30156 20.8348 5.77742 21.4471 6.07335C23.2705 6.36503 23.8728 7.42501 24.2504 8.66556C24.9271 10.8889 24.5404 16.6889 24.0571 19.2022C23.5737 21.7156 20.8671 23.9389 18.3537 24.9056Z" stroke="#D94F04" stroke-width="0.193333"/>
<g id="Vector 17">
<path d="M15.6471 18.7189C15.6471 17.3656 15.2604 16.5922 16.3237 16.1089C17.3871 15.6256 19.0304 15.2389 19.2237 14.1756C19.4171 13.1122 18.9337 12.6289 17.9671 12.8222C18.1604 13.4344 18.0444 14.7749 16.0337 15.2389C15.0671 15.5289 14.7771 16.0122 14.6804 16.6889C14.5837 17.3656 14.6804 17.8489 14.6804 18.4289C14.6804 18.8929 15.424 19.2667 15.7959 19.3956C15.7009 19.2553 15.6471 19.0383 15.6471 18.7189Z" fill="#183459"/>
<path d="M14.1004 14.1756C14.1326 13.3378 14.6997 11.4109 16.7104 10.4056C18.531 9.49527 20.2501 9.80231 21.133 10.6653C18.8267 8.38486 16.2207 9.44439 14.7771 10.6956C13.3271 11.9522 13.1337 13.5956 13.2304 14.1756C13.3077 14.6396 13.9886 14.8844 14.3193 14.9489C14.1813 14.8109 14.1004 14.5679 14.1004 14.1756Z" fill="#183459"/>
<path d="M15.5504 20.1689C14.9382 20.6844 13.9651 21.7929 14.5837 22.8756C15.1251 23.4169 15.7759 23.81 16.0337 23.9389C15.6148 23.6811 14.9317 22.9142 15.5504 21.9089C16.3237 20.6522 17.3871 19.9756 18.1604 20.4589C17.1551 19.5309 16.0337 19.6856 15.5504 20.1689Z" fill="#183459"/>
<path d="M15.6471 18.7189C15.6471 17.3656 15.2604 16.5922 16.3237 16.1089C17.3871 15.6256 19.0304 15.2389 19.2237 14.1756C19.4171 13.1122 18.9337 12.6289 17.9671 12.8222C18.1604 13.4344 18.0444 14.7749 16.0337 15.2389C15.0671 15.5289 14.7771 16.0122 14.6804 16.6889C14.5837 17.3656 14.6804 17.8489 14.6804 18.4289C14.6804 18.8929 15.424 19.2667 15.7959 19.3956C15.7009 19.2553 15.6471 19.0383 15.6471 18.7189Z" stroke="#D94F04" stroke-width="0.193333"/>
<path d="M14.1004 14.1756C14.1326 13.3378 14.6997 11.4109 16.7104 10.4056C18.531 9.49527 20.2501 9.80231 21.133 10.6653C18.8267 8.38486 16.2207 9.44439 14.7771 10.6956C13.3271 11.9522 13.1337 13.5956 13.2304 14.1756C13.3077 14.6396 13.9886 14.8844 14.3193 14.9489C14.1813 14.8109 14.1004 14.5679 14.1004 14.1756Z" stroke="#D94F04" stroke-width="0.193333"/>
<path d="M15.5504 20.1689C14.9382 20.6844 13.9651 21.7929 14.5837 22.8756C15.1251 23.4169 15.7759 23.81 16.0337 23.9389C15.6148 23.6811 14.9317 22.9142 15.5504 21.9089C16.3237 20.6522 17.3871 19.9756 18.1604 20.4589C17.1551 19.5309 16.0337 19.6856 15.5504 20.1689Z" stroke="#D94F04" stroke-width="0.193333"/>
</g>
<g id="Vector 16">
<path d="M16.7106 10.4056C14.6999 11.4109 14.1328 13.3378 14.1006 14.1756C14.1006 14.5679 14.1814 14.811 14.3195 14.9489C14.7257 15.3548 15.627 14.8508 16.4206 14.5623C17.4839 14.1756 17.0006 13.0156 17.9673 12.8223C18.9339 12.6289 19.4173 13.1123 19.2239 14.1756C19.0306 15.2389 17.3873 15.6256 16.3239 16.1089C15.2606 16.5923 15.6473 17.3656 15.6473 18.7189C15.6473 19.0383 15.7011 19.2554 15.7961 19.3956C16.1035 19.8495 16.842 19.4977 17.5806 19.2023C18.5473 18.8156 17.9673 18.6223 18.3539 17.6556C21.7373 16.0123 21.9306 13.4989 21.7373 11.8556C21.6856 11.4164 21.482 11.0187 21.1635 10.6956C21.1534 10.6854 21.1433 10.6754 21.1332 10.6653C20.2503 9.80234 18.5312 9.4953 16.7106 10.4056Z" fill="#FFBD43"/>
<path d="M15.5506 21.9089C14.9319 22.9143 15.615 23.6811 16.0339 23.9389C16.8072 24.1323 17.1939 23.8423 17.9673 23.1656C18.7406 22.4889 18.9339 20.9423 18.1606 20.4589C17.3872 19.9756 16.3239 20.6523 15.5506 21.9089Z" fill="#FFBD43"/>
</g>
</g>
</svg>
