<svg width="29" height="37" viewBox="0 0 29 37" fill="none" xmlns="http://www.w3.org/2000/svg">
<g filter="url(#filter0_d_3608_87039)">
<path d="M17.9813 12.0832L17.8229 14.2318H18.2736L18.4319 12.0832H17.9813Z" fill="#D94F04"/>
<path d="M20.0686 15.8753L19.9421 18.3142H20.3779L20.5957 15.9507L20.0686 15.8753Z" fill="#D94F04"/>
<path d="M17.8229 19.8035L17.5679 21.6979H18.0185L18.2736 19.8035H17.8229Z" fill="#D94F04"/>
<path d="M23.382 1.18247C23.3515 7.18371 22.8405 18.8469 22.4907 21.6175C22.2378 23.62 21.8963 25.3738 21.6372 26.5249C21.6796 26.4716 21.8221 26.4489 22.0988 26.3086C22.3582 26.177 22.5239 25.9186 22.5775 25.6327C23.8375 18.9127 23.9833 7.34939 24.0573 1.47853L24.0594 1.31872L23.382 1.18247Z" fill="#D94F04"/>
<path d="M8.74675 2.63783C10.1579 0.930924 10.4819 1.06116 12.577 0.872596C14.3888 0.709528 19.7251 0.471955 22.6374 0.432207C23.0494 0.426583 23.3841 0.770418 23.382 1.18247V1.18247M8.74675 2.63783C8.48856 2.95013 8.19398 3.32393 7.8455 3.77243C6.27337 5.79583 5.79821 6.40737 5.65461 6.89532M8.74675 2.63783L7.36947 5.77134C7.24088 6.0639 7.00747 6.29774 6.71515 6.42686L5.65461 6.89532M5.65461 6.89532C5.5924 7.10668 5.5924 7.29484 5.5924 7.56451C5.5924 8.42841 6.64847 18.7022 4.87511 22.9987C4.78275 23.2225 4.8701 23.483 5.09634 23.5691C8.00122 24.6752 17.7223 26.9418 21.0315 28.5735C21.2493 27.9289 21.5268 27.0151 21.6372 26.5249M23.382 1.18247C23.3515 7.18371 22.8405 18.8469 22.4907 21.6175C22.2378 23.62 21.8963 25.3738 21.6372 26.5249M23.382 1.18247L24.0594 1.31872M24.0594 1.31872L24.0573 1.47853M24.0594 1.31872C24.0587 1.37151 24.058 1.42478 24.0573 1.47853M21.6372 26.5249C21.6796 26.4716 21.8221 26.4489 22.0988 26.3086C22.3582 26.177 22.5239 25.9186 22.5775 25.6327V25.6327M24.0594 1.76485L24.4425 1.89128C24.6172 1.94896 24.7353 2.10755 24.7351 2.29159C24.727 7.98477 24.4932 19.0078 23.6096 23.9323C23.491 24.5932 23.1499 25.2817 22.5775 25.6327V25.6327M22.5775 25.6327C23.8375 18.9127 23.9833 7.34939 24.0573 1.47853M17.8229 14.2318L9.06346 13.4298V11.8683L17.9813 12.0832M17.8229 14.2318L17.9813 12.0832M17.8229 14.2318H18.2736L18.4319 12.0832H17.9813M19.9421 18.3142L8.83815 16.7347L9.06346 14.9912L20.0686 15.8753M19.9421 18.3142L20.0686 15.8753M19.9421 18.3142H20.3779L20.5957 15.9507L20.0686 15.8753M17.5679 21.6979L8.39497 19.8035L8.62028 18.3142L17.8229 19.8035M17.5679 21.6979L17.8229 19.8035M17.5679 21.6979H18.0185L18.2736 19.8035H17.8229" stroke="#D94F04" stroke-width="0.213235"/>
<path d="M9.06351 11.8683V13.4298L17.823 14.2318L17.9813 12.0832L9.06351 11.8683Z" fill="#FFBD43"/>
<path d="M9.06351 14.9912L8.8382 16.7347L19.9422 18.3142L20.0686 15.8753L9.06351 14.9912Z" fill="#FFBD43"/>
<path d="M8.62033 18.3142L8.39502 19.8035L17.5679 21.6979L17.823 19.8035L8.62033 18.3142Z" fill="#FFBD43"/>
<path d="M9.06351 11.8683V13.4298L17.823 14.2318L17.9813 12.0832L9.06351 11.8683Z" stroke="#D94F04" stroke-width="0.213235"/>
<path d="M9.06351 14.9912L8.8382 16.7347L19.9422 18.3142L20.0686 15.8753L9.06351 14.9912Z" stroke="#D94F04" stroke-width="0.213235"/>
<path d="M8.62033 18.3142L8.39502 19.8035L17.5679 21.6979L17.823 19.8035L8.62033 18.3142Z" stroke="#D94F04" stroke-width="0.213235"/>
<path d="M10.0429 6.68099L9.70341 6.67771L9.70825 6.39392L10.0457 6.39718C10.1157 6.39786 10.1751 6.38161 10.2238 6.34844C10.2732 6.31528 10.3108 6.26553 10.3367 6.1992C10.3632 6.13218 10.377 6.04962 10.378 5.95151L10.3786 5.88529C10.3793 5.81171 10.3726 5.74717 10.3584 5.69166C10.3449 5.63547 10.3243 5.58866 10.2967 5.55125C10.269 5.51314 10.2342 5.48442 10.1924 5.4651C10.1512 5.44578 10.1037 5.43586 10.0497 5.43533L9.70913 5.43205L9.71188 5.14719L10.0524 5.15047C10.1562 5.15148 10.2509 5.17026 10.3368 5.20683C10.4233 5.24271 10.4978 5.29389 10.5603 5.36037C10.6234 5.42616 10.6717 5.50406 10.7052 5.59409C10.7394 5.68343 10.7559 5.7824 10.7549 5.89102L10.7543 5.95514C10.7532 6.06306 10.7348 6.1617 10.6988 6.25106C10.6636 6.34042 10.6142 6.41739 10.5505 6.48195C10.4868 6.54651 10.4117 6.59624 10.3251 6.63115C10.2393 6.66536 10.1452 6.68198 10.0429 6.68099ZM9.92946 5.14929L9.91469 6.67975L9.54574 6.67619L9.56051 5.14572L9.92946 5.14929ZM11.5162 6.40928L11.5208 5.94047C11.5211 5.90823 11.5168 5.88051 11.5079 5.85729C11.499 5.83408 11.4848 5.81607 11.4653 5.80327C11.4458 5.78977 11.4196 5.78286 11.3867 5.78254C11.36 5.78228 11.3372 5.78662 11.3182 5.79554C11.2992 5.80447 11.2847 5.818 11.2747 5.83612C11.2647 5.85425 11.2596 5.87732 11.2593 5.90535L10.9051 5.90193C10.9056 5.84938 10.9176 5.80079 10.9412 5.75616C10.9655 5.71084 10.9995 5.67157 11.0433 5.63836C11.0877 5.60515 11.1405 5.57972 11.2017 5.56209C11.2635 5.54377 11.3323 5.53497 11.408 5.5357C11.4984 5.53657 11.5788 5.55242 11.6493 5.58324C11.7205 5.61406 11.7765 5.6598 11.8172 5.72047C11.858 5.78043 11.878 5.85561 11.8771 5.94601L11.8726 6.41167C11.8719 6.48595 11.8755 6.5424 11.8836 6.58102C11.8916 6.61894 11.9032 6.65234 11.9183 6.68123L11.9182 6.69909L11.5629 6.69566C11.5464 6.66046 11.5342 6.6176 11.5263 6.56706C11.5191 6.51583 11.5157 6.46323 11.5162 6.40928ZM11.5633 6.0008L11.5636 6.19002L11.4069 6.18851C11.374 6.18819 11.3459 6.19248 11.3227 6.20136C11.3002 6.21026 11.2819 6.2227 11.2677 6.23868C11.2542 6.25397 11.2442 6.27139 11.2377 6.29095C11.232 6.31052 11.2289 6.33116 11.2287 6.35289C11.2285 6.37391 11.2333 6.39288 11.2429 6.40979C11.2533 6.42601 11.2672 6.43876 11.2846 6.44804C11.302 6.45732 11.3216 6.46206 11.3433 6.46227C11.3826 6.46265 11.4159 6.45561 11.4434 6.44116C11.4716 6.42602 11.4931 6.40765 11.508 6.38607C11.523 6.36449 11.5305 6.34424 11.5307 6.32532L11.6071 6.47113C11.5928 6.49902 11.5764 6.52725 11.5579 6.5558C11.5401 6.58436 11.5178 6.61078 11.4909 6.63505C11.4648 6.65862 11.4327 6.67794 11.3947 6.69299C11.3567 6.70734 11.3108 6.71425 11.2568 6.71373C11.1867 6.71306 11.1224 6.69807 11.0638 6.66877C11.0059 6.63948 10.9597 6.59908 10.9252 6.54759C10.8906 6.49539 10.8737 6.43566 10.8743 6.36839C10.8749 6.30952 10.8859 6.25707 10.9074 6.21102C10.9295 6.16498 10.9625 6.12605 11.0063 6.09424C11.05 6.06242 11.1056 6.03843 11.1731 6.02226C11.2405 6.00609 11.3198 5.99845 11.4109 5.99933L11.5633 6.0008ZM12.4229 5.80936L12.4143 6.70388L12.0601 6.70046L12.071 5.56313L12.4032 5.56634L12.4229 5.80936ZM12.3781 6.09592L12.2951 6.09722C12.2959 6.01033 12.3072 5.93299 12.3288 5.86522C12.3505 5.79675 12.3809 5.73887 12.4199 5.69159C12.4589 5.64432 12.5051 5.60867 12.5586 5.58466C12.6128 5.55995 12.6729 5.54792 12.7387 5.54855C12.7913 5.54906 12.8392 5.55723 12.8825 5.57307C12.9265 5.58891 12.9641 5.61415 12.9953 5.64879C13.0272 5.68344 13.0513 5.72923 13.0676 5.78615C13.0846 5.84238 13.0926 5.91184 13.0918 5.99453L13.0849 6.71036L12.7286 6.70692L12.7355 5.99004C12.736 5.94449 12.73 5.90974 12.7176 5.8858C12.7052 5.86115 12.6872 5.84415 12.6634 5.83481C12.6397 5.82547 12.6107 5.82064 12.5763 5.82031C12.5399 5.81995 12.509 5.82666 12.4836 5.84044C12.4582 5.85421 12.4377 5.87363 12.4221 5.89871C12.4071 5.92309 12.396 5.95207 12.3886 5.98564C12.382 6.01922 12.3785 6.05598 12.3781 6.09592ZM13.644 5.10105L13.6284 6.71561L13.2741 6.71219L13.2897 5.09763L13.644 5.10105ZM13.5922 6.10764L13.5091 6.10894C13.5099 6.02906 13.5204 5.95557 13.5407 5.88849C13.561 5.8214 13.5896 5.76316 13.6265 5.71376C13.6634 5.66436 13.7076 5.62624 13.759 5.5994C13.8104 5.57257 13.8673 5.55945 13.9297 5.56005C13.9857 5.56059 14.0368 5.56914 14.0829 5.58571C14.1297 5.60228 14.1697 5.6286 14.203 5.66466C14.237 5.70073 14.2629 5.74758 14.2805 5.80522C14.2989 5.86287 14.3077 5.93304 14.3069 6.01573L14.3001 6.72209L13.9437 6.71865L13.9506 6.01018C13.951 5.96393 13.9447 5.92813 13.9316 5.90277C13.9193 5.87672 13.9012 5.85868 13.8775 5.84864C13.8538 5.8379 13.8247 5.83236 13.7904 5.83203C13.749 5.83163 13.7153 5.83831 13.6893 5.85208C13.6632 5.86584 13.643 5.88527 13.6288 5.91036C13.6152 5.93476 13.6058 5.96375 13.6006 5.99734C13.5954 6.03093 13.5926 6.0677 13.5922 6.10764ZM15.8418 6.33015C15.842 6.30632 15.8387 6.28492 15.8319 6.26593C15.8251 6.24624 15.8123 6.22789 15.7935 6.21089C15.7748 6.19389 15.7476 6.17681 15.712 6.15965C15.6772 6.14179 15.6311 6.12312 15.5738 6.10365C15.5068 6.08057 15.4422 6.05472 15.3801 6.02609C15.318 5.99675 15.2626 5.96293 15.2139 5.92462C15.1652 5.8856 15.1268 5.84038 15.0985 5.78894C15.0703 5.73681 15.0565 5.67641 15.0572 5.60773C15.0578 5.54186 15.0731 5.48279 15.1031 5.43051C15.133 5.37754 15.1744 5.33274 15.2273 5.2961C15.281 5.25878 15.3436 5.23065 15.4153 5.21172C15.487 5.19209 15.5652 5.18268 15.65 5.1835C15.7621 5.18458 15.8607 5.20516 15.9458 5.24522C16.0317 5.2846 16.0984 5.34026 16.1461 5.4122C16.1944 5.48345 16.2181 5.56743 16.2172 5.66413L15.8504 5.66059C15.8507 5.62205 15.843 5.58799 15.8272 5.5584C15.812 5.52882 15.7888 5.50547 15.7574 5.48834C15.726 5.47122 15.6865 5.46243 15.6389 5.46197C15.5926 5.46152 15.5537 5.46815 15.522 5.48187C15.4903 5.49558 15.4663 5.51427 15.45 5.53794C15.4336 5.56091 15.4253 5.58641 15.4251 5.61444C15.4248 5.63756 15.4309 5.65865 15.4434 5.67769C15.4565 5.69604 15.4749 5.71338 15.4986 5.72973C15.523 5.74609 15.5522 5.76179 15.5864 5.77683C15.6213 5.79189 15.6604 5.80663 15.7037 5.82107C15.7848 5.84778 15.8567 5.87756 15.9194 5.9104C15.9829 5.94255 16.0362 5.97916 16.0792 6.02022C16.123 6.06059 16.1558 6.10646 16.1778 6.15784C16.2004 6.20922 16.2114 6.26714 16.2108 6.33161C16.2101 6.40028 16.1962 6.46112 16.1691 6.51412C16.1419 6.56712 16.1033 6.61195 16.0532 6.64861C16.0031 6.68457 15.9432 6.71168 15.8737 6.72993C15.8041 6.74818 15.7266 6.75689 15.6411 6.75607C15.5626 6.75531 15.4853 6.74475 15.4091 6.72439C15.3336 6.70334 15.2652 6.67184 15.204 6.6299C15.1427 6.58726 15.0938 6.53318 15.0573 6.46765C15.0215 6.40142 15.004 6.32311 15.0049 6.23271L15.3749 6.23629C15.3745 6.28113 15.3801 6.31903 15.3917 6.34998C15.4033 6.38093 15.4206 6.40598 15.4435 6.42512C15.4665 6.44356 15.4947 6.45715 15.5283 6.46589C15.5618 6.47392 15.6003 6.47815 15.6438 6.47856C15.6907 6.47902 15.7286 6.47273 15.7575 6.45969C15.7864 6.44595 15.8076 6.42793 15.8211 6.40564C15.8346 6.38264 15.8415 6.35748 15.8418 6.33015ZM16.9738 6.46197L16.9783 5.99316C16.9786 5.96093 16.9743 5.9332 16.9654 5.90999C16.9565 5.88678 16.9423 5.86877 16.9228 5.85597C16.9034 5.84246 16.8771 5.83555 16.8442 5.83523C16.8176 5.83498 16.7948 5.83931 16.7757 5.84824C16.7567 5.85717 16.7422 5.87069 16.7323 5.88882C16.7223 5.90694 16.7171 5.93002 16.7169 5.95805L16.3626 5.95463C16.3631 5.90207 16.3752 5.85348 16.3987 5.80886C16.423 5.76354 16.457 5.72427 16.5008 5.69105C16.5453 5.65784 16.5981 5.63242 16.6592 5.61479C16.7211 5.59646 16.7898 5.58767 16.8655 5.5884C16.9559 5.58927 17.0364 5.60512 17.1068 5.63593C17.178 5.66675 17.234 5.7125 17.2748 5.77316C17.3155 5.83313 17.3355 5.90831 17.3346 5.99871L17.3301 6.46436C17.3294 6.53864 17.3331 6.59509 17.3411 6.63372C17.3491 6.67164 17.3607 6.70504 17.3759 6.73392L17.3757 6.75179L17.0204 6.74836C17.0039 6.71316 16.9917 6.67029 16.9838 6.61975C16.9766 6.56852 16.9732 6.51593 16.9738 6.46197ZM17.0208 6.05349L17.0211 6.24272L16.8645 6.24121C16.8315 6.24089 16.8035 6.24517 16.7802 6.25406C16.7577 6.26295 16.7394 6.27539 16.7252 6.29137C16.7118 6.30666 16.7018 6.32409 16.6953 6.34365C16.6895 6.36321 16.6865 6.38386 16.6863 6.40558C16.6861 6.42661 16.6908 6.44557 16.7004 6.46249C16.7108 6.47871 16.7247 6.49145 16.7421 6.50073C16.7595 6.51001 16.7791 6.51476 16.8008 6.51497C16.8401 6.51535 16.8734 6.50831 16.9009 6.49386C16.9291 6.47871 16.9507 6.46035 16.9656 6.43877C16.9805 6.41718 16.9881 6.39693 16.9882 6.37801L17.0646 6.52382C17.0503 6.55172 17.0339 6.57994 17.0154 6.6085C16.9977 6.63706 16.9753 6.66347 16.9485 6.68774C16.9223 6.71132 16.8902 6.73063 16.8522 6.74568C16.8143 6.76004 16.7683 6.76695 16.7143 6.76643C16.6442 6.76575 16.5799 6.75076 16.5213 6.72146C16.4634 6.69217 16.4172 6.65178 16.3827 6.60028C16.3481 6.54809 16.3312 6.48836 16.3319 6.42108C16.3324 6.36222 16.3434 6.30976 16.3649 6.26372C16.3871 6.21768 16.42 6.17875 16.4638 6.14693C16.5076 6.11512 16.5632 6.09112 16.6306 6.07496C16.698 6.05879 16.7773 6.05114 16.8684 6.05202L17.0208 6.05349ZM16.6933 5.46059L16.9046 5.13254L17.2788 5.13615L16.9824 5.46338L16.6933 5.46059ZM18.0067 6.50559C18.0396 6.5059 18.0677 6.50022 18.091 6.48853C18.1149 6.47614 18.133 6.4588 18.1451 6.43649C18.1579 6.41349 18.1642 6.38586 18.1638 6.35362L18.497 6.35684C18.4968 6.44234 18.4751 6.51712 18.4317 6.58117C18.3891 6.64454 18.3311 6.69374 18.2579 6.72877C18.1854 6.76311 18.1036 6.77984 18.0125 6.77896C17.9235 6.7781 17.8458 6.76299 17.7795 6.73361C17.7133 6.70354 17.6579 6.66236 17.6136 6.61007C17.5699 6.55708 17.5373 6.49545 17.5155 6.42515C17.4945 6.35487 17.4843 6.27873 17.4851 6.19674L17.4854 6.17256C17.4861 6.09058 17.4977 6.01465 17.5201 5.94478C17.5433 5.87422 17.5771 5.81323 17.6218 5.7618C17.6671 5.70967 17.7229 5.66956 17.789 5.64147C17.8559 5.61268 17.9335 5.59871 18.0218 5.59956C18.1164 5.60048 18.1996 5.61915 18.2714 5.65559C18.344 5.69203 18.4006 5.74444 18.4413 5.81281C18.4819 5.88118 18.5015 5.96372 18.4998 6.06042L18.1666 6.0572C18.1677 6.02287 18.1627 5.99198 18.1517 5.96455C18.1408 5.93711 18.1235 5.91522 18.0998 5.89887C18.0769 5.88183 18.0472 5.87313 18.0107 5.87278C17.9743 5.87243 17.9448 5.8802 17.9222 5.8961C17.8996 5.912 17.8822 5.93426 17.87 5.96288C17.8586 5.9908 17.8505 6.02296 17.846 6.05936C17.8421 6.09576 17.84 6.13464 17.8396 6.17598L17.8394 6.20016C17.839 6.24221 17.8403 6.28182 17.8435 6.31899C17.8473 6.35547 17.8551 6.38778 17.8667 6.41593C17.8784 6.44337 17.8953 6.46526 17.9176 6.4816C17.9399 6.49723 17.9696 6.50523 18.0067 6.50559ZM19.0069 5.15284L18.9913 6.76739L18.6371 6.76397L18.6527 5.14942L19.0069 5.15284ZM18.9551 6.15942L18.8721 6.16072C18.8728 6.08084 18.8833 6.00735 18.9036 5.94027C18.9239 5.87318 18.9525 5.81494 18.9894 5.76554C19.0263 5.71614 19.0705 5.67802 19.1219 5.65118C19.1733 5.62435 19.2302 5.61123 19.2926 5.61183C19.3487 5.61237 19.3997 5.62093 19.4458 5.63749C19.4926 5.65406 19.5327 5.68038 19.566 5.71644C19.6 5.75251 19.6258 5.79937 19.6434 5.85701C19.6618 5.91465 19.6706 5.98482 19.6698 6.06751L19.663 6.77388L19.3066 6.77043L19.3135 6.06196C19.3139 6.01571 19.3076 5.97991 19.2945 5.95456C19.2822 5.92851 19.2641 5.91046 19.2404 5.90042C19.2167 5.88968 19.1876 5.88414 19.1533 5.88381C19.112 5.88341 19.0783 5.89009 19.0522 5.90386C19.0261 5.91762 19.006 5.93705 18.9917 5.96214C18.9782 5.98654 18.9688 6.01554 18.9635 6.04912C18.9583 6.08271 18.9555 6.11948 18.9551 6.15942ZM11.3559 7.77077L11.3532 8.05458L10.568 8.047L10.5707 7.76319L11.3559 7.77077ZM10.6996 7.15682L10.6848 8.68728L10.3158 8.68372L10.3306 7.15325L10.6996 7.15682ZM11.6099 7.16561L11.5951 8.69607L11.2272 8.69252L11.242 7.16205L11.6099 7.16561ZM11.7739 8.14064L11.7741 8.11856C11.7749 8.03517 11.7876 7.95855 11.8121 7.88871C11.8366 7.81816 11.8722 7.75718 11.919 7.70577C11.9657 7.65436 12.0232 7.61462 12.0915 7.58655C12.1597 7.55777 12.2383 7.54381 12.3273 7.54467C12.417 7.54554 12.4957 7.56102 12.5634 7.5911C12.6318 7.6205 12.6889 7.66135 12.7346 7.71365C12.7804 7.76595 12.8148 7.82761 12.838 7.89861C12.8611 7.96892 12.8723 8.04577 12.8715 8.12916L12.8713 8.15123C12.8705 8.23392 12.8578 8.31054 12.8333 8.38109C12.8088 8.45093 12.7732 8.51191 12.7264 8.56402C12.6797 8.61543 12.6222 8.65518 12.5539 8.68325C12.4857 8.71133 12.4071 8.72493 12.3181 8.72407C12.2291 8.72321 12.1504 8.70809 12.082 8.67869C12.0136 8.6493 11.9565 8.60845 11.9107 8.55615C11.865 8.50314 11.8306 8.44149 11.8074 8.37118C11.7843 8.30018 11.7731 8.22333 11.7739 8.14064ZM12.1283 8.12198L12.1281 8.14406C12.1277 8.1868 12.1305 8.22678 12.1364 8.26398C12.1424 8.30118 12.1526 8.33387 12.167 8.36204C12.1815 8.38951 12.2012 8.41108 12.2263 8.42674C12.2514 8.4424 12.2829 8.45041 12.3207 8.45078C12.3578 8.45114 12.3887 8.44372 12.4134 8.42854C12.4388 8.41337 12.459 8.39219 12.474 8.365C12.4889 8.33712 12.4998 8.30463 12.5064 8.26755C12.5131 8.23047 12.5166 8.19056 12.517 8.14781L12.5173 8.12574C12.5177 8.08439 12.5149 8.04547 12.5089 8.00897C12.503 7.97177 12.4928 7.93908 12.4783 7.91091C12.4639 7.88204 12.4441 7.85942 12.4191 7.84306C12.394 7.8267 12.3625 7.81833 12.3247 7.81797C12.2876 7.81761 12.2563 7.82537 12.2309 7.84124C12.2062 7.85712 12.1864 7.87936 12.1714 7.90795C12.1564 7.93584 12.1456 7.96832 12.1389 8.0054C12.1323 8.04178 12.1287 8.08064 12.1283 8.12198ZM12.1203 8.95344C12.1207 8.90859 12.1393 8.87127 12.1761 8.84149C12.2128 8.81241 12.2602 8.79815 12.3184 8.79871C12.3765 8.79928 12.4237 8.81445 12.4599 8.84423C12.496 8.87472 12.5139 8.91238 12.5134 8.95723C12.513 9.00208 12.4944 9.03905 12.4577 9.06813C12.421 9.09791 12.3735 9.11252 12.3154 9.11196C12.2572 9.11139 12.21 9.09587 12.1739 9.06539C12.1377 9.0356 12.1199 8.99829 12.1203 8.95344ZM13.5064 8.46223C13.5393 8.46254 13.5674 8.45686 13.5906 8.44517C13.6146 8.43278 13.6326 8.41544 13.6448 8.39313C13.6576 8.37013 13.6638 8.3425 13.6634 8.31026L13.9966 8.31348C13.9965 8.39898 13.9748 8.47376 13.9314 8.53781C13.8887 8.60118 13.8308 8.65038 13.7576 8.68541C13.6851 8.71975 13.6033 8.73648 13.5122 8.7356C13.4232 8.73474 13.3455 8.71963 13.2792 8.69025C13.2129 8.66018 13.1576 8.619 13.1133 8.56671C13.0696 8.51372 13.0369 8.45209 13.0152 8.38179C12.9941 8.31151 12.984 8.23537 12.9848 8.15338L12.985 8.1292C12.9858 8.04722 12.9974 7.97129 13.0198 7.90142C13.0429 7.83086 13.0768 7.76987 13.1215 7.71844C13.1668 7.66631 13.2226 7.6262 13.2887 7.59811C13.3556 7.56932 13.4331 7.55535 13.5214 7.5562C13.616 7.55712 13.6993 7.57579 13.7711 7.61223C13.8436 7.64867 13.9002 7.70108 13.9409 7.76945C13.9816 7.83782 14.0011 7.92036 13.9995 8.01706L13.6663 8.01384C13.6673 7.97951 13.6624 7.94862 13.6514 7.92119C13.6405 7.89375 13.6232 7.87186 13.5995 7.85551C13.5765 7.83847 13.5468 7.82977 13.5104 7.82942C13.474 7.82907 13.4444 7.83684 13.4219 7.85274C13.3993 7.86864 13.3819 7.8909 13.3697 7.91952C13.3582 7.94744 13.3502 7.9796 13.3456 8.016C13.3418 8.0524 13.3397 8.09128 13.3393 8.13262L13.339 8.1568C13.3386 8.19885 13.34 8.23846 13.3431 8.27563C13.347 8.31211 13.3547 8.34442 13.3664 8.37257C13.378 8.40001 13.395 8.4219 13.4173 8.43824C13.4395 8.45387 13.4692 8.46187 13.5064 8.46223ZM15.4893 8.32684C15.4895 8.30301 15.4862 8.28161 15.4794 8.26262C15.4726 8.24293 15.4598 8.22458 15.441 8.20758C15.4223 8.19058 15.3951 8.1735 15.3595 8.15634C15.3246 8.13848 15.2786 8.11981 15.2213 8.10034C15.1542 8.07726 15.0897 8.05141 15.0276 8.02278C14.9655 7.99344 14.9101 7.95962 14.8614 7.92131C14.8127 7.88229 14.7743 7.83707 14.746 7.78563C14.7178 7.7335 14.704 7.67309 14.7047 7.60442C14.7053 7.53855 14.7206 7.47948 14.7505 7.4272C14.7805 7.37423 14.8219 7.32943 14.8748 7.29279C14.9284 7.25547 14.9911 7.22734 15.0628 7.20841C15.1344 7.18877 15.2127 7.17937 15.2975 7.18019C15.4096 7.18127 15.5082 7.20184 15.5933 7.24191C15.6791 7.28129 15.7459 7.33695 15.7935 7.40889C15.8419 7.48014 15.8656 7.56412 15.8647 7.66082L15.4978 7.65728C15.4982 7.61874 15.4905 7.58468 15.4747 7.55509C15.4595 7.52551 15.4363 7.50216 15.4049 7.48503C15.3735 7.46791 15.334 7.45912 15.2864 7.45866C15.2401 7.45821 15.2012 7.46484 15.1695 7.47855C15.1378 7.49227 15.1138 7.51096 15.0975 7.53463C15.0811 7.5576 15.0728 7.5831 15.0725 7.61113C15.0723 7.63425 15.0784 7.65533 15.0908 7.67438C15.104 7.69273 15.1224 7.71007 15.1461 7.72642C15.1704 7.74278 15.1997 7.75848 15.2339 7.77352C15.2688 7.78858 15.3079 7.80332 15.3512 7.81776C15.4323 7.84447 15.5042 7.87425 15.5669 7.90709C15.6304 7.93924 15.6836 7.97585 15.7267 8.01691C15.7705 8.05728 15.8033 8.10315 15.8252 8.15453C15.8479 8.2059 15.8589 8.26383 15.8582 8.3283C15.8576 8.39697 15.8437 8.45781 15.8165 8.51081C15.7894 8.56381 15.7508 8.60864 15.7007 8.6453C15.6505 8.68126 15.5907 8.70837 15.5212 8.72662C15.4516 8.74487 15.3741 8.75358 15.2886 8.75276C15.2101 8.752 15.1328 8.74144 15.0566 8.72108C14.9811 8.70003 14.9127 8.66853 14.8514 8.62659C14.7902 8.58395 14.7413 8.52986 14.7048 8.46434C14.669 8.39811 14.6515 8.3198 14.6524 8.2294L15.0224 8.23298C15.0219 8.27782 15.0275 8.31572 15.0392 8.34667C15.0508 8.37762 15.068 8.40267 15.091 8.42181C15.1139 8.44025 15.1422 8.45384 15.1757 8.46258C15.2093 8.47061 15.2478 8.47483 15.2913 8.47525C15.3382 8.47571 15.3761 8.46942 15.405 8.45638C15.4338 8.44264 15.455 8.42462 15.4686 8.40233C15.4821 8.37933 15.489 8.35417 15.4893 8.32684ZM16.4129 7.60515L16.4019 8.74248L16.0467 8.73905L16.0576 7.60172L16.4129 7.60515ZM16.0394 7.30824C16.0399 7.25779 16.0586 7.21662 16.0953 7.18474C16.1321 7.15285 16.1795 7.13719 16.2377 7.13775C16.2958 7.13832 16.343 7.15489 16.3791 7.18748C16.4152 7.22006 16.4331 7.26158 16.4326 7.31204C16.4321 7.36249 16.4135 7.40366 16.3767 7.43555C16.34 7.46743 16.2925 7.48309 16.2343 7.48253C16.1762 7.48197 16.129 7.46539 16.0929 7.43281C16.0568 7.40022 16.039 7.3587 16.0394 7.30824ZM16.9771 7.85343L16.9685 8.74795L16.6143 8.74453L16.6253 7.6072L16.9574 7.6104L16.9771 7.85343ZM16.9323 8.13999L16.8493 8.14129C16.8501 8.05439 16.8614 7.97706 16.883 7.90929C16.9047 7.84082 16.9351 7.78294 16.9741 7.73566C17.0131 7.68838 17.0593 7.65274 17.1128 7.62872C17.167 7.60402 17.2271 7.59198 17.2929 7.59262C17.3455 7.59313 17.3934 7.6013 17.4367 7.61713C17.4807 7.63298 17.5183 7.65822 17.5495 7.69286C17.5814 7.72751 17.6055 7.7733 17.6218 7.83022C17.6388 7.88645 17.6468 7.95591 17.6461 8.0386L17.6391 8.75443L17.2828 8.75099L17.2897 8.03411C17.2902 7.98856 17.2842 7.95381 17.2718 7.92986C17.2594 7.90521 17.2414 7.88822 17.2176 7.87888C17.1939 7.86954 17.1649 7.8647 17.1305 7.86437C17.0941 7.86402 17.0632 7.87073 17.0378 7.8845C17.0125 7.89827 16.9919 7.9177 16.9763 7.94278C16.9613 7.96716 16.9502 7.99614 16.9429 8.02971C16.9362 8.06328 16.9327 8.10004 16.9323 8.13999ZM18.1982 7.14512L18.1826 8.75967L17.8283 8.75625L17.8439 7.1417L18.1982 7.14512ZM18.1464 8.15171L18.0633 8.15301C18.0641 8.07312 18.0746 7.99964 18.0949 7.93255C18.1152 7.86547 18.1438 7.80723 18.1807 7.75782C18.2176 7.70842 18.2618 7.6703 18.3132 7.64347C18.3646 7.61663 18.4215 7.60351 18.4839 7.60412C18.5399 7.60466 18.591 7.61321 18.6371 7.62978C18.6839 7.64635 18.724 7.67266 18.7572 7.70873C18.7912 7.7448 18.8171 7.79165 18.8347 7.84929C18.8531 7.90694 18.8619 7.9771 18.8611 8.05979L18.8543 8.76616L18.4979 8.76272L18.5048 8.05425C18.5052 8.008 18.4989 7.9722 18.4858 7.94684C18.4735 7.92079 18.4554 7.90274 18.4317 7.8927C18.408 7.88196 18.3789 7.87643 18.3446 7.87609C18.3032 7.8757 18.2695 7.88238 18.2435 7.89614C18.2174 7.90991 18.1973 7.92934 18.183 7.95443C18.1694 7.97883 18.1601 8.00782 18.1548 8.04141C18.1496 8.075 18.1468 8.11176 18.1464 8.15171Z" fill="#183459"/>
</g>
<defs>
<filter id="filter0_d_3608_87039" x="-4" y="0" width="37" height="37" filterUnits="userSpaceOnUse" color-interpolation-filters="sRGB">
<feFlood flood-opacity="0" result="BackgroundImageFix"/>
<feColorMatrix in="SourceAlpha" type="matrix" values="0 0 0 0 0 0 0 0 0 0 0 0 0 0 0 0 0 0 127 0" result="hardAlpha"/>
<feOffset dy="4"/>
<feGaussianBlur stdDeviation="2"/>
<feComposite in2="hardAlpha" operator="out"/>
<feColorMatrix type="matrix" values="0 0 0 0 0 0 0 0 0 0 0 0 0 0 0 0 0 0 0.25 0"/>
<feBlend mode="normal" in2="BackgroundImageFix" result="effect1_dropShadow_3608_87039"/>
<feBlend mode="normal" in="SourceGraphic" in2="effect1_dropShadow_3608_87039" result="shape"/>
</filter>
</defs>
</svg>
