<svg width="37" height="37" viewBox="0 0 37 37" fill="none" xmlns="http://www.w3.org/2000/svg">
<g id="Icon" filter="url(#filter0_d_10460_977)">
<g id="Vector 8">
<path d="M9.48069 13.7295L10.1108 14.149L11.148 13.0834L8.85053 13.1002V13.7295H9.48069Z" fill="#183459"/>
<path d="M10.191 15.3276L11.3712 15.1979V14.149L10.191 15.3276Z" fill="#183459"/>
<path d="M8.8374 14.7616L8.85053 15.4076L9.62588 15.3537L8.8374 14.7616Z" fill="#183459"/>
<path d="M8.8374 10.5661L8.85053 11.2122L9.62588 11.1582L8.8374 10.5661Z" fill="#183459"/>
<path d="M9.48069 9.53403L10.1108 9.95358L11.3712 8.69495L10.1108 8.79983L8.85053 8.90472V9.53403H9.48069Z" fill="#183459"/>
<path d="M10.191 11.1321L11.3712 11.0024V9.95358L10.191 11.1321Z" fill="#183459"/>
<path d="M10.7562 19.7867L12.0013 19.6031L11.7913 18.3445L10.7562 19.7867Z" fill="#183459"/>
<path d="M9.25751 19.1668L9.48069 20.0226L10.191 19.8129L9.25751 19.1668Z" fill="#183459"/>
<path d="M9.86501 18.1347L10.4952 18.5542L11.4455 17.1278L9.06058 17.2956V18.3445L9.48069 17.9249L9.86501 18.1347Z" fill="#183459"/>
</g>
<g id="Vector 6">
<path d="M6.31674 2.36859C5.89664 2.36859 5.65574 2.59963 5.48966 3.22407C5.26648 4.06316 5.2796 6.80697 6.11981 6.5972C6.43489 6.51854 6.60228 5.76139 6.62197 4.84569C6.63968 4.02217 6.53794 3.07041 6.31674 2.36859Z" fill="#D94F04"/>
<path d="M8.01029 28.2037C8.01029 26.9283 7.57706 25.4599 7.00178 25.0403C6.5268 25.0403 6.5268 25.6697 7.00178 27.5576C7.30498 28.047 7.64028 28.289 8.01029 28.2037Z" fill="#D94F04"/>
<path d="M6.11981 6.5972C5.2796 6.80697 5.26648 4.06316 5.48966 3.22407C5.65574 2.59963 5.89664 2.36859 6.31674 2.36859C6.53794 3.07041 6.63968 4.02217 6.62197 4.84569M6.11981 6.5972C10.3909 6.38743 18.7295 6.12467 20.6135 5.96788C21.4188 5.90086 22.2027 5.87667 22.924 5.86109M6.11981 6.5972C6.43489 6.51854 6.60228 5.76139 6.62197 4.84569M5.48966 1.35291C4.22934 1.35291 4.4394 5.33857 4.4394 8.69492C4.43939 11.2403 5.06733 24.4351 7.00178 27.5576M5.48966 1.35291C9.55068 1.42283 18.2189 1.56268 20.4034 1.56268C23.1341 1.56268 24.5782 1.33612 25.4315 1.75567C26.3738 2.21893 27.0094 4.8486 25.6416 5.53156C25.0698 5.81706 24.4604 5.82791 22.924 5.86109M5.48966 1.35291C6.27735 1.35291 6.65479 3.31952 6.62197 4.84569M8.01029 28.2037C10.741 27.5744 24.8145 24.218 25.4447 24.0083C26.0748 23.7985 26.4949 22.9594 25.0246 21.2812C24.5204 20.7778 23.9743 20.9316 23.7642 21.0715M8.01029 28.2037C8.01029 26.9283 7.57706 25.4599 7.00178 25.0403M8.01029 28.2037C7.64028 28.289 7.30498 28.047 7.00178 27.5576M23.7642 21.0715C23.4142 20.1624 22.714 17.9249 22.714 16.7502M23.7642 21.0715L7.00178 25.0403M22.924 5.86109C22.574 7.78463 22.1679 11.8834 22.5039 13.7294M22.5039 13.7294L22.011 14.4268M22.5039 13.7294L26.5934 10.5829L30.6829 7.43629M30.6829 7.43629V8.36064M30.6829 7.43629L31.7331 8.0656L32.5733 9.534V10.3731M19.9833 17.2956L22.011 14.4268M19.9833 17.2956L20.8235 17.1277M19.9833 17.2956L20.7365 16.2299L13.6616 17.4041C13.322 17.4604 13.0892 17.7769 13.1364 18.1178V18.1178C13.1854 18.4719 13.5167 18.7158 13.8694 18.6574L20.8235 17.5053V17.1277M24.1844 16.4565L32.5733 10.3731M24.1844 16.4565L23.8027 16.5327M24.1844 16.4565C24.0415 16.4921 23.9148 16.5171 23.8027 16.5327M32.5733 10.3731L31.5231 9.74378M31.5231 9.74378L30.6829 8.36064M31.5231 9.74378C28.4423 11.8415 24.6465 14.8203 23.1341 15.8272M30.6829 8.36064L22.2939 14.5685M22.2939 14.5685C22.0138 15.058 21.7898 15.995 23.1341 15.8272M22.2939 14.5685C22.1753 14.6139 21.9527 14.6491 22.011 14.4268M23.1341 15.8272C22.9464 16.1396 22.8593 16.6644 23.8027 16.5327M9.48066 9.534L8.8505 10.1633L10.1108 11.2122M9.48066 9.534L10.1108 9.95355L11.3711 8.69492L12.3301 7.73724C12.4966 7.57096 12.7663 7.57096 12.9328 7.73724L12.9594 7.76384C13.1263 7.93043 13.1263 8.20077 12.9594 8.36736L11.3711 9.95355L10.191 11.1321L10.1108 11.2122M9.48066 9.534H8.8505L8.20722 10.1465L8.83738 10.5661L9.62585 11.1582L9.69072 11.2122H10.1108M9.48066 13.7294L8.8505 14.3588L10.1108 15.4076M9.48066 13.7294L10.1108 14.149L11.148 13.0833L12.1214 11.9737C12.2838 11.7885 12.569 11.7791 12.7433 11.9532L12.7666 11.9765C12.9266 12.1362 12.9341 12.393 12.7838 12.5618L11.3711 14.149L10.191 15.3275L10.1108 15.4076M9.48066 13.7294H8.8505L8.20722 14.342L8.83738 14.7615L9.62585 15.3536L9.69072 15.4076H10.1108M9.86499 18.1346L9.23483 18.764L10.676 19.8668M9.86499 18.1346L10.4951 18.5542L11.4455 17.1277L12.1265 16.2201C12.2822 16.0127 12.5855 15.991 12.769 16.1743L12.8038 16.2091C12.9478 16.3529 12.9702 16.5784 12.8572 16.7476L11.7912 18.3444L10.7562 19.7867L10.676 19.8668M9.86499 18.1346L9.48066 17.9249L9.06056 18.3444L8.62732 18.764L9.25748 19.1667L10.191 19.8128L10.2559 19.8668H10.676M20.8235 17.1277L23.8027 16.5327M7.00178 25.0403C6.5268 25.0403 6.5268 25.6697 7.00178 27.5576M20.4034 13.0531V13.0531C20.4034 13.3187 20.2037 13.5418 19.9397 13.5711L13.4202 14.2945C13.1115 14.3288 12.8415 14.0871 12.8415 13.7765V13.7765C12.8415 13.5109 13.0413 13.2877 13.3053 13.2584L19.8247 12.535C20.1334 12.5008 20.4034 12.7424 20.4034 13.0531ZM20.4794 9.36406V9.36406C20.4344 9.58893 20.246 9.75687 20.0175 9.77589L13.4069 10.326C13.1025 10.3514 12.8415 10.1112 12.8415 9.80575V9.80575C12.8415 9.53375 13.0503 9.30732 13.3215 9.28537L19.9333 8.74999C20.2741 8.72239 20.5466 9.02874 20.4794 9.36406Z" stroke="#D94F04" stroke-width="0.213235"/>
</g>
<g id="Vector 9">
<path d="M13.3055 13.2585C13.0415 13.2878 12.8418 13.5109 12.8418 13.7765C12.8418 14.0872 13.1118 14.3288 13.4205 14.2946L19.9399 13.5712C20.2039 13.5419 20.4037 13.3187 20.4037 13.0531C20.4037 12.7425 20.1337 12.5008 19.825 12.5351L13.3055 13.2585Z" fill="#FFBD43"/>
<path d="M19.9836 17.2956L20.7368 16.23L13.6618 17.4041C13.3223 17.4605 13.0895 17.777 13.1367 18.1179C13.1857 18.4719 13.517 18.7158 13.8696 18.6574L20.8238 17.5054V17.1278L19.9836 17.2956Z" fill="#FFBD43"/>
<path d="M13.3217 9.2854C13.0506 9.30735 12.8418 9.53378 12.8418 9.80578C12.8418 10.1112 13.1028 10.3514 13.4072 10.3261L20.0178 9.77592C20.2463 9.7569 20.4347 9.58896 20.4797 9.36409C20.5469 9.02877 20.2744 8.72242 19.9335 8.75002L13.3217 9.2854Z" fill="#FFBD43"/>
<path d="M13.3055 13.2585C13.0415 13.2878 12.8418 13.5109 12.8418 13.7765C12.8418 14.0872 13.1118 14.3288 13.4205 14.2946L19.9399 13.5712C20.2039 13.5419 20.4037 13.3187 20.4037 13.0531C20.4037 12.7425 20.1337 12.5008 19.825 12.5351L13.3055 13.2585Z" stroke="#D94F04" stroke-width="0.213235"/>
<path d="M19.9836 17.2956L20.7368 16.23L13.6618 17.4041C13.3223 17.4605 13.0895 17.777 13.1367 18.1179C13.1857 18.4719 13.517 18.7158 13.8696 18.6574L20.8238 17.5054V17.1278L19.9836 17.2956Z" stroke="#D94F04" stroke-width="0.213235"/>
<path d="M13.3217 9.2854C13.0506 9.30735 12.8418 9.53378 12.8418 9.80578C12.8418 10.1112 13.1028 10.3514 13.4072 10.3261L20.0178 9.77592C20.2463 9.7569 20.4347 9.58896 20.4797 9.36409C20.5469 9.02877 20.2744 8.72242 19.9335 8.75002L13.3217 9.2854Z" stroke="#D94F04" stroke-width="0.213235"/>
</g>
<g id="Vector 7">
<path d="M24.1844 16.4566L32.5733 10.3732L31.5231 9.74389C28.4423 11.8416 24.6465 14.8204 23.1341 15.8273C22.9464 16.1398 22.8593 16.6645 23.8027 16.5328L24.1844 16.4566Z" fill="#FFBD43"/>
<path d="M30.6829 7.4364L26.5934 10.583L22.5039 13.7296L22.011 14.427C21.9527 14.6492 22.1753 14.614 22.2939 14.5686L30.6829 8.36075V7.4364Z" fill="#FFBD43"/>
<path d="M24.1844 16.4566L32.5733 10.3732L31.5231 9.74389C28.4423 11.8416 24.6465 14.8204 23.1341 15.8273C22.9464 16.1398 22.8593 16.6645 23.8027 16.5328L24.1844 16.4566Z" stroke="#D94F04" stroke-width="0.213235"/>
<path d="M30.6829 7.4364L26.5934 10.583L22.5039 13.7296L22.011 14.427C21.9527 14.6492 22.1753 14.614 22.2939 14.5686L30.6829 8.36075V7.4364Z" stroke="#D94F04" stroke-width="0.213235"/>
</g>
</g>
<defs>
<filter id="filter0_d_10460_977" x="0" y="0.5" width="37" height="37" filterUnits="userSpaceOnUse" color-interpolation-filters="sRGB">
<feFlood flood-opacity="0" result="BackgroundImageFix"/>
<feColorMatrix in="SourceAlpha" type="matrix" values="0 0 0 0 0 0 0 0 0 0 0 0 0 0 0 0 0 0 127 0" result="hardAlpha"/>
<feOffset dy="4"/>
<feGaussianBlur stdDeviation="2"/>
<feComposite in2="hardAlpha" operator="out"/>
<feColorMatrix type="matrix" values="0 0 0 0 0 0 0 0 0 0 0 0 0 0 0 0 0 0 0.25 0"/>
<feBlend mode="normal" in2="BackgroundImageFix" result="effect1_dropShadow_10460_977"/>
<feBlend mode="normal" in="SourceGraphic" in2="effect1_dropShadow_10460_977" result="shape"/>
</filter>
</defs>
</svg>
