<svg width="30" height="31" viewBox="0 0 30 31" fill="none" xmlns="http://www.w3.org/2000/svg">
<g id="fi_1384005" clip-path="url(#clip0_3808_113010)">
<path id="Vector" d="M30 15.5C30 7.21484 23.2852 0.5 15 0.5C6.71484 0.5 0 7.21484 0 15.5C0 23.7852 6.71484 30.5 15 30.5C15.0879 30.5 15.1758 30.5 15.2637 30.4941V18.8223H12.041V15.0664H15.2637V12.3008C15.2637 9.0957 17.2207 7.34961 20.0801 7.34961C21.4512 7.34961 22.6289 7.44922 22.9688 7.49609V10.8477H21C19.4473 10.8477 19.1426 11.5859 19.1426 12.6699V15.0605H22.8633L22.377 18.8164H19.1426V29.9199C25.4121 28.1211 30 22.3496 30 15.5Z" fill="white"/>
</g>
<defs>
<clipPath id="clip0_3808_113010">
<rect width="30" height="30" fill="white" transform="translate(0 0.5)"/>
</clipPath>
</defs>
</svg>
