<svg width="27" height="30" viewBox="0 0 27 30" fill="none" xmlns="http://www.w3.org/2000/svg">
<g id="Group 11458">
<path id="Ellipse 87" d="M4.64173 7.81726L4.64174 7.81726L4.64211 7.81607C4.9538 6.81172 5.6778 5.25375 6.83429 3.85416C7.99058 2.4548 9.5737 1.22016 11.6032 0.847406C14.1604 0.377706 16.138 0.587318 17.6955 1.13243C19.2532 1.67763 20.3964 2.56047 21.2818 3.4459C22.1608 4.32489 22.68 5.41293 23.0858 6.38148C23.1525 6.54081 23.2164 6.69749 23.2785 6.84955C23.4039 7.15703 23.5216 7.44563 23.6395 7.69917C23.8155 8.07728 23.9988 8.39369 24.2235 8.59026L24.2339 8.59936L24.2466 8.60481C24.6153 8.76284 24.9398 8.91421 25.1749 9.16167C25.4057 9.40459 25.5574 9.74864 25.5574 10.3079C25.5574 10.8858 25.5301 11.3909 25.3175 11.8162C25.1077 12.2359 24.7101 12.5906 23.9386 12.8477L23.8913 12.8635L23.8808 12.9123C23.5656 14.3835 23.0452 16.7654 21.0797 18.3171L21.0425 18.3464L21.0468 18.3936C21.0979 18.955 20.969 19.4538 20.7 19.7717C20.4356 20.0842 20.0259 20.2341 19.4783 20.0848C18.9304 19.9354 18.6418 19.592 18.5573 19.1937C18.4717 18.7903 18.593 18.3172 18.8958 17.9136C19.1852 17.5276 19.722 17.4026 20.0988 17.499C20.2938 17.5489 20.4738 17.6307 20.6108 17.7125C20.6793 17.7533 20.7358 17.7934 20.7774 17.8285C20.8216 17.8657 20.8411 17.8907 20.8459 17.9002L20.8959 18.0003L20.9808 17.9275C21.3521 17.6092 21.8319 17.1561 22.2844 16.3842C22.7366 15.6129 23.1593 14.5272 23.423 12.9449L23.4323 12.8892L23.3853 12.8579C22.8739 12.5169 22.8862 12.0366 22.8968 11.6271C22.8982 11.5705 22.8996 11.5152 22.8996 11.4619C22.8996 11.2837 22.9189 10.9115 22.9411 10.4836C22.9447 10.4147 22.9483 10.3443 22.952 10.2731C22.9782 9.76224 23.0045 9.2091 23.0045 8.83924C23.0045 8.64334 22.9364 8.16181 22.7383 7.53282C22.5395 6.9018 22.2084 6.11722 21.6787 5.31606C20.6183 3.71208 18.7633 2.04466 15.5909 1.41018C12.9347 0.878939 10.3754 1.73226 7.75439 3.94686C5.3305 5.99493 5.47349 8.58493 5.51392 9.31727C5.51758 9.38355 5.52039 9.43461 5.52039 9.46868C5.52039 9.52813 5.53292 9.63158 5.54918 9.75769C5.55254 9.78368 5.55609 9.81091 5.55979 9.83927C5.57449 9.95195 5.59154 10.0826 5.60783 10.226C5.64863 10.585 5.68408 11.0189 5.66474 11.4316C5.64527 11.8468 5.57074 12.2277 5.40158 12.4898C5.31804 12.6193 5.21233 12.7184 5.07912 12.78C4.94578 12.8417 4.77894 12.8685 4.56889 12.8438C3.70006 12.7416 3.25523 12.3874 3.02201 11.97C2.78482 11.5456 2.75773 11.0414 2.75773 10.6226C2.75773 10.2046 2.78416 9.77023 2.89779 9.41673C3.01082 9.06507 3.20495 8.80733 3.53363 8.71342C4.29641 8.49548 4.56449 8.05415 4.64173 7.81726ZM26.3998 23.0033L26.3966 23.0147V23.0265V26.5683H26.3957L26.3976 26.5811C26.4265 26.7763 26.3346 27.0442 25.9954 27.3437C25.657 27.6426 25.0828 27.9624 24.1806 28.2555C22.3766 28.8415 19.2837 29.3134 14.21 29.3134C7.86594 29.3134 4.46827 28.7626 2.65955 28.138C0.849345 27.5129 0.659615 26.8264 0.659615 26.5683V23.1064C0.659615 22.9793 0.754696 22.8441 0.98709 22.7062C1.21565 22.5705 1.55339 22.4471 1.98248 22.3362C2.83924 22.1148 4.03665 21.9494 5.39264 21.8275C8.10321 21.5838 11.4309 21.5153 13.8953 21.5153C15.9945 21.5153 19.0607 21.5939 21.6406 21.7904C22.9309 21.8887 24.097 22.0163 24.959 22.1777C25.3905 22.2584 25.7421 22.347 25.9939 22.4432C26.1199 22.4914 26.2175 22.5402 26.2868 22.5887C26.3574 22.638 26.39 22.681 26.4011 22.7144C26.428 22.7951 26.4305 22.8918 26.3998 23.0033ZM21.9906 10.3079C21.9906 14.5471 18.5541 17.9836 14.3149 17.9836C10.0758 17.9836 6.63925 14.5471 6.63925 10.3079C6.63925 6.06876 10.0758 2.63224 14.3149 2.63224C18.5541 2.63224 21.9906 6.06876 21.9906 10.3079Z" stroke="#D94F04" stroke-width="0.174699"/>
<path id="Ellipse 89" d="M12.2166 5.69209C11.6222 5.93687 10.5591 6.84605 11.0627 8.52455C11.6921 10.6227 13.2657 13.2453 14.2099 14.2944C15.154 15.3434 15.5736 15.3434 16.7276 14.8189C17.8816 14.2944 18.1963 14.0846 17.7767 13.1404C17.357 12.1962 16.7276 11.357 16.2031 11.4619C15.6785 11.5668 15.5736 12.3012 15.0491 11.9864C14.5246 11.6717 13.0559 9.15398 13.1608 8.41964C13.2657 7.6853 13.7902 7.58039 14.105 7.47549C14.4197 7.37058 14.5246 7.05586 14.3148 6.53134C14.105 6.00681 13.6853 4.95775 13.2657 5.16756L12.2166 5.69209Z" fill="#183459"/>
<path id="Ellipse 88" d="M13.8971 22.0749L13.8971 22.0749L13.8936 22.0749C13.5745 22.081 13.2259 22.0872 12.8554 22.0937C11.0958 22.1246 8.84233 22.1643 6.90218 22.2481C5.72813 22.2988 4.66653 22.3658 3.89764 22.4571C3.51383 22.5027 3.19921 22.5548 2.97906 22.615C2.86967 22.6449 2.77809 22.6783 2.71203 22.7169C2.65171 22.7522 2.58303 22.8094 2.58303 22.8966C2.58303 23.0281 2.66721 23.144 2.793 23.2436C2.92064 23.3446 3.10643 23.4414 3.34535 23.5338C3.82408 23.7189 4.5358 23.8938 5.47585 24.045C7.35725 24.3476 10.1685 24.5576 13.8953 24.5576C17.6217 24.5576 20.1457 24.3477 21.7402 24.0446C22.5368 23.8932 23.1065 23.7176 23.4793 23.5303C23.6657 23.4367 23.8072 23.3381 23.9031 23.2344C23.9997 23.1301 24.0536 23.0164 24.0536 22.8966C24.0536 22.815 23.9963 22.7575 23.9397 22.7197C23.8802 22.68 23.7982 22.646 23.7015 22.6159C23.5068 22.5552 23.2293 22.5029 22.8912 22.4573C22.2136 22.3659 21.2762 22.2989 20.2332 22.2481C18.4668 22.1622 16.3902 22.1227 14.7449 22.0914C14.4466 22.0857 14.1625 22.0803 13.8971 22.0749ZM4.64173 7.81726L4.64174 7.81726L4.64211 7.81607C4.9538 6.81172 5.6778 5.25375 6.83429 3.85416C7.99058 2.4548 9.5737 1.22016 11.6032 0.847406C14.1604 0.377706 16.138 0.587318 17.6955 1.13243C19.2532 1.67763 20.3964 2.56047 21.2818 3.4459C22.1608 4.32489 22.68 5.41293 23.0858 6.38148C23.1525 6.54081 23.2164 6.69748 23.2785 6.84954C23.4039 7.15702 23.5216 7.44563 23.6395 7.69917C23.8155 8.07728 23.9988 8.39369 24.2235 8.59026L24.2339 8.59936L24.2466 8.60481C24.6153 8.76284 24.9398 8.91421 25.1749 9.16167C25.4057 9.40459 25.5574 9.74864 25.5574 10.3079C25.5574 10.8858 25.5301 11.3909 25.3175 11.8162C25.1091 12.233 24.7156 12.5856 23.9546 12.8423C23.9385 12.8406 23.907 12.8358 23.8572 12.8244C23.7913 12.8094 23.6979 12.784 23.5743 12.7428L23.5745 12.7422L23.5638 12.74C23.5321 12.7337 23.4937 12.7077 23.4525 12.6405C23.4117 12.5739 23.3754 12.4781 23.3444 12.3566C23.2826 12.1141 23.2469 11.7898 23.2273 11.4438C23.1974 10.9149 23.2057 10.3493 23.2112 9.96966C23.2129 9.85284 23.2144 9.75362 23.2144 9.67849C23.2144 9.19395 23.418 8.66242 23.5199 8.45868L23.6048 8.28881L23.4205 8.33488C23.3418 8.35455 23.2222 8.40033 23.1099 8.47554C23.0666 8.50455 23.023 8.53882 22.983 8.57869C22.9498 8.33049 22.8749 7.96675 22.7383 7.53282C22.5395 6.9018 22.2084 6.11722 21.6787 5.31606C20.6185 3.71251 18.7643 2.04556 15.5935 1.4107C13.575 0.880485 11.2457 1.41113 9.86747 2.15327L9.86745 2.15324L9.8653 2.15448C6.5013 4.09132 5.39206 6.91664 5.22113 8.645C5.12851 8.57891 5.01843 8.53405 4.91349 8.50358C4.74172 8.45371 4.56551 8.43717 4.45378 8.43717L4.14231 8.43717C4.45379 8.22422 4.59021 7.97526 4.64173 7.81726ZM3.53363 8.71342C3.78665 8.64113 3.98524 8.54425 4.14049 8.43841L4.40884 8.59942C4.56079 8.69059 4.91596 9.0447 4.99654 9.68932C5.04891 10.1083 5.12665 10.8359 5.08781 11.4961C5.06837 11.8266 5.01998 12.1345 4.92782 12.3766C4.83876 12.6106 4.7139 12.7707 4.54707 12.8412C3.6926 12.7356 3.25327 12.3839 3.02201 11.97C2.78482 11.5456 2.75773 11.0414 2.75773 10.6226C2.75773 10.2046 2.78416 9.77023 2.89779 9.41673C3.01082 9.06507 3.20495 8.80733 3.53363 8.71342ZM0.659615 23.1064C0.659615 22.9793 0.754696 22.8441 0.98709 22.7062C1.21565 22.5705 1.55339 22.4471 1.98248 22.3362C2.83924 22.1148 4.03666 21.9494 5.39264 21.8275C8.10322 21.5838 11.4309 21.5153 13.8953 21.5153C15.9945 21.5153 19.0607 21.5939 21.6406 21.7904C22.9309 21.8887 24.097 22.0163 24.959 22.1777C25.3905 22.2584 25.7421 22.347 25.9939 22.4432C26.1199 22.4914 26.2175 22.5402 26.2868 22.5887C26.3496 22.6325 26.3823 22.6714 26.3967 22.703V23.0144C26.323 23.266 26.0839 23.5826 25.6158 23.9181C25.1431 24.2569 24.4459 24.6086 23.4782 24.9266C21.543 25.5627 18.5357 26.0613 14.1051 26.0613C9.17694 26.0613 5.80236 25.7204 3.66243 25.1724C2.59199 24.8982 1.83703 24.5739 1.35156 24.2194C0.867445 23.8658 0.659615 23.4892 0.659615 23.1064Z" fill="#FFBD43" stroke="#D94F04" stroke-width="0.174699"/>
<path id="Ellipse 90" d="M2.90144 23.1066C2.79462 23.0221 2.75968 22.9526 2.75784 22.901C2.76029 22.8972 2.76958 22.8857 2.8002 22.8678C2.84658 22.8407 2.92087 22.8121 3.02518 22.7835C3.23244 22.7268 3.5366 22.676 3.91827 22.6306C4.68035 22.5401 5.73654 22.4733 6.90975 22.4227C8.84742 22.3389 11.098 22.2993 12.8577 22.2684C13.2278 22.2619 13.5761 22.2557 13.8953 22.2497C14.1607 22.255 14.4445 22.2604 14.7423 22.2661C16.3878 22.2974 18.4612 22.3369 20.2248 22.4226C21.2668 22.4733 22.198 22.5401 22.8678 22.6305C23.2034 22.6757 23.4693 22.7264 23.6495 22.7827C23.7403 22.811 23.8037 22.839 23.8427 22.865C23.8712 22.884 23.8777 22.8956 23.8789 22.8984C23.8784 22.9618 23.8502 23.0344 23.7749 23.1158C23.6984 23.1985 23.5768 23.2859 23.4009 23.3742C23.0492 23.5509 22.4978 23.7228 21.7076 23.873C20.1287 24.1731 17.6172 24.3829 13.8953 24.3829C10.1738 24.3829 7.37261 24.1732 5.50362 23.8726C4.56848 23.7222 3.87053 23.5496 3.40839 23.3708C3.17687 23.2813 3.00942 23.192 2.90144 23.1066Z" fill="#D94F04" stroke="#D94F04" stroke-width="0.174699"/>
</g>
</svg>
