<svg width="29" height="30" viewBox="0 0 29 30" fill="none" xmlns="http://www.w3.org/2000/svg">
<g id="Group 11455">
<g id="Vector 4">
<path d="M14.5965 7.4C19.5965 7.1 21.8964 11.8 21.5964 15.4L27.5964 14.8L27.4834 13.2L23.4001 13.7L22.2964 13.1C22.1295 11.0255 20.8914 7.48759 17.4768 5.7C15.621 5.06 14.05 5.16667 13.4964 5.3V6.95156C13.959 7.13964 14.3446 7.29695 14.5965 7.4Z" fill="#D94F04"/>
<path d="M7.45126 18.1C6.64921 14.8082 8.08311 11.3395 9.59651 9.7L6.89644 8.67837C4.04098 11.5886 4.17238 15.772 4.26215 17.7L5.69644 18C6.65644 18 7.16632 18.1 7.45126 18.1Z" fill="#D94F04"/>
<path d="M13.4964 23.7857C12.8949 23.7148 12.2614 23.5574 11.5965 23.3C8.59644 21.8 7.92112 20.0285 7.45126 18.1C7.16632 18.1 6.65644 18 5.69644 18C6.09644 22.3 9.72983 23.9 11.5965 24.3L13.4964 23.7857Z" fill="#D94F04"/>
<path d="M14.5965 7.4C13.7298 7.3 11.5165 7.62 9.59651 9.7M14.5965 7.4C19.5965 7.1 21.8964 11.8 21.5964 15.4M14.5965 7.4C14.3446 7.29695 13.959 7.13964 13.4964 6.95156M9.59651 9.7C8.08311 11.3395 6.64921 14.8082 7.45126 18.1M9.59651 9.7L6.89644 8.67837M21.5964 15.4L27.5964 14.8M21.5964 15.4C21.2984 18.9764 18.5039 24.3763 13.4964 23.7857M5.89644 8.3C6.72977 7.36666 8.79644 5.54 10.3964 5.7M5.89644 8.3L6.89644 8.67837M5.89644 8.3L4.26215 6.1M10.3964 5.7C10.4964 4.93333 10.6964 2.3 10.6964 0.5M10.3964 5.7C11.4469 6.12017 12.6123 6.59207 13.4964 6.95156M10.6964 0.5C7.81644 0.66 4.56311 3.43333 3.29644 4.8L4.26215 6.1M10.6964 0.5L12.2964 1.5M12.2964 1.5V4.6M12.2964 1.5V0.8C13.1964 0.6 15.4964 0.38 17.4964 1.1M12.2964 4.6L13.4964 5.3M12.2964 4.6C14.4144 4.55445 16.1179 4.98863 17.4768 5.7M13.4964 5.3V6.95156M13.4964 5.3C14.05 5.16667 15.621 5.06 17.4768 5.7M17.4964 1.1C19.9964 2 24.4964 3.5 27.1964 12.4M17.4964 1.1C25.1735 2.78 27.931 9.9 28.3001 13.1M27.1964 12.4C25.2764 12.72 23.1298 13 22.2964 13.1M27.1964 12.4L28.3001 13.1M22.2964 13.1C22.1295 11.0255 20.8914 7.48759 17.4768 5.7M22.2964 13.1L23.4001 13.7L27.4834 13.2M27.5964 14.8C27.6631 16.2667 26.9504 20.5795 25.3001 23C23.8001 25.2 21.0964 29.2 13.4964 29.4C13.4964 29.2012 13.4964 29.0008 13.4964 28.8M27.5964 14.8L27.4834 13.2M13.4964 23.7857C12.8949 23.7148 12.2614 23.5574 11.5965 23.3C8.59644 21.8 7.92112 20.0285 7.45126 18.1M13.4964 23.7857C13.4964 24.6405 13.4964 26.7393 13.4964 28.8M13.4964 23.7857L11.5965 24.3M13.4964 23.7857V28.8M13.4964 28.8L11.5965 29.4M11.5965 29.4V24.3M11.5965 29.4C5.11659 29.08 2.29649 22.7333 1.69644 19.6M11.5965 24.3C9.72983 23.9 6.09644 22.3 5.69644 18M5.69644 18C6.65644 18 7.16632 18.1 7.45126 18.1M5.69644 18L1.69644 19.6M5.69644 18L4.26215 17.7M1.69644 19.6L0.696428 19.1M4.26215 17.7C4.17238 15.772 4.04098 11.5886 6.89644 8.67837M4.26215 17.7L0.696428 19.1M0.696428 19.1C0.406904 16.2333 0.554726 9.78 4.26215 6.1M28.3001 13.1L27.4834 13.2" stroke="#D94F04" stroke-width="0.2"/>
</g>
<g id="Vector 6">
<path d="M11.5964 29.4V24.3C9.72968 23.9 6.09629 22.3 5.69629 18L1.69629 19.6C2.29634 22.7333 5.11644 29.08 11.5964 29.4Z" fill="#FFBD43"/>
<path d="M12.2963 1.49997V4.59997C14.4142 4.55443 16.1178 4.9886 17.4766 5.69997C20.8913 7.48756 22.1294 11.0255 22.2963 13.1C23.1296 13 25.2763 12.72 27.1963 12.4C24.4963 3.49997 19.9963 1.99997 17.4963 1.09997C15.4963 0.379972 13.1963 0.599971 12.2963 0.799971V1.49997Z" fill="#FFBD43"/>
<path d="M11.5964 29.4V24.3C9.72968 23.9 6.09629 22.3 5.69629 18L1.69629 19.6C2.29634 22.7333 5.11644 29.08 11.5964 29.4Z" stroke="#D94F04" stroke-width="0.2"/>
<path d="M12.2963 1.49997V4.59997C14.4142 4.55443 16.1178 4.9886 17.4766 5.69997C20.8913 7.48756 22.1294 11.0255 22.2963 13.1C23.1296 13 25.2763 12.72 27.1963 12.4C24.4963 3.49997 19.9963 1.99997 17.4963 1.09997C15.4963 0.379972 13.1963 0.599971 12.2963 0.799971V1.49997Z" stroke="#D94F04" stroke-width="0.2"/>
</g>
<path id="Vector 5" d="M5.89639 8.3C6.72972 7.36666 8.79639 5.54 10.3964 5.7C10.4964 4.93333 10.6964 2.3 10.6964 0.5C7.81639 0.66 4.56305 3.43333 3.29639 4.8L4.2621 6.1L5.89639 8.3Z" fill="#183459" stroke="#D94F04" stroke-width="0.2"/>
<g id="Vector 7">
<path d="M1.6963 19.6L5.6963 18L4.26202 17.7L0.696289 19.1L1.6963 19.6Z" fill="#FFBD43"/>
<path d="M12.2963 4.60001L13.4963 5.30001C14.0499 5.16667 15.6209 5.06 17.4766 5.7C16.1178 4.98864 14.4142 4.55446 12.2963 4.60001Z" fill="#FFBD43"/>
<path d="M27.1963 12.4C25.2763 12.72 23.1296 13 22.2963 13.1L23.4 13.7L27.4833 13.2L28.3 13.1L27.1963 12.4Z" fill="#FFBD43"/>
<path d="M13.4963 28.8V23.7857L11.5964 24.3V29.4L13.4963 28.8Z" fill="#FFBD43"/>
<path d="M1.6963 19.6L5.6963 18L4.26202 17.7L0.696289 19.1L1.6963 19.6Z" stroke="#D94F04" stroke-width="0.2"/>
<path d="M12.2963 4.60001L13.4963 5.30001C14.0499 5.16667 15.6209 5.06 17.4766 5.7C16.1178 4.98864 14.4142 4.55446 12.2963 4.60001Z" stroke="#D94F04" stroke-width="0.2"/>
<path d="M27.1963 12.4C25.2763 12.72 23.1296 13 22.2963 13.1L23.4 13.7L27.4833 13.2L28.3 13.1L27.1963 12.4Z" stroke="#D94F04" stroke-width="0.2"/>
<path d="M13.4963 28.8V23.7857L11.5964 24.3V29.4L13.4963 28.8Z" stroke="#D94F04" stroke-width="0.2"/>
</g>
</g>
</svg>
