<svg width="30" height="28" viewBox="0 0 30 28" fill="none" xmlns="http://www.w3.org/2000/svg">
<g id="Group 1">
<path id="Vector 1" d="M1.85303 17.9914V25.2142C1.85303 25.718 2.28737 26.1121 2.78879 26.0631L9.82555 25.3766C10.2625 25.334 10.5957 24.9667 10.5957 24.5277V17.4765C10.5957 16.9809 10.1748 16.5896 9.68049 16.6258L2.64372 17.1407C2.198 17.1733 1.85303 17.5444 1.85303 17.9914Z" stroke="#D94F04" stroke-width="0.213235"/>
<path id="Vector 5" d="M5.26451 8.24269H5.95756C6.40817 8.24269 6.78291 7.89229 6.77929 7.4417C6.76969 6.24413 6.58703 4.67756 5.90427 4.40445C8.80427 4.40445 21.8969 4.80745 28.0807 5.00894C28.0807 4.08143 27.3377 3.32489 26.4103 3.30818L5.71408 2.93527C4.99858 2.92238 4.41162 3.49886 4.41162 4.21448V7.38975C4.41162 7.86081 4.79344 8.24269 5.26451 8.24269Z" fill="#FFBD43" stroke="#D94F04" stroke-width="0.213235"/>
<path id="Vector 2" d="M9.7427 16.5588H8.46328L2.1624 16.7473C1.70147 16.7611 1.33496 17.1387 1.33496 17.5999V24.849C1.33496 25.132 1.4753 25.3965 1.70959 25.5552L2.27946 25.9412" stroke="#D94F04" stroke-width="0.213235"/>
<g id="Vector 3">
<path d="M5.47794 4.40444L27.4412 5.00893C27.4412 4.67323 27.1724 4.39932 26.8368 4.39292L5.58954 3.98822C5.29404 3.98259 5.05147 4.22058 5.05147 4.51613C5.05147 4.80774 5.28787 5.04414 5.57948 5.04414H6.39226C6.19777 4.74759 5.90688 4.57601 5.47794 4.40444Z" fill="#D94F04"/>
<path d="M28.8907 20.1838L29.8456 4.03111C29.9303 2.59808 28.8198 1.37575 27.3852 1.32301L3.68623 0.451725C2.22455 0.397987 1.01532 1.57825 1.0336 3.0408L1.21324 17.4118M26.5882 24.252L28.1554 24.0984C28.5958 24.0552 28.93 23.6824 28.925 23.2399L28.7278 5.68478C28.7237 5.32431 28.4408 5.02874 28.0809 5.00893V5.00893H27.4412M6.77014 9.30885C6.76521 8.94211 6.76154 8.58487 6.75943 8.24267C6.75807 8.02274 6.75735 7.80901 6.75735 7.60297C6.75735 6.20105 6.68118 5.48469 6.39226 5.04414M6.39226 5.04414C6.19777 4.74759 5.90688 4.57601 5.47794 4.40444L27.4412 5.00893M6.39226 5.04414H5.57948C5.28787 5.04414 5.05147 4.80774 5.05147 4.51613V4.51613C5.05147 4.22058 5.29404 3.98259 5.58954 3.98822L26.8368 4.39293C27.1724 4.39932 27.4412 4.67323 27.4412 5.00893V5.00893M9.52941 9.09561H27.0147M9.52941 10.8015L27.0147 10.5883M9.52941 12.5074L27.0147 12.0809M9.52941 14L27.0147 13.3603M9.52941 15.4927L27.0147 14.853" stroke="#D94F04" stroke-width="0.213235"/>
</g>
<g id="10">
<path d="M4.84384 18.7642V24.105H3.74834V19.969H3.72173L2.70605 20.6992V19.5831L3.82595 18.7642H4.84384Z" fill="#183459"/>
<path d="M7.6091 24.2353C7.21289 24.2353 6.87138 24.1249 6.58456 23.9042C6.29775 23.6816 6.07673 23.3626 5.92149 22.9471C5.76626 22.5299 5.68938 22.0283 5.69086 21.4424C5.69234 20.8565 5.76996 20.3593 5.92371 19.9508C6.07895 19.5405 6.29923 19.2284 6.58456 19.0146C6.87138 18.799 7.21289 18.6912 7.6091 18.6912C8.00532 18.6912 8.34683 18.799 8.63365 19.0146C8.92194 19.2284 9.1437 19.5405 9.29893 19.9508C9.45417 20.3611 9.53104 20.8583 9.52956 21.4424C9.52956 22.03 9.45195 22.5325 9.29671 22.9497C9.14148 23.367 8.92046 23.686 8.63365 23.9068C8.34831 24.1258 8.0068 24.2353 7.6091 24.2353ZM7.6091 23.1792C7.84565 23.1792 8.03711 23.0375 8.18347 22.7541C8.32983 22.469 8.40227 22.0318 8.40079 21.4424C8.40079 21.0565 8.36753 20.7383 8.301 20.488C8.23447 20.2359 8.14207 20.0481 8.0238 19.9247C7.90553 19.8013 7.76729 19.7395 7.6091 19.7395C7.37404 19.7395 7.18406 19.8795 7.03918 20.1594C6.89429 20.4376 6.82111 20.8652 6.81963 21.4424C6.81815 21.8336 6.84994 22.1578 6.91499 22.4151C6.98152 22.6724 7.07466 22.8645 7.19441 22.9914C7.31416 23.1166 7.45239 23.1792 7.6091 23.1792Z" fill="#183459"/>
</g>
<path id="Vector 4" d="M6.97036 16.5588C6.91219 15.0464 6.80641 12.0238 6.76991 9.30884H5.69095C4.51328 9.30884 3.55859 10.2635 3.55859 11.4412V16.5588H6.97036Z" fill="#FFBD43" stroke="#D94F04" stroke-width="0.213235"/>
<path id="Vector 6" d="M7.65821 26.1079L26.5881 24.252C26.3281 25.0219 25.6444 25.5705 24.8365 25.6576L15.2866 26.6875L6.31967 27.6545C5.30071 27.7644 4.41162 26.966 4.41162 25.9412L6.97044 25.7279C7.09888 25.9848 7.37239 26.1359 7.65821 26.1079Z" fill="#FFBD43" stroke="#D94F04" stroke-width="0.213235"/>
</g>
</svg>
