<svg width="38" height="36" viewBox="0 0 38 36" fill="none" xmlns="http://www.w3.org/2000/svg">
<g id="Icon" filter="url(#filter0_d_10460_1824)">
<g id="Vector 9">
<path d="M33 22.0504L31.6512 4.98784C31.0796 9.37864 30.1049 16.9018 29.4945 21.7125L33 22.0504Z" fill="#D94F04"/>
<path d="M13.7791 8.53549C14.1163 9.21123 13.1047 10.0559 12.5988 9.38017C12.4409 9.16917 12.2939 8.85387 12.1682 8.48568C11.8621 8.89647 11.486 9.78561 12.4302 10.0559C13.4697 10.3535 14.757 9.38016 14.2849 8.19761C14.1163 7.77528 13.6291 7.57818 13.4697 7.69081C13.5489 8.00236 13.652 8.28091 13.7791 8.53549Z" fill="#D94F04"/>
<path d="M26.593 8.53549C26.7981 9.2204 25.2442 9.88697 24.907 9.21123C24.8101 8.82286 24.6946 8.36009 24.5855 7.85974C24.3554 8.02868 23.9291 8.53549 24.064 9.21123C24.2326 10.0559 25.5814 10.0559 26.2558 9.71804C26.9302 9.38016 27.3707 8.84588 27.0988 8.02868C26.9302 7.52187 26.505 7.39212 26.2751 7.39212C26.3794 7.8046 26.491 8.19478 26.593 8.53549Z" fill="#D94F04"/>
<path d="M10.0698 6.00146L10.0591 5.89537L9.98999 5.9023L9.96842 5.96835L10.0698 6.00146ZM28.9535 27.7942L28.9399 27.8999L29.0036 27.9081L29.0406 27.8556L28.9535 27.7942ZM33 22.0504L33.0872 22.1118L33.1093 22.0803L33.1063 22.042L33 22.0504ZM31.6512 4.98784L31.7574 4.97944L31.7495 4.87828L31.648 4.88127L31.6512 4.98784ZM11.7558 5.83252L11.8624 5.83784V5.83252H11.7558ZM28.8796 27.7847L28.8932 27.6789L28.8796 27.7847ZM28.9535 26.1048L29.0596 26.1154L28.9535 26.1048ZM29.4945 21.7125L29.3887 21.6991L29.4945 21.7125ZM26.593 8.53549L26.6952 8.5049L26.593 8.53549ZM24.907 9.21123L24.8035 9.23704L24.8064 9.24838L24.8116 9.25883L24.907 9.21123ZM25.4128 2.28487L25.4539 2.38325L25.4128 2.28487ZM13.7791 8.53549L13.8745 8.48788L13.7791 8.53549ZM12.5988 9.38017L12.5135 9.44406L12.5988 9.38017ZM12.7674 3.29848L12.7125 3.2071L12.7674 3.29848ZM13.7024 4.48103L13.6293 4.4035L13.7024 4.48103ZM14.6221 5.77015L14.627 5.87665L14.6221 5.77015ZM12.1682 8.48568L12.2691 8.45122L12.1682 8.48568ZM12.4302 10.0559L12.4596 9.95341L12.4302 10.0559ZM14.2849 8.19761L14.1859 8.23714L14.2849 8.19761ZM24.5855 7.85974L24.6896 7.83702L24.5855 7.85974ZM24.064 9.21123L24.1685 9.19036L24.064 9.21123ZM27.0988 8.02868L26.9977 8.06233L27.0988 8.02868ZM26.2751 7.39212L26.1717 7.41826L26.2751 7.39212ZM13.3425 7.01506L13.2368 7.02887L13.3425 7.01506ZM11.8241 7.01506L11.7185 7.03004L11.8241 7.01506ZM11.5277 13.2657V13.1591H11.4497L11.4261 13.2335L11.5277 13.2657ZM24.7384 13.3723C24.7973 13.3723 24.845 13.3246 24.845 13.2657C24.845 13.2068 24.7973 13.1591 24.7384 13.1591V13.3723ZM11.001 14.9286L10.8993 14.8965L11.001 14.9286ZM24.4706 15.2133L24.5756 15.2324L24.5762 15.2277L24.4706 15.2133ZM10.4233 16.7525L10.3216 16.7203L10.4233 16.7525ZM23.7171 19.9604C23.7758 19.9657 23.8276 19.9224 23.8329 19.8638C23.8382 19.8052 23.795 19.7533 23.7364 19.748L23.7171 19.9604ZM9.22674 20.5299L9.1251 20.4977L9.08573 20.622L9.21536 20.6359L9.22674 20.5299ZM12.0261 12.0455C12.0438 11.9894 12.0127 11.9295 11.9566 11.9117C11.9005 11.8939 11.8406 11.925 11.8228 11.9812L12.0261 12.0455ZM14.3873 12.0428C14.4036 11.9862 14.371 11.9272 14.3144 11.9109C14.2578 11.8946 14.1987 11.9273 14.1824 11.9839L14.3873 12.0428ZM16.749 12.0384C16.7628 11.9812 16.7277 11.9236 16.6704 11.9097C16.6132 11.8959 16.5556 11.931 16.5417 11.9883L16.749 12.0384ZM14.4485 21.0905L14.4371 21.1965L14.4485 21.0905ZM19.4468 12.0377C19.4603 11.9803 19.4247 11.923 19.3673 11.9095C19.31 11.8961 19.2526 11.9317 19.2392 11.989L19.4468 12.0377ZM17.0474 21.3503C17.0339 21.4076 17.0695 21.465 17.1269 21.4784C17.1842 21.4918 17.2415 21.4562 17.255 21.3989L17.0474 21.3503ZM22.1454 12.0334C22.1565 11.9755 22.1186 11.9197 22.0607 11.9086C22.0029 11.8976 21.947 11.9355 21.936 11.9933L22.1454 12.0334ZM20.0813 21.6924C20.0703 21.7503 20.1082 21.8061 20.166 21.8172C20.2238 21.8283 20.2797 21.7903 20.2908 21.7325L20.0813 21.6924ZM25.0126 12.0278C25.0206 11.9694 24.9797 11.9157 24.9214 11.9077C24.863 11.8997 24.8093 11.9406 24.8013 11.9989L25.0126 12.0278ZM23.6264 20.4249L23.7319 20.4403L23.6264 20.4249ZM21.7563 21.875L21.7449 21.981L21.7563 21.875ZM29.2326 8.47288L29.3382 8.48714L29.2326 8.47288ZM5.53279 24.7816L5.54639 24.6758L5.53279 24.7816ZM24.9119 24.7276L24.9016 24.8337L24.9119 24.7276ZM27.2174 22.9088L27.323 22.9238L27.2174 22.9088ZM9.96842 5.96835L4.37848 23.0823L4.58118 23.1485L10.1711 6.03456L9.96842 5.96835ZM29.0406 27.8556L33.0872 22.1118L32.9128 21.9889L28.8663 27.7328L29.0406 27.8556ZM33.1063 22.042L31.7574 4.97944L31.5449 4.99624L32.8937 22.0588L33.1063 22.042ZM10.0804 6.10754L11.7664 5.93861L11.7452 5.72644L10.0591 5.89537L10.0804 6.10754ZM28.866 27.8904L28.9399 27.8999L28.9671 27.6884L28.8932 27.6789L28.866 27.8904ZM29.0596 26.1154C29.1028 25.6821 29.3103 24.0113 29.6003 21.7259L29.3887 21.6991C29.099 23.9825 28.891 25.6572 28.8474 26.0942L29.0596 26.1154ZM29.6003 21.7259C30.2107 16.9154 31.1853 9.39239 31.7569 5.00161L31.5454 4.97408C30.9738 9.3649 29.9992 16.8882 29.3887 21.6991L29.6003 21.7259ZM33.0102 21.9442L29.5047 21.6064L29.4843 21.8186L32.9898 22.1565L33.0102 21.9442ZM26.4909 8.56607C26.5286 8.69199 26.4894 8.82593 26.3812 8.95726C26.2727 9.08899 26.103 9.20621 25.9125 9.28511C25.722 9.36406 25.521 9.40036 25.3537 9.38112C25.1884 9.36211 25.0661 9.29135 25.0024 9.16362L24.8116 9.25883C24.9164 9.46898 25.1149 9.5683 25.3293 9.59296C25.5418 9.61739 25.7797 9.57094 25.9942 9.4821C26.2087 9.39321 26.4101 9.2576 26.5458 9.09283C26.6819 8.92767 26.76 8.72144 26.6952 8.5049L26.4909 8.56607ZM31.648 4.88127L27.6015 5.00052L27.6078 5.21366L31.6543 5.09441L31.648 4.88127ZM25.4539 2.38325C25.7247 2.2702 25.9798 2.29876 26.217 2.42615C26.458 2.55562 26.6821 2.78868 26.8746 3.08458C27.2601 3.6772 27.498 4.4894 27.498 5.10709H27.7113C27.7113 4.44617 27.4603 3.59386 27.0533 2.96831C26.8496 2.65513 26.6016 2.39069 26.3179 2.2383C26.0302 2.08381 25.7079 2.04613 25.3717 2.18648L25.4539 2.38325ZM13.6837 8.58309C13.8218 8.85987 13.6891 9.18819 13.44 9.38019C13.318 9.47423 13.1783 9.52602 13.0476 9.52173C12.9207 9.51756 12.7922 9.46055 12.6842 9.31627L12.5135 9.44406C12.6584 9.63765 12.846 9.72846 13.0406 9.73485C13.2313 9.74111 13.4182 9.6662 13.5702 9.54908C13.869 9.31874 14.0736 8.88685 13.8745 8.48788L13.6837 8.58309ZM11.8624 5.83252C11.8624 5.50177 11.9039 5.00599 12.0475 4.53314C12.1918 4.0581 12.4338 3.62343 12.8224 3.38985L12.7125 3.2071C12.258 3.48033 11.9942 3.97481 11.8435 4.47116C11.692 4.96969 11.6492 5.48753 11.6492 5.83252H11.8624ZM12.8224 3.38985C13.2828 3.11305 13.8744 3.01801 14.4293 3.31788C14.9869 3.61923 15.5335 4.33325 15.8672 5.7325L16.0746 5.68303C15.7339 4.25457 15.1637 3.47241 14.5307 3.13029C13.8949 2.78668 13.2219 2.90085 12.7125 3.2071L12.8224 3.38985ZM13.3799 5.83252C13.3799 5.64441 13.4035 5.39406 13.4667 5.15449C13.5304 4.91275 13.631 4.69513 13.7756 4.55856L13.6293 4.4035C13.4425 4.57979 13.3285 4.84221 13.2605 5.10013C13.1919 5.36024 13.1666 5.6292 13.1666 5.83252H13.3799ZM13.7756 4.55856C13.8976 4.44338 14.0547 4.38174 14.2673 4.41725L14.3024 4.20693C14.0216 4.16003 13.798 4.24422 13.6293 4.4035L13.7756 4.55856ZM13.2782 5.93903L14.627 5.87665L14.6172 5.66364L13.2683 5.72602L13.2782 5.93903ZM14.627 5.87665L15.9759 5.81427L15.966 5.60127L14.6172 5.66364L14.627 5.87665ZM13.6658 4.58115C13.8197 4.63746 14.2572 4.96225 14.5204 5.80203L14.7238 5.73826C14.4475 4.85647 13.9735 4.46669 13.7391 4.3809L13.6658 4.58115ZM12.6842 9.31627C12.536 9.11827 12.3933 8.81505 12.2691 8.45122L12.0673 8.52014C12.1945 8.89269 12.3458 9.22007 12.5135 9.44406L12.6842 9.31627ZM12.0827 8.42198C11.9237 8.63531 11.7395 8.98081 11.7239 9.31854C11.7159 9.4903 11.7515 9.66512 11.8616 9.81692C11.9717 9.96863 12.1481 10.0861 12.4009 10.1584L12.4596 9.95341C12.2402 9.89061 12.1096 9.79553 12.0342 9.69167C11.9589 9.5879 11.9306 9.46408 11.9369 9.32841C11.9497 9.0513 12.1066 8.74684 12.2537 8.54938L12.0827 8.42198ZM12.4009 10.1584C12.9603 10.3186 13.5793 10.1364 13.9958 9.76101C14.4159 9.38234 14.6392 8.79756 14.3839 8.15808L14.1859 8.23714C14.4027 8.78022 14.2183 9.27338 13.853 9.60261C13.4841 9.93513 12.9396 10.0908 12.4596 9.95341L12.4009 10.1584ZM13.8745 8.48788C13.7511 8.24062 13.6505 7.96929 13.5731 7.66455L13.3664 7.71707C13.4473 8.03544 13.553 8.32121 13.6837 8.58309L13.8745 8.48788ZM14.3839 8.15808C14.2888 7.91979 14.1052 7.74748 13.9245 7.64981C13.834 7.60089 13.7405 7.56861 13.6544 7.55737C13.5716 7.54655 13.4794 7.55338 13.4082 7.60375L13.5313 7.77787C13.5397 7.77192 13.5682 7.76116 13.6268 7.76881C13.6822 7.77605 13.7509 7.79833 13.8231 7.83739C13.968 7.9157 14.1124 8.0531 14.1859 8.23714L14.3839 8.15808ZM25.0104 9.18542C24.9135 8.79694 24.7984 8.33562 24.6896 7.83702L24.4813 7.88246C24.5908 8.38457 24.7067 8.84878 24.8035 9.23704L25.0104 9.18542ZM24.5224 7.77381C24.2738 7.95635 23.8133 8.50031 23.9594 9.2321L24.1685 9.19036C24.0448 8.57066 24.4371 8.101 24.6486 7.94568L24.5224 7.77381ZM23.9594 9.2321C24.0569 9.72065 24.4948 9.94775 24.9551 10.0136C25.4178 10.0799 25.9457 9.99262 26.3036 9.81336L26.2081 9.62271C25.8915 9.78132 25.4077 9.86301 24.9853 9.80255C24.5604 9.74173 24.2396 9.54649 24.1685 9.19036L23.9594 9.2321ZM26.3036 9.81336C26.6508 9.63939 26.9497 9.40927 27.1245 9.1064C27.3018 8.79923 27.3445 8.42929 27.2 7.99502L26.9977 8.06233C27.1251 8.44527 27.0834 8.75107 26.9398 8.99981C26.7938 9.25285 26.5352 9.45881 26.2081 9.62271L26.3036 9.81336ZM26.6952 8.5049C26.5934 8.16511 26.4823 7.7765 26.3784 7.36597L26.1717 7.41826C26.2765 7.83271 26.3886 8.22445 26.4909 8.56607L26.6952 8.5049ZM27.2 7.99502C27.013 7.43291 26.5372 7.2855 26.2751 7.2855V7.49873C26.4728 7.49873 26.8475 7.61083 26.9977 8.06233L27.2 7.99502ZM10.3118 8.01034L6.21924 20.7221L6.42221 20.7874L10.5147 8.07569L10.3118 8.01034ZM7.72959 23.0696C13.2815 23.6945 21.22 24.4762 24.9016 24.8337L24.9222 24.6214C21.2405 24.2639 13.3035 23.4824 7.75344 22.8577L7.72959 23.0696ZM27.323 22.9238C27.7864 19.6668 28.7105 13.1384 29.3382 8.48714L29.1269 8.45862C28.4993 13.109 27.5752 19.6368 27.1118 22.8938L27.323 22.9238ZM26.3784 7.36597C26.3116 7.10188 26.2479 6.82889 26.1917 6.55417L25.9828 6.59693C26.0398 6.87541 26.1043 7.15162 26.1717 7.41826L26.3784 7.36597ZM27.5091 6.44083L26.0851 6.46895L26.0893 6.68215L27.5133 6.65402L27.5091 6.44083ZM24.6896 7.83702C24.6006 7.42891 24.516 6.99641 24.4492 6.55945L24.2384 6.59165C24.3061 7.03426 24.3916 7.47135 24.4813 7.88246L24.6896 7.83702ZM13.5731 7.66455C13.521 7.45964 13.4793 7.2395 13.4482 7.00126L13.2368 7.02887C13.2689 7.27461 13.312 7.50313 13.3664 7.71707L13.5731 7.66455ZM13.4482 7.00126C13.4028 6.65306 13.3799 6.26644 13.3799 5.83252H13.1666C13.1666 6.27379 13.1899 6.66982 13.2368 7.02887L13.4482 7.00126ZM24.3396 6.46902L13.3383 6.90853L13.3468 7.1216L24.3481 6.68208L24.3396 6.46902ZM12.2691 8.45122C12.12 8.01486 12.0008 7.50131 11.9297 7.00008L11.7185 7.03004C11.7913 7.54286 11.9134 8.06962 12.0673 8.52014L12.2691 8.45122ZM11.9297 7.00008C11.8707 6.58448 11.8452 6.1803 11.8623 5.83784L11.6493 5.82721C11.6314 6.18684 11.6582 6.60513 11.7185 7.03004L11.9297 7.00008ZM11.8228 11.9812L9.1251 20.4977L9.32838 20.5621L12.0261 12.0455L11.8228 11.9812ZM13.9245 13.1591H11.5277V13.3723H13.9245V13.1591ZM11.4261 13.2335L10.8993 14.8965L11.1026 14.9608L11.6294 13.2979L11.4261 13.2335ZM10.9981 15.0352L13.424 15.1012L13.4298 14.888L11.0039 14.8221L10.9981 15.0352ZM13.5294 15.0241L14.0269 13.2952L13.822 13.2362L13.3245 14.9651L13.5294 15.0241ZM14.1824 11.9839L13.822 13.2362L14.0269 13.2952L14.3873 12.0428L14.1824 11.9839ZM16.0111 15.0871L16.4459 13.2908L16.2386 13.2406L15.8039 15.037L16.0111 15.0871ZM16.3423 13.1591H13.9245V13.3723H16.3423V13.1591ZM13.424 15.1012L15.9046 15.1686L15.9104 14.9555L13.4298 14.888L13.424 15.1012ZM16.5417 11.9883L16.2386 13.2406L16.4459 13.2908L16.749 12.0384L16.5417 11.9883ZM18.7158 15.1599L19.1536 13.29L18.946 13.2414L18.5082 15.1112L18.7158 15.1599ZM19.0498 13.1591H16.3423V13.3723H19.0498V13.1591ZM15.9046 15.1686L18.6091 15.2421L18.6149 15.029L15.9104 14.9555L15.9046 15.1686ZM19.2392 11.989L18.946 13.2414L19.1536 13.29L19.4468 12.0377L19.2392 11.989ZM21.5338 15.2322L21.9059 13.2857L21.6965 13.2457L21.3243 15.1921L21.5338 15.2322ZM21.8012 13.1591H19.0498V13.3723H21.8012V13.1591ZM18.6091 15.2421L21.4261 15.3187L21.4319 15.1055L18.6149 15.029L18.6091 15.2421ZM21.429 15.3187L24.4705 15.3199L24.4706 15.1067L21.4291 15.1055L21.429 15.3187ZM21.936 11.9933L21.6965 13.2457L21.9059 13.2857L22.1454 12.0334L21.936 11.9933ZM12.8886 16.7789L10.429 16.6461L10.4175 16.859L12.8771 16.9918L12.8886 16.7789ZM10.3216 16.7203L9.73752 18.5643L9.9408 18.6287L10.5249 16.7847L10.3216 16.7203ZM9.82955 18.7027L12.3159 18.9279L12.3352 18.7155L9.84878 18.4903L9.82955 18.7027ZM12.428 18.8512L12.9853 16.9148L12.7803 16.8558L12.2231 18.7922L12.428 18.8512ZM13.3245 14.9651L12.7803 16.8558L12.9853 16.9148L13.5294 15.0241L13.3245 14.9651ZM12.2231 18.7922L11.6534 20.7719L11.8583 20.8309L12.428 18.8512L12.2231 18.7922ZM15.0439 19.0836L15.5366 17.0481L15.3293 16.998L14.8367 19.0334L15.0439 19.0836ZM15.4387 16.9166L12.8886 16.7789L12.8771 16.9918L15.4272 17.1295L15.4387 16.9166ZM12.3159 18.9279L14.9307 19.1647L14.9499 18.9523L12.3352 18.7155L12.3159 18.9279ZM15.8039 15.037L15.3293 16.998L15.5366 17.0481L16.0111 15.0871L15.8039 15.037ZM14.8367 19.0334L14.3449 21.0654L14.5522 21.1156L15.0439 19.0836L14.8367 19.0334ZM17.7401 19.3269L18.2397 17.1933L18.0321 17.1447L17.5325 19.2783L17.7401 19.3269ZM18.1416 17.0625L15.4387 16.9166L15.4272 17.1295L18.1301 17.2754L18.1416 17.0625ZM14.9307 19.1647L17.6267 19.4088L17.6459 19.1965L14.9499 18.9523L14.9307 19.1647ZM18.5082 15.1112L18.0321 17.1447L18.2397 17.1933L18.7158 15.1599L18.5082 15.1112ZM17.5325 19.2783L17.0474 21.3503L17.255 21.3989L17.7401 19.3269L17.5325 19.2783ZM20.7003 19.5907L21.1297 17.345L20.9203 17.305L20.4909 19.5506L20.7003 19.5907ZM21.0308 17.2185L18.1416 17.0625L18.1301 17.2754L21.0193 17.4315L21.0308 17.2185ZM17.6267 19.4088L20.586 19.6768L20.6052 19.4644L17.6459 19.1965L17.6267 19.4088ZM21.0168 17.4313L24.0359 17.6652L24.0524 17.4526L21.0332 17.2187L21.0168 17.4313ZM21.3243 15.1921L20.9203 17.305L21.1297 17.345L21.5338 15.2322L21.3243 15.1921ZM24.3657 15.1942L23.9392 17.5398L24.149 17.5779L24.5755 15.2324L24.3657 15.1942ZM24.5762 15.2277L24.8418 13.2801L24.6306 13.2513L24.3649 15.1989L24.5762 15.2277ZM24.7362 13.1591H21.8012V13.3723L24.7362 13.3723V13.1591ZM24.8013 11.9989L24.6306 13.2513L24.8418 13.2801L25.0126 12.0278L24.8013 11.9989ZM24.7362 13.3723H24.7384V13.1591H24.7362V13.3723ZM20.586 19.6768L23.7002 19.9588L23.7194 19.7465L20.6052 19.4644L20.586 19.6768ZM23.8153 19.868L24.1496 17.5743L23.9386 17.5435L23.6043 19.8373L23.8153 19.868ZM23.6043 19.8373L23.5209 20.4095L23.7319 20.4403L23.8153 19.868L23.6043 19.8373ZM23.7002 19.9588L23.7171 19.9604L23.7364 19.748L23.7194 19.7465L23.7002 19.9588ZM11.7672 20.6954L9.23812 20.4239L9.21536 20.6359L11.7444 20.9074L11.7672 20.6954ZM9.32838 20.5621L9.9408 18.6287L9.73752 18.5643L9.1251 20.4977L9.32838 20.5621ZM10.5249 16.7847L11.1026 14.9608L10.8993 14.8965L10.3216 16.7203L10.5249 16.7847ZM21.7677 21.769L20.1986 21.6006L20.1758 21.8126L21.7449 21.981L21.7677 21.769ZM20.1986 21.6006L14.4599 20.9845L14.4371 21.1965L20.1758 21.8126L20.1986 21.6006ZM14.4599 20.9845L11.7672 20.6954L11.7444 20.9074L14.4371 21.1965L14.4599 20.9845ZM20.4909 19.5506L20.0825 21.6865L20.2919 21.7266L20.7003 19.5907L20.4909 19.5506ZM20.0825 21.6865L20.0813 21.6924L20.2908 21.7325L20.2919 21.7266L20.0825 21.6865ZM9.21536 20.6359L20.1758 21.8126L20.1986 21.6006L9.23812 20.4239L9.21536 20.6359ZM26.1917 6.55417C26.1005 6.10874 26.0293 5.65982 25.9965 5.23755L25.7839 5.25405C25.8176 5.68777 25.8904 6.14586 25.9828 6.59693L26.1917 6.55417ZM25.9965 5.23755C25.9607 4.77645 25.9712 4.3519 26.0488 4.00018C26.1265 3.64819 26.269 3.37974 26.4885 3.21478L26.3604 3.04432C26.0853 3.25101 25.9245 3.57421 25.8406 3.95421C25.7567 4.33447 25.7473 4.78223 25.7839 5.25405L25.9965 5.23755ZM27.5961 5.00082L25.8816 5.13953L25.8988 5.35207L27.6132 5.21336L27.5961 5.00082ZM5.51918 24.8873L28.864 27.8902L28.8912 27.6787L5.54639 24.6758L5.51918 24.8873ZM28.9139 27.6842C28.9502 27.6973 28.9644 27.725 28.9661 27.7282C28.9698 27.7352 28.9706 27.7393 28.9699 27.7367C28.9687 27.732 28.9663 27.7193 28.9642 27.6943C28.96 27.6453 28.958 27.5642 28.9611 27.4391C28.9673 27.1898 28.9937 26.7757 29.0596 26.1154L28.8474 26.0942C28.7813 26.7567 28.7543 27.1768 28.7479 27.4338C28.7447 27.5619 28.7466 27.652 28.7517 27.7123C28.7542 27.7419 28.7578 27.7683 28.7634 27.7899C28.7661 27.8004 28.7704 27.8143 28.7778 27.8283C28.7832 27.8384 28.8012 27.8701 28.8413 27.8847L28.9139 27.6842ZM28.8932 27.6789L28.8912 27.6787L28.864 27.8902L28.866 27.8904L28.8932 27.6789ZM24.2076 5.22014L15.966 5.60127L15.9759 5.81427L24.2175 5.43314L24.2076 5.22014ZM24.4492 6.55945C24.3858 6.1445 24.3386 5.72619 24.319 5.32148L24.106 5.3318C24.1261 5.74562 24.1742 6.17145 24.2384 6.59165L24.4492 6.55945ZM24.319 5.32148C24.2858 4.6368 24.332 3.99772 24.5071 3.48115C24.6814 2.96718 24.9808 2.58077 25.4539 2.38325L25.3717 2.18648C24.8278 2.41357 24.4935 2.85728 24.3052 3.41267C24.1177 3.96546 24.0723 4.63496 24.106 5.3318L24.319 5.32148ZM24.2175 5.43314L24.2375 5.43222L24.2276 5.21921L24.2076 5.22014L24.2175 5.43314ZM23.5209 20.4095C23.3969 21.2603 22.6225 21.8608 21.7677 21.769L21.7449 21.981C22.7137 22.085 23.5914 21.4045 23.7319 20.4403L23.5209 20.4095ZM29.3382 8.48714C29.4866 7.38743 28.6178 6.41893 27.5091 6.44083L27.5133 6.65402C28.492 6.63469 29.2577 7.48929 29.1269 8.45862L29.3382 8.48714ZM4.37848 23.0823C4.1086 23.9085 4.65707 24.7764 5.51918 24.8873L5.54639 24.6758C4.81691 24.582 4.35282 23.8476 4.58118 23.1485L4.37848 23.0823ZM24.9016 24.8337C26.0922 24.9493 27.1546 24.1071 27.323 22.9238L27.1118 22.8938C26.9594 23.965 25.9984 24.7259 24.9222 24.6214L24.9016 24.8337ZM6.21924 20.7221C5.86987 21.8072 6.59551 22.9419 7.72959 23.0696L7.75344 22.8577C6.75447 22.7453 6.11376 21.7455 6.42221 20.7874L6.21924 20.7221ZM10.5147 8.07569C10.6978 7.50714 11.2268 7.12168 11.8241 7.12168V6.90845C11.1342 6.90845 10.5232 7.35365 10.3118 8.01034L10.5147 8.07569Z" fill="#D94F04"/>
</g>
<g id="Vector 12">
<path d="M21.8012 13.2656L21.429 15.2121L24.4706 15.2132L24.7362 13.2656L21.8012 13.2656Z" fill="#183459"/>
<path d="M16.3423 13.2656L15.9075 15.062L18.612 15.1355L19.0498 13.2656H16.3423Z" fill="#183459"/>
<path d="M11.5277 13.2656L11.001 14.9286L13.4269 14.9945L13.9245 13.2656H11.5277Z" fill="#183459"/>
<path d="M21.8012 13.2656L21.429 15.2121L24.4706 15.2132L24.7362 13.2656L21.8012 13.2656Z" stroke="#D94F04" stroke-width="0.213235"/>
<path d="M16.3423 13.2656L15.9075 15.062L18.612 15.1355L19.0498 13.2656H16.3423Z" stroke="#D94F04" stroke-width="0.213235"/>
<path d="M11.5277 13.2656L11.001 14.9286L13.4269 14.9945L13.9245 13.2656H11.5277Z" stroke="#D94F04" stroke-width="0.213235"/>
</g>
<path id="Vector 11" fill-rule="evenodd" clip-rule="evenodd" d="M12.4302 10.0558C11.486 9.78553 11.8621 8.89639 12.1682 8.4856C12.0167 8.04216 11.896 7.52201 11.8241 7.01499V7.01499C11.1805 7.01499 10.6105 7.43032 10.4132 8.04294L6.32071 20.7546C5.9918 21.7763 6.67498 22.8435 7.74151 22.9636C13.2925 23.5883 21.2302 24.37 24.9119 24.7275C26.0452 24.8375 27.057 24.036 27.2174 22.9087C27.6808 19.6517 28.6049 13.1236 29.2325 8.4728C29.3722 7.43828 28.5549 6.52674 27.5112 6.54735L26.0872 6.57547C26.1438 6.85207 26.2079 7.12667 26.2751 7.39204C26.505 7.39204 26.9302 7.52179 27.0988 8.0286C27.3707 8.8458 26.9302 9.38009 26.2558 9.71796C25.5814 10.0558 24.2325 10.0558 24.0639 9.21115C23.9291 8.53541 24.3554 8.0286 24.5855 7.85966C24.4961 7.45005 24.411 7.01525 24.3438 6.57547L13.3425 7.01499C13.3741 7.25698 13.4165 7.48131 13.4697 7.69073C13.629 7.57811 14.1163 7.7752 14.2849 8.19754C14.757 9.38009 13.4697 10.3534 12.4302 10.0558ZM11.7558 20.8014L10.7823 20.6968C9.97827 20.6105 9.45498 19.8093 9.69916 19.0384L9.83915 18.5964L10.4232 16.7524L11.001 14.9286L11.5277 13.2656H13.9245H16.3423H19.0498H21.8012L24.7362 13.2656L24.4706 15.2132L24.0441 17.5588L23.7098 19.8526L23.6264 20.4248C23.4942 21.3323 22.6681 21.9728 21.7563 21.8749L20.1872 21.7065L14.4485 21.0904L11.7558 20.8014Z" stroke="#D94F04" stroke-width="0.213235"/>
<g id="Vector 10">
<path d="M15.9073 15.062L16.3421 13.2656H13.9243L13.4268 14.9945L15.9073 15.062Z" fill="#183459"/>
<path d="M21.4289 15.2121L21.8011 13.2656H19.0496L18.6118 15.1355L21.4289 15.2121Z" fill="#183459"/>
<path d="M15.9073 15.062L16.3421 13.2656H13.9243L13.4268 14.9945L15.9073 15.062Z" stroke="#D94F04" stroke-width="0.213235"/>
<path d="M21.4289 15.2121L21.8011 13.2656H19.0496L18.6118 15.1355L21.4289 15.2121Z" stroke="#D94F04" stroke-width="0.213235"/>
</g>
<g id="Vector 13">
<path d="M10.0698 6.00141L4.47983 23.1153C4.23071 23.878 4.73699 24.6791 5.53279 24.7815L28.8776 27.7844C28.8469 27.7732 28.8215 27.4275 28.9535 26.1048C28.9969 25.6696 29.2047 23.9969 29.4945 21.7124C30.1049 16.9018 31.0796 9.37859 31.6512 4.98779L27.6047 5.10704L25.8902 5.24575C25.9234 5.67374 25.9955 6.12725 26.0872 6.5755L27.5112 6.54738C28.5549 6.52676 29.3722 7.43831 29.2326 8.47283C28.6049 13.1236 27.6808 19.6518 27.2174 22.9087C27.057 24.036 26.0453 24.8375 24.9119 24.7275C21.2302 24.37 13.2925 23.5884 7.74152 22.9636C6.67499 22.8436 5.99182 21.7763 6.32072 20.7547L10.4132 8.04297C10.6105 7.43035 11.1805 7.01501 11.8241 7.01501C11.7645 6.59476 11.7383 6.18352 11.7558 5.83247L10.0698 6.00141Z" fill="#FFBD43"/>
<path d="M24.2125 5.32659L15.9709 5.70772L14.6221 5.7701L13.2733 5.83247C13.2733 6.27006 13.2963 6.66139 13.3425 7.01501L24.3438 6.5755C24.28 6.15793 24.2324 5.73586 24.2125 5.32659Z" fill="#FFBD43"/>
<path d="M10.0698 6.00141L4.47983 23.1153C4.23071 23.878 4.73699 24.6791 5.53279 24.7815L28.8776 27.7844C28.8469 27.7732 28.8215 27.4275 28.9535 26.1048C28.9969 25.6696 29.2047 23.9969 29.4945 21.7124C30.1049 16.9018 31.0796 9.37859 31.6512 4.98779L27.6047 5.10704L25.8902 5.24575C25.9234 5.67374 25.9955 6.12725 26.0872 6.5755L27.5112 6.54738C28.5549 6.52676 29.3722 7.43831 29.2326 8.47283C28.6049 13.1236 27.6808 19.6518 27.2174 22.9087C27.057 24.036 26.0453 24.8375 24.9119 24.7275C21.2302 24.37 13.2925 23.5884 7.74152 22.9636C6.67499 22.8436 5.99182 21.7763 6.32072 20.7547L10.4132 8.04297C10.6105 7.43035 11.1805 7.01501 11.8241 7.01501C11.7645 6.59476 11.7383 6.18352 11.7558 5.83247L10.0698 6.00141Z" stroke="#D94F04" stroke-width="0.213235"/>
<path d="M24.2125 5.32659L15.9709 5.70772L14.6221 5.7701L13.2733 5.83247C13.2733 6.27006 13.2963 6.66139 13.3425 7.01501L24.3438 6.5755C24.28 6.15793 24.2324 5.73586 24.2125 5.32659Z" stroke="#D94F04" stroke-width="0.213235"/>
</g>
</g>
<defs>
<filter id="filter0_d_10460_1824" x="0" y="0.5" width="37.1094" height="37" filterUnits="userSpaceOnUse" color-interpolation-filters="sRGB">
<feFlood flood-opacity="0" result="BackgroundImageFix"/>
<feColorMatrix in="SourceAlpha" type="matrix" values="0 0 0 0 0 0 0 0 0 0 0 0 0 0 0 0 0 0 127 0" result="hardAlpha"/>
<feOffset dy="4"/>
<feGaussianBlur stdDeviation="2"/>
<feComposite in2="hardAlpha" operator="out"/>
<feColorMatrix type="matrix" values="0 0 0 0 0 0 0 0 0 0 0 0 0 0 0 0 0 0 0.25 0"/>
<feBlend mode="normal" in2="BackgroundImageFix" result="effect1_dropShadow_10460_1824"/>
<feBlend mode="normal" in="SourceGraphic" in2="effect1_dropShadow_10460_1824" result="shape"/>
</filter>
</defs>
</svg>
