<svg width="29" height="30" viewBox="0 0 29 30" fill="none" xmlns="http://www.w3.org/2000/svg">
<g id="Group 11456">
<g id="Vector 11">
<path d="M12.6876 9.98462C17.2309 10.178 19.0676 13.8513 19.5509 15.2046C19.3576 13.7546 18.6809 12.3046 17.3276 11.1446C15.8707 9.8959 13.7509 9.50129 12.9776 9.50129C12.3589 9.50129 12.2042 9.92163 12.2042 10.1318C12.3337 10.0393 12.4947 9.98462 12.6876 9.98462Z" fill="#183459"/>
<path d="M13.0742 6.11797C17.3276 6.40797 20.4692 8.24465 23.5142 14.3346C22.9342 11.628 20.8076 9.01797 19.0676 7.66464C17.553 6.48662 15.1042 5.63464 13.2676 5.63464C12.6489 5.63464 12.1076 5.9078 12.1076 6.11797C12.237 6.02544 12.8814 6.11797 13.0742 6.11797Z" fill="#183459"/>
<path d="M25.8342 15.0002C25.6628 14.9025 25.5263 14.7484 25.4476 14.528C24.1786 10.1319 21.9106 6.50086 16.6509 4.92902C23.5142 7.8967 23.7076 12.498 24.3842 13.7547C24.9256 14.76 25.5765 15.0039 25.8342 15.0002Z" fill="#183459"/>
<path d="M8.04755 13.8513C8.30533 13.7224 8.66622 13.194 8.04755 12.1113C7.27422 10.758 5.34088 8.05129 4.27755 8.34129M8.04755 13.8513C8.04701 13.8516 8.04647 13.852 8.04591 13.8523M8.04755 13.8513L8.04591 13.8523M4.27755 8.34129C3.40755 9.21129 4.85755 10.0813 6.21089 12.1113C7.28992 13.7298 7.88245 13.9465 8.04591 13.8523M4.27755 8.34129C3.53533 8.61119 2.8873 8.97528 2.72798 9.59795M2.72798 9.59795C2.65905 9.86734 2.68159 10.1851 2.82755 10.5646C3.16251 11.4355 4.28675 12.8636 5.26716 13.8513M2.72798 9.59795C1.95561 10.0168 0.546222 11.2026 1.08756 12.5946C2.05422 14.4313 5.34089 18.9746 8.43423 22.1646C11.5276 25.3546 15.4909 27.4813 16.8442 28.448C18.1976 29.4147 18.9709 29.028 20.3242 27.6747M20.3242 27.6747C19.0511 27.0912 17.3996 26.1874 16.2642 25.1073M20.3242 27.6747C20.4853 27.6102 20.9042 27.346 21.2909 26.8046M15.0076 22.1646C13.0742 20.8113 8.72421 17.6213 7.22589 14.3346M15.0076 22.1646C14.7458 23.2115 15.3305 24.2191 16.2642 25.1073M15.0076 22.1646C15.0398 22.1002 15.2202 21.9133 15.6842 21.6813M7.22589 14.3346L6.40422 14.818C6.10748 14.6399 5.70143 14.2888 5.26716 13.8513M7.22589 14.3346L8.04591 13.8523M5.26716 13.8513C5.64619 15.2046 7.15823 18.24 9.78756 20.7146C12.4169 23.1893 15.1687 24.7709 16.2642 25.1073M15.6842 21.6813C16.2642 21.3913 17.2309 21.198 19.0676 22.8413C20.9042 24.4846 22.4509 25.548 21.2909 26.8046M15.6842 21.6813C15.6842 22.5513 16.4576 23.3246 18.1009 24.8713C19.4156 26.1086 20.7753 26.6757 21.2909 26.8046M19.5509 15.2046C20.0342 16.558 18.1009 17.138 17.6176 16.268C16.3029 13.02 14.0087 12.2402 12.8809 12.3046C11.7353 12.3046 11.4902 10.6421 12.2042 10.1318M19.5509 15.2046C19.0676 13.8513 17.2309 10.178 12.6876 9.98462C12.4947 9.98462 12.3337 10.0393 12.2042 10.1318M19.5509 15.2046C19.3576 13.7546 18.6809 12.3046 17.3276 11.1446C15.8707 9.8959 13.7509 9.50129 12.9776 9.50129C12.3589 9.50129 12.2042 9.92163 12.2042 10.1318M23.5142 14.3346C24.1569 15.62 21.5809 16.4613 21.0976 15.108C19.5349 9.69464 13.8153 8.37353 12.6876 8.43797C11.5419 8.43797 11.3935 6.62829 12.1076 6.11797M23.5142 14.3346C20.4692 8.24465 17.3276 6.40797 13.0742 6.11797C12.8814 6.11797 12.237 6.02545 12.1076 6.11797M23.5142 14.3346C22.9342 11.628 20.8076 9.01797 19.0676 7.66464C17.553 6.48662 15.1042 5.63464 13.2676 5.63464C12.6489 5.63464 12.1076 5.9078 12.1076 6.11797M25.8342 15.0002C25.6628 14.9025 25.5263 14.7484 25.4476 14.528C24.1786 10.1319 21.9106 6.50086 16.6509 4.92902M25.8342 15.0002C26.7159 15.5025 28.5224 14.5134 28.1542 13.368C27.2842 10.6613 25.6409 6.2515 21.6776 3.79801C17.6176 1.28467 13.7509 0.801343 12.3976 0.898012C10.5609 1.02921 11.1361 4.07413 12.4942 4.18468C14.0564 4.31183 15.4338 4.56529 16.6509 4.92902M25.8342 15.0002C25.5764 15.0039 24.9256 14.76 24.3842 13.7547C23.7076 12.498 23.5142 7.8967 16.6509 4.92902" stroke="#D94F04" stroke-width="0.193333"/>
</g>
<g id="Vector 14">
<path d="M12.8809 12.3046C14.0087 12.2402 16.3029 13.02 17.6176 16.268C18.1009 17.138 20.0343 16.558 19.5509 15.2046C19.0676 13.8513 17.2309 10.178 12.6876 9.98462C12.4947 9.98462 12.3337 10.0393 12.2043 10.1318C11.4902 10.6421 11.7353 12.3046 12.8809 12.3046Z" fill="#FFBD43"/>
<path d="M28.1543 13.368C27.2843 10.6613 25.6409 6.2515 21.6776 3.79801C17.6176 1.28467 13.7509 0.801343 12.3976 0.898011C10.5609 1.0292 11.1361 4.07413 12.4943 4.18468C14.0565 4.31183 15.4338 4.56529 16.6509 4.92902C21.9107 6.50086 24.1786 10.1319 25.4476 14.528C25.5263 14.7484 25.6628 14.9025 25.8343 15.0002C26.7159 15.5025 28.5224 14.5134 28.1543 13.368Z" fill="#FFBD43"/>
<path d="M12.8809 12.3046C14.0087 12.2402 16.3029 13.02 17.6176 16.268C18.1009 17.138 20.0343 16.558 19.5509 15.2046C19.0676 13.8513 17.2309 10.178 12.6876 9.98462C12.4947 9.98462 12.3337 10.0393 12.2043 10.1318C11.4902 10.6421 11.7353 12.3046 12.8809 12.3046Z" stroke="#D94F04" stroke-width="0.193333"/>
<path d="M28.1543 13.368C27.2843 10.6613 25.6409 6.2515 21.6776 3.79801C17.6176 1.28467 13.7509 0.801343 12.3976 0.898011C10.5609 1.0292 11.1361 4.07413 12.4943 4.18468C14.0565 4.31183 15.4338 4.56529 16.6509 4.92902C21.9107 6.50086 24.1786 10.1319 25.4476 14.528C25.5263 14.7484 25.6628 14.9025 25.8343 15.0002C26.7159 15.5025 28.5224 14.5134 28.1543 13.368Z" stroke="#D94F04" stroke-width="0.193333"/>
</g>
<g id="Vector 13">
<path d="M4.27771 8.34127C3.40771 9.21127 4.85771 10.0813 6.21104 12.1113C7.29007 13.7298 7.88261 13.9465 8.04607 13.8523L8.04771 13.8513C8.30548 13.7224 8.66637 13.1939 8.04771 12.1113C7.27438 10.7579 5.34104 8.05127 4.27771 8.34127Z" fill="#D94F04"/>
<path d="M19.0677 22.8413C17.231 21.1979 16.2644 21.3913 15.6844 21.6813C15.6844 22.5513 16.4577 23.3246 18.101 24.8713C19.4157 26.1086 20.7755 26.6757 21.291 26.8046C22.451 25.5479 20.9044 24.4846 19.0677 22.8413Z" fill="#D94F04"/>
<path d="M4.27771 8.34127C3.40771 9.21127 4.85771 10.0813 6.21104 12.1113C7.29007 13.7298 7.88261 13.9465 8.04607 13.8523L8.04771 13.8513C8.30548 13.7224 8.66637 13.1939 8.04771 12.1113C7.27438 10.7579 5.34104 8.05127 4.27771 8.34127Z" stroke="#D94F04" stroke-width="0.193333"/>
<path d="M19.0677 22.8413C17.231 21.1979 16.2644 21.3913 15.6844 21.6813C15.6844 22.5513 16.4577 23.3246 18.101 24.8713C19.4157 26.1086 20.7755 26.6757 21.291 26.8046C22.451 25.5479 20.9044 24.4846 19.0677 22.8413Z" stroke="#D94F04" stroke-width="0.193333"/>
</g>
<path id="Vector 12" d="M7.22581 14.3346L6.40415 14.818C6.10741 14.6399 5.70136 14.2888 5.26709 13.8513C5.64611 15.2047 7.15815 18.24 9.78748 20.7146C12.4168 23.1893 15.1686 24.7709 16.2642 25.1073C15.3305 24.2191 14.7458 23.2116 15.0075 22.1646C13.0742 20.8113 8.72414 17.6213 7.22581 14.3346Z" fill="#D94F04" stroke="#D94F04" stroke-width="0.193333"/>
</g>
</svg>
