<svg width="36" height="38" viewBox="0 0 36 38" fill="none" xmlns="http://www.w3.org/2000/svg">
<g id="Icon" filter="url(#filter0_d_10460_1892)">
<g id="Vector 11">
<path d="M28.2706 2.61258C28.1423 4.46909 27.4243 8.91192 25.578 11.8311C23.2702 15.4801 21.7316 19.1291 21.7316 23.7384L22.3086 23.1623C22.1491 22.5253 22.1219 20.6824 22.7751 18.553C22.9096 18.1143 23.0731 17.6635 23.2702 17.2086C24.8445 13.5749 24.6641 14.0565 25.7704 12.2152C26.9243 10.2947 28.4629 7.41391 28.6552 3.18874C28.5013 2.88146 28.3347 2.6766 28.2706 2.61258Z" fill="#D94F04"/>
<path d="M26.5397 12.5993C24.5336 16.6058 25.1934 18.617 25.578 19.1291L25.9627 18.745C25.5139 18.2969 25.0395 16.5172 26.732 12.9834C28.8475 8.56623 30.9631 5.87748 31.3477 1.07616C31.3477 0.692053 31.3477 0.692053 31.1554 0.5C31.1554 0.692053 31.2083 1.69242 30.5784 3.95695C29.6168 7.41391 28.8475 7.99007 26.5397 12.5993Z" fill="#D94F04"/>
<path d="M28.2706 2.61258C28.1423 4.46909 27.4243 8.91192 25.578 11.8311C23.2702 15.4801 21.7316 19.1291 21.7316 23.7384M28.2706 2.61258C28.3347 2.6766 28.5013 2.88146 28.6552 3.18874C28.4629 7.41391 26.9243 10.2947 25.7704 12.2152C24.6641 14.0565 24.8445 13.5749 23.2702 17.2086C23.0731 17.6635 22.9096 18.1143 22.7751 18.553M28.2706 2.61258C25.635 2.65436 21.1648 2.7234 18.0775 2.76633M21.7316 23.7384C20.8085 23.4311 19.4057 23.0982 18.8468 22.9702M21.7316 23.7384L22.3086 23.1623C22.1491 22.5253 22.1219 20.6824 22.7751 18.553M18.8468 22.9702C19.7184 20.5736 21.104 18.1341 22.3086 16.0563C24.4241 12.4073 25.2575 7.47792 25.1934 5.49338C22.8124 5.4544 18.6824 5.39169 15.4338 5.3486M18.8468 22.9702C18.0729 25.0981 17.7157 27.1515 18.0775 29.5L4.23029 24.3146C3.97386 22.9702 4.1149 19.3212 5.96119 17.0166C8.26906 14.1358 11.7309 9.52649 10.9616 5.30132C11.6236 5.30132 13.3468 5.32091 15.4338 5.3486M22.7751 18.553L25.578 19.1291M25.578 19.1291C25.1934 18.617 24.5336 16.6058 26.5397 12.5993C28.8475 7.99007 29.6168 7.41391 30.5784 3.95695C31.2083 1.69242 31.1554 0.692053 31.1554 0.5M25.578 19.1291L25.9627 18.745C25.5139 18.2969 25.0395 16.5172 26.732 12.9834C28.8475 8.56622 30.9631 5.87748 31.3477 1.07616C31.3477 0.692053 31.3477 0.692053 31.1554 0.5M31.1554 0.5L18.2698 0.884106L18.0775 2.76633M18.0775 2.76633C16.4338 2.78918 15.1822 2.80464 14.808 2.80464C14.9619 4.03377 14.7439 4.98124 14.6157 5.30132L15.4338 5.3486M21.7316 10.4868L21.9239 9.9106L11.7309 9.14238L11.5385 9.52649M8.26906 15.2881L8.07673 15.6722M17.6928 17.0166L17.5005 17.5927M10.9616 11.255L19.0391 12.0232L18.8468 12.5993L10.7692 11.6391L10.9616 11.255ZM9.42299 13.3675L21.1546 15.096L20.9623 15.6722L9.23067 13.7517L9.42299 13.3675ZM5.57655 20.0894L12.5001 22.0099L12.3078 22.5861L5.38423 20.4735L5.57655 20.0894ZM4.99958 22.394L16.5389 25.851V26.6192L4.99958 22.7781V22.394Z" stroke="#D94F04" stroke-width="0.106618"/>
</g>
<g id="Vector 14">
<path d="M10.9615 11.255L19.039 12.0232L18.8467 12.5994L10.7692 11.6391L10.9615 11.255Z" fill="#183459"/>
<path d="M8.26899 15.2881L17.6928 17.0166L17.5005 17.5928L8.07667 15.6722L8.26899 15.2881Z" fill="#183459"/>
<path d="M4.99951 22.3941L16.5388 25.851V26.6192L4.99951 22.7782V22.3941Z" fill="#183459"/>
</g>
<path id="Vector 13" d="M25.1934 5.49334C25.2575 7.47789 24.4241 12.4073 22.3086 16.0563C21.104 18.134 19.7184 20.5736 18.8468 22.9702C19.4057 23.0982 20.8085 23.4311 21.7316 23.7384C21.7316 19.1291 23.2702 15.4801 25.5781 11.8311C27.4244 8.91189 28.1424 4.46906 28.2706 2.61255C25.635 2.65433 21.1648 2.72336 18.0775 2.76629C16.4339 2.78915 15.1822 2.8046 14.808 2.8046C14.9619 4.03374 14.7439 4.9812 14.6157 5.30129L15.4338 5.34856C18.6824 5.39166 22.8125 5.45437 25.1934 5.49334Z" fill="#FFBD43" stroke="#D94F04" stroke-width="0.106618"/>
<g id="Vector 12">
<path d="M11.7309 9.14233L21.924 9.91055L21.7317 10.4867L11.5386 9.52644L11.7309 9.14233Z" fill="#183459"/>
<path d="M9.42304 13.3675L21.1547 15.096L20.9624 15.6721L9.23072 13.7516L9.42304 13.3675Z" fill="#183459"/>
<path d="M5.5766 20.0894L12.5002 22.0099L12.3079 22.586L5.38428 20.4735L5.5766 20.0894Z" fill="#183459"/>
</g>
</g>
<defs>
<filter id="filter0_d_10460_1892" x="-2" y="0.446045" width="37.4009" height="37.1357" filterUnits="userSpaceOnUse" color-interpolation-filters="sRGB">
<feFlood flood-opacity="0" result="BackgroundImageFix"/>
<feColorMatrix in="SourceAlpha" type="matrix" values="0 0 0 0 0 0 0 0 0 0 0 0 0 0 0 0 0 0 127 0" result="hardAlpha"/>
<feOffset dy="4"/>
<feGaussianBlur stdDeviation="2"/>
<feComposite in2="hardAlpha" operator="out"/>
<feColorMatrix type="matrix" values="0 0 0 0 0 0 0 0 0 0 0 0 0 0 0 0 0 0 0.25 0"/>
<feBlend mode="normal" in2="BackgroundImageFix" result="effect1_dropShadow_10460_1892"/>
<feBlend mode="normal" in="SourceGraphic" in2="effect1_dropShadow_10460_1892" result="shape"/>
</filter>
</defs>
</svg>
