<svg width="20" height="25" viewBox="0 0 20 25" fill="none" xmlns="http://www.w3.org/2000/svg">
<g id="Icon" filter="url(#filter0_d_3604_68261)">
<path id="Vector" d="M6.2927 1.81383L7.16795 1.55001C8.15984 1.25103 9.21955 1.7342 9.64435 2.67907L10.3206 4.18336C10.6826 4.98874 10.4918 5.93524 9.8461 6.53746L8.72537 7.58257C8.6926 7.6131 8.67182 7.65435 8.66687 7.6989C8.63357 7.99672 8.83555 8.57677 9.3007 9.3825C9.63902 9.96847 9.94517 10.3793 10.2058 10.6105C10.3874 10.7715 10.4873 10.8063 10.5299 10.7936L12.0377 10.3327C12.8819 10.0746 13.7967 10.3823 14.3132 11.0982L15.2738 12.4294C15.8783 13.2673 15.7696 14.4233 15.0194 15.1338L14.3546 15.7633C13.6373 16.4427 12.6161 16.6958 11.6646 16.4302C9.59905 15.8537 7.74706 14.1106 6.08816 11.2373C4.42694 8.36002 3.84405 5.88166 4.38139 3.80282C4.62729 2.85146 5.35189 2.09742 6.2927 1.81383ZM6.61738 2.89096C6.05289 3.06111 5.61813 3.51354 5.47059 4.08436C5.0186 5.83299 5.53525 8.02965 7.06244 10.6748C8.5876 13.3164 10.2293 14.8616 11.967 15.3466C12.538 15.506 13.1507 15.3541 13.5811 14.9465L14.2458 14.317C14.5868 13.994 14.6363 13.4686 14.3615 13.0877L13.4009 11.7565C13.1661 11.4311 12.7502 11.2912 12.3665 11.4085L10.8551 11.8706C9.9778 12.1321 9.18152 11.426 8.32645 9.945C7.75022 8.94697 7.48165 8.17545 7.54883 7.57402C7.58363 7.26241 7.7288 6.97359 7.95809 6.75977L9.07885 5.71468C9.3724 5.44095 9.4591 5.01072 9.29455 4.64464L8.61827 3.14035C8.42519 2.71087 7.94348 2.49124 7.49263 2.62714L6.61738 2.89096Z" fill="#FFE0CE"/>
</g>
<defs>
<filter id="filter0_d_3604_68261" x="-3" y="0" width="26" height="26" filterUnits="userSpaceOnUse" color-interpolation-filters="sRGB">
<feFlood flood-opacity="0" result="BackgroundImageFix"/>
<feColorMatrix in="SourceAlpha" type="matrix" values="0 0 0 0 0 0 0 0 0 0 0 0 0 0 0 0 0 0 127 0" result="hardAlpha"/>
<feOffset dy="4"/>
<feGaussianBlur stdDeviation="2"/>
<feComposite in2="hardAlpha" operator="out"/>
<feColorMatrix type="matrix" values="0 0 0 0 0 0 0 0 0 0 0 0 0 0 0 0 0 0 0.25 0"/>
<feBlend mode="normal" in2="BackgroundImageFix" result="effect1_dropShadow_3604_68261"/>
<feBlend mode="normal" in="SourceGraphic" in2="effect1_dropShadow_3604_68261" result="shape"/>
</filter>
</defs>
</svg>
