<svg width="30" height="31" viewBox="0 0 30 31" fill="none" xmlns="http://www.w3.org/2000/svg">
<g id="fi_3116491" clip-path="url(#clip0_3808_113008)">
<path id="Vector" d="M15 0.5C6.71701 0.5 0 7.21701 0 15.5C0 23.783 6.71701 30.5 15 30.5C23.283 30.5 30 23.783 30 15.5C30 7.21701 23.283 0.5 15 0.5ZM22.5252 11.9769V14.008C21.5675 14.0083 20.637 13.8206 19.7593 13.4504C19.195 13.2121 18.6693 12.9052 18.1884 12.5342L18.2028 18.7858C18.1968 20.1935 17.6398 21.5161 16.6318 22.5124C15.8115 23.3233 14.7721 23.839 13.6454 24.0059C13.3807 24.0451 13.1113 24.0652 12.8388 24.0652C11.6328 24.0652 10.4878 23.6745 9.55119 22.9537C9.37494 22.818 9.20637 22.6709 9.04588 22.5124C7.95346 21.4327 7.39014 19.9694 7.485 18.4299C7.55736 17.2581 8.02652 16.1405 8.80863 15.2646C9.8434 14.1055 11.291 13.4622 12.8388 13.4622C13.1113 13.4622 13.3807 13.4826 13.6454 13.5218V14.2728V16.3617C13.3944 16.2789 13.1263 16.2334 12.8472 16.2334C11.4331 16.2334 10.2891 17.3871 10.3102 18.8023C10.3236 19.7077 10.8182 20.4992 11.5477 20.9355C11.8905 21.1406 12.2849 21.2676 12.7058 21.2907C13.0356 21.3088 13.3522 21.2629 13.6454 21.1661C14.6558 20.8323 15.3846 19.8833 15.3846 18.7641L15.3879 14.5777V6.93477H18.185C18.1877 7.21191 18.2158 7.48232 18.2681 7.74436C18.4792 8.80496 19.077 9.72512 19.909 10.3524C20.6346 10.8996 21.5379 11.224 22.5171 11.224C22.5178 11.224 22.5258 11.224 22.5251 11.2234V11.9769H22.5252Z" fill="white"/>
</g>
<defs>
<clipPath id="clip0_3808_113008">
<rect width="30" height="30" fill="white" transform="translate(0 0.5)"/>
</clipPath>
</defs>
</svg>
