<svg width="38" height="36" viewBox="0 0 38 36" fill="none" xmlns="http://www.w3.org/2000/svg">
<g id="Icon" filter="url(#filter0_d_10460_1812)">
<path id="Vector 10" d="M12.5874 11.375L15.4537 11.375L15.9754 13.9193L16.4105 16.0408L16.8706 18.2847L17.3071 20.4136L15.7127 20.5847C14.8112 20.6815 13.9914 20.0561 13.8467 19.161L12.5874 11.375Z" fill="#183459" stroke="#D94F04" stroke-width="0.213235"/>
<g id="Vector 9">
<path d="M5 22.0503L6.34884 4.98778C6.92043 9.37858 7.89507 16.9018 8.50549 21.7124L5 22.0503Z" fill="#D94F04"/>
<path d="M24.2209 8.53543C23.8837 9.21117 24.8953 10.0558 25.4012 9.3801C25.5591 9.16911 25.7061 8.85381 25.8318 8.48562C26.1379 8.89641 26.514 9.78555 25.5698 10.0558C24.5303 10.3534 23.243 9.3801 23.7151 8.19755C23.8837 7.77521 24.3709 7.57812 24.5303 7.69075C24.4511 8.0023 24.348 8.28085 24.2209 8.53543Z" fill="#D94F04"/>
<path d="M11.407 8.53543C11.2019 9.22034 12.7558 9.88691 13.093 9.21117C13.1899 8.8228 13.3054 8.36003 13.4145 7.85968C13.6446 8.02862 14.0709 8.53542 13.936 9.21117C13.7674 10.0558 12.4186 10.0558 11.7442 9.71798C11.0698 9.3801 10.6293 8.84582 10.9012 8.02862C11.0698 7.52181 11.495 7.39205 11.7249 7.39205C11.6206 7.80454 11.509 8.19472 11.407 8.53543Z" fill="#D94F04"/>
<path d="M8.50549 6.5082C9.30404 12.5899 11.0698 24.9222 11.0698 24.9222L10.1176 23.7426L8.19853 9.21117L8.50549 6.5082Z" fill="#D94F04"/>
<path d="M27.9302 6.0014L27.9409 5.89531L28.01 5.90224L28.0316 5.96829L27.9302 6.0014ZM9.04651 27.7941L9.06011 27.8999L8.99637 27.9081L8.95935 27.8555L9.04651 27.7941ZM5 22.0503L4.91284 22.1117L4.89068 22.0802L4.89371 22.0419L5 22.0503ZM6.34884 4.98778L6.24255 4.97938L6.25055 4.87822L6.35198 4.88121L6.34884 4.98778ZM11.5756 5.10703V5.21365V5.10703ZM26.2442 5.83246L26.1376 5.83778V5.83246H26.2442ZM9.12038 27.7846L9.10678 27.6789L9.12038 27.7846ZM9.04651 26.1047L8.94042 26.1153L9.04651 26.1047ZM8.50549 21.7124L8.61126 21.699L8.50549 21.7124ZM11.407 8.53543L11.3048 8.50484L11.407 8.53543ZM13.093 9.21117L13.1965 9.23698L13.1936 9.24832L13.1884 9.25877L13.093 9.21117ZM12.5872 2.2848L12.5461 2.38319L12.5872 2.2848ZM10.3953 5.10703V5.21369L10.3922 5.2136L10.3953 5.10703ZM24.2209 8.53543L24.1255 8.48782L24.2209 8.53543ZM25.4012 9.3801L25.4865 9.44399L25.4012 9.3801ZM25.2326 3.29842L25.2875 3.20704L25.2326 3.29842ZM24.2976 4.48097L24.3707 4.40344L24.2976 4.48097ZM23.3779 5.77008L23.373 5.87659L23.3779 5.77008ZM25.8318 8.48562L25.7309 8.45116L25.8318 8.48562ZM25.5698 10.0558L25.5404 9.95335L25.5698 10.0558ZM23.7151 8.19755L23.8141 8.23708L23.7151 8.19755ZM13.4145 7.85968L13.3104 7.83696L13.4145 7.85968ZM13.936 9.21117L13.8315 9.1903L13.936 9.21117ZM10.9012 8.02862L11.0023 8.06227L10.9012 8.02862ZM11.7249 7.39205L11.8283 7.4182L11.7249 7.39205ZM11.0698 24.9222L11.0799 25.0283L11.0228 25.0338L10.9868 24.9892L11.0698 24.9222ZM8.50549 6.5082L8.39955 6.49617L8.41051 6.39968L8.50759 6.4016L8.50549 6.5082ZM24.6575 7.015L24.7632 7.02881L24.6575 7.015ZM26.1759 7.015L26.2815 7.02998L26.1759 7.015ZM25.5698 11.375V11.2684H25.6459L25.6706 11.3404L25.5698 11.375ZM12.5872 11.375L12.482 11.392L12.462 11.2684H12.5872V11.375ZM26.3125 13.5236C26.3713 13.522 26.4204 13.5684 26.422 13.6272C26.4237 13.6861 26.3773 13.7351 26.3184 13.7368L26.3125 13.5236ZM13.096 14.1065C13.0371 14.1081 12.9881 14.0618 12.9864 14.0029C12.9848 13.944 13.0312 13.895 13.09 13.8933L13.096 14.1065ZM26.9577 15.3844C27.0165 15.3813 27.0666 15.4265 27.0697 15.4853C27.0728 15.5441 27.0276 15.5943 26.9688 15.5973L26.9577 15.3844ZM13.4358 16.3026C13.377 16.3056 13.3268 16.2604 13.3238 16.2016C13.3207 16.1428 13.3659 16.0927 13.4247 16.0896L13.4358 16.3026ZM27.5935 17.2221C27.6521 17.2169 27.7039 17.2602 27.7091 17.3188C27.7144 17.3775 27.6711 17.4292 27.6124 17.4345L27.5935 17.2221ZM13.7769 18.6674C13.7183 18.6726 13.6665 18.6293 13.6612 18.5706C13.656 18.512 13.6993 18.4602 13.758 18.455L13.7769 18.6674ZM23.1075 11.4066C23.09 11.3504 23.1214 11.2907 23.1776 11.2732C23.2339 11.2557 23.2936 11.2871 23.3111 11.3433L23.1075 11.4066ZM25.8402 19.4768C25.8577 19.533 25.8263 19.5928 25.77 19.6102C25.7138 19.6277 25.654 19.5963 25.6366 19.5401L25.8402 19.4768ZM20.7457 11.4019C20.7308 11.3449 20.765 11.2867 20.8219 11.2718C20.8789 11.257 20.9371 11.2911 20.952 11.3481L20.7457 11.4019ZM23.1488 19.7706C23.1637 19.8276 23.1295 19.8858 23.0726 19.9007C23.0156 19.9155 22.9574 19.8814 22.9425 19.8244L23.1488 19.7706ZM18.0478 11.401C18.0334 11.3439 18.068 11.286 18.1251 11.2716C18.1822 11.2572 18.2402 11.2919 18.2546 11.349L18.0478 11.401ZM20.4464 20.0556C20.4608 20.1127 20.4262 20.1706 20.3691 20.185C20.312 20.1994 20.254 20.1647 20.2396 20.1076L20.4464 20.0556ZM15.4535 11.375V11.2684H15.5405L15.5579 11.3536L15.4535 11.375ZM17.4126 20.3981C17.4244 20.4557 17.3872 20.5121 17.3296 20.5239C17.2719 20.5357 17.2155 20.4986 17.2037 20.4409L17.4126 20.3981ZM8.19853 9.21117L8.09283 9.22513L8.09112 9.21215L8.09259 9.19914L8.19853 9.21117ZM10.1176 23.7426L10.0347 23.8096L10.0159 23.7863L10.0119 23.7566L10.1176 23.7426ZM15.1911 22.9124L15.2028 23.0184L15.1911 22.9124ZM28.3283 21.4584L28.3166 21.3524L28.3283 21.4584ZM28.2278 20.4594L28.2182 20.3532L28.2278 20.4594ZM15.0642 21.6507L15.0738 21.7569L15.0642 21.6507ZM13.8465 19.161L13.9517 19.1439L13.8465 19.161ZM15.7125 20.5847L15.7239 20.6907L15.7125 20.5847ZM26.6736 19.408L26.685 19.514L26.6736 19.408ZM32.4672 24.7815L32.4536 24.6757L32.4672 24.7815ZM30.2585 22.9636L30.2704 23.0695L30.2585 22.9636ZM28.0316 5.96829L33.6215 23.0822L33.4188 23.1484L27.8289 6.0345L28.0316 5.96829ZM8.95935 27.8555L4.91284 22.1117L5.08716 21.9889L9.13367 27.7327L8.95935 27.8555ZM4.89371 22.0419L6.24255 4.97938L6.45512 4.99618L5.10629 22.0587L4.89371 22.0419ZM27.9196 6.10748L26.2336 5.93855L26.2548 5.72637L27.9409 5.89531L27.9196 6.10748ZM9.13398 27.8904L9.06011 27.8999L9.03291 27.6884L9.10678 27.6789L9.13398 27.8904ZM8.94042 26.1153C8.89717 25.682 8.68971 24.0113 8.39972 21.7258L8.61126 21.699C8.901 23.9824 9.10899 25.6572 9.1526 26.0942L8.94042 26.1153ZM8.39972 21.7258C7.78933 16.9154 6.8147 9.39233 6.24311 5.00154L6.45456 4.97402C7.02616 9.36483 8.00082 16.8882 8.61126 21.699L8.39972 21.7258ZM4.98977 21.9442L8.49526 21.6063L8.51571 21.8185L5.01023 22.1564L4.98977 21.9442ZM11.5091 8.56601C11.4714 8.69193 11.5106 8.82587 11.6188 8.9572C11.7273 9.08893 11.897 9.20615 12.0875 9.28505C12.278 9.364 12.479 9.4003 12.6463 9.38106C12.8116 9.36205 12.9339 9.29128 12.9976 9.16356L13.1884 9.25877C13.0836 9.46892 12.8851 9.56824 12.6707 9.5929C12.4582 9.61733 12.2203 9.57088 12.0058 9.48204C11.7913 9.39315 11.5899 9.25754 11.4542 9.09277C11.3181 8.92761 11.24 8.72138 11.3048 8.50484L11.5091 8.56601ZM6.35198 4.88121L10.3985 5.00046L10.3922 5.2136L6.3457 5.09435L6.35198 4.88121ZM10.3953 5.00041L11.5756 5.00041V5.21365L10.3953 5.21365V5.00041ZM12.5461 2.38319C12.2753 2.27014 12.0202 2.2987 11.783 2.42609C11.542 2.55556 11.3179 2.78861 11.1254 3.08452C10.7399 3.67714 10.502 4.48934 10.502 5.10703H10.2887C10.2887 4.44611 10.5397 3.59379 10.9467 2.96825C11.1504 2.65507 11.3984 2.39063 11.6821 2.23824C11.9698 2.08375 12.2921 2.04607 12.6283 2.18642L12.5461 2.38319ZM24.3163 8.58303C24.1782 8.8598 24.3109 9.18813 24.56 9.38013C24.682 9.47417 24.8217 9.52596 24.9524 9.52167C25.0793 9.5175 25.2078 9.46049 25.3158 9.31621L25.4865 9.44399C25.3416 9.63759 25.154 9.7284 24.9594 9.73479C24.7687 9.74105 24.5818 9.66614 24.4298 9.54902C24.131 9.31868 23.9264 8.88679 24.1255 8.48782L24.3163 8.58303ZM26.1376 5.83246C26.1376 5.5017 26.0961 5.00593 25.9525 4.53307C25.8082 4.05804 25.5662 3.62337 25.1776 3.38979L25.2875 3.20704C25.742 3.48027 26.0058 3.97475 26.1565 4.4711C26.308 4.96963 26.3508 5.48747 26.3508 5.83246H26.1376ZM25.1776 3.38979C24.7172 3.11299 24.1256 3.01795 23.5707 3.31782C23.0131 3.61917 22.4665 4.33319 22.1328 5.73244L21.9254 5.68297C22.2661 4.25451 22.8363 3.47235 23.4693 3.13023C24.1051 2.78661 24.7781 2.90079 25.2875 3.20704L25.1776 3.38979ZM24.6201 5.83246C24.6201 5.64435 24.5965 5.394 24.5333 5.15443C24.4696 4.91269 24.369 4.69507 24.2244 4.5585L24.3707 4.40344C24.5575 4.57973 24.6715 4.84215 24.7395 5.10007C24.8081 5.36018 24.8334 5.62914 24.8334 5.83246H24.6201ZM24.2244 4.5585C24.1024 4.44332 23.9453 4.38168 23.7327 4.41719L23.6976 4.20687C23.9784 4.15997 24.202 4.24415 24.3707 4.40344L24.2244 4.5585ZM24.7218 5.93896L23.373 5.87659L23.3828 5.66358L24.7317 5.72596L24.7218 5.93896ZM23.373 5.87659L22.0241 5.81421L22.034 5.6012L23.3828 5.66358L23.373 5.87659ZM24.3342 4.58109C24.1803 4.6374 23.7428 4.96219 23.4796 5.80197L23.2762 5.7382C23.5525 4.85641 24.0265 4.46662 24.2609 4.38084L24.3342 4.58109ZM25.3158 9.31621C25.464 9.11821 25.6067 8.81499 25.7309 8.45116L25.9327 8.52008C25.8055 8.89263 25.6542 9.22001 25.4865 9.44399L25.3158 9.31621ZM25.9173 8.42192C26.0763 8.63525 26.2605 8.98075 26.2761 9.31848C26.2841 9.49024 26.2485 9.66506 26.1384 9.81686C26.0283 9.96857 25.8519 10.086 25.5991 10.1583L25.5404 9.95335C25.7598 9.89055 25.8904 9.79547 25.9658 9.69161C26.0411 9.58784 26.0694 9.46402 26.0631 9.32835C26.0503 9.05124 25.8934 8.74678 25.7463 8.54932L25.9173 8.42192ZM25.5991 10.1583C25.0397 10.3185 24.4207 10.1363 24.0042 9.76095C23.5841 9.38228 23.3608 8.7975 23.6161 8.15802L23.8141 8.23708C23.5973 8.78016 23.7817 9.27331 24.147 9.60255C24.5159 9.93507 25.0604 10.0908 25.5404 9.95335L25.5991 10.1583ZM24.1255 8.48782C24.2489 8.24056 24.3495 7.96922 24.4269 7.66449L24.6336 7.71701C24.5527 8.03538 24.447 8.32115 24.3163 8.58303L24.1255 8.48782ZM23.6161 8.15802C23.7112 7.91972 23.8948 7.74742 24.0755 7.64974C24.166 7.60083 24.2595 7.56855 24.3456 7.55731C24.4284 7.54649 24.5206 7.55332 24.5918 7.60369L24.4687 7.77781C24.4603 7.77186 24.4318 7.7611 24.3732 7.76875C24.3178 7.77599 24.2491 7.79826 24.1769 7.83733C24.032 7.91564 23.8876 8.05304 23.8141 8.23708L23.6161 8.15802ZM12.9896 9.18536C13.0865 8.79688 13.2016 8.33555 13.3104 7.83696L13.5187 7.8824C13.4092 8.38451 13.2933 8.84872 13.1965 9.23698L12.9896 9.18536ZM13.4776 7.77375C13.7262 7.95629 14.1867 8.50025 14.0406 9.23204L13.8315 9.1903C13.9552 8.5706 13.5629 8.10094 13.3514 7.94562L13.4776 7.77375ZM14.0406 9.23204C13.9431 9.72059 13.5052 9.94769 13.0449 10.0136C12.5822 10.0798 12.0543 9.99256 11.6964 9.8133L11.7919 9.62265C12.1085 9.78126 12.5923 9.86295 13.0147 9.80249C13.4396 9.74167 13.7604 9.54642 13.8315 9.1903L14.0406 9.23204ZM11.6964 9.8133C11.3492 9.63933 11.0503 9.40921 10.8755 9.10634C10.6982 8.79917 10.6555 8.42923 10.8 7.99496L11.0023 8.06227C10.8749 8.44521 10.9166 8.75101 11.0602 8.99975C11.2062 9.25279 11.4648 9.45875 11.7919 9.62265L11.6964 9.8133ZM11.3048 8.50484C11.4066 8.16505 11.5177 7.77643 11.6216 7.36591L11.8283 7.4182C11.7235 7.83265 11.6114 8.22439 11.5091 8.56601L11.3048 8.50484ZM10.8 7.99496C10.987 7.43285 11.4628 7.28544 11.7249 7.28544V7.49867C11.5272 7.49867 11.1525 7.61077 11.0023 8.06227L10.8 7.99496ZM27.6882 8.01028L31.7808 20.722L31.5778 20.7873L27.4853 8.07563L27.6882 8.01028ZM30.2704 23.0695C26.5463 23.4887 21.7486 23.9784 17.8822 24.3633C15.9489 24.5557 14.2483 24.722 13.0311 24.8401C12.4225 24.8992 11.9347 24.9463 11.5991 24.9785C11.4312 24.9947 11.3014 25.0071 11.2136 25.0155C11.1697 25.0197 11.1363 25.0229 11.1138 25.0251C11.1026 25.0262 11.0941 25.027 11.0884 25.0275C11.0856 25.0278 11.0835 25.028 11.082 25.0281C11.0813 25.0282 11.0808 25.0282 11.0804 25.0283C11.0803 25.0283 11.0801 25.0283 11.08 25.0283C11.0799 25.0283 11.0799 25.0283 11.0698 24.9222C11.0596 24.8161 11.0597 24.8161 11.0598 24.816C11.0599 24.816 11.06 24.816 11.0602 24.816C11.0605 24.816 11.0611 24.8159 11.0618 24.8159C11.0632 24.8157 11.0653 24.8155 11.0682 24.8152C11.0738 24.8147 11.0823 24.8139 11.0935 24.8128C11.116 24.8107 11.1494 24.8075 11.1933 24.8033C11.2811 24.7949 11.4109 24.7824 11.5786 24.7663C11.9142 24.734 12.402 24.687 13.0105 24.6279C14.2276 24.5098 15.928 24.3435 17.861 24.1511C21.7273 23.7662 26.5239 23.2766 30.2466 22.8576L30.2704 23.0695ZM11.0698 24.9222C10.9642 24.9373 10.9642 24.9373 10.9642 24.9372C10.9642 24.9371 10.9642 24.9369 10.9641 24.9367C10.9641 24.9364 10.964 24.9358 10.9639 24.9351C10.9637 24.9336 10.9634 24.9313 10.9629 24.9283C10.9621 24.9224 10.9608 24.9135 10.9591 24.9017C10.9558 24.8782 10.9508 24.8432 10.9442 24.7973C10.9311 24.7055 10.9117 24.57 10.8868 24.3955C10.8369 24.0464 10.7649 23.5409 10.6758 22.9153C10.4978 21.664 10.2521 19.9324 9.98151 18.0107C9.44026 14.1674 8.79913 9.56347 8.39977 6.52208L8.61119 6.49432C9.0104 9.53461 9.65141 14.1377 10.1927 17.981C10.4633 19.9025 10.7089 21.6341 10.8869 22.8852C10.976 23.5108 11.048 24.0163 11.0979 24.3653C11.1228 24.5399 11.1422 24.6753 11.1553 24.7671C11.1618 24.813 11.1669 24.848 11.1702 24.8715C11.1719 24.8833 11.1732 24.8922 11.174 24.8981C11.1745 24.9011 11.1748 24.9033 11.175 24.9048C11.1751 24.9056 11.1752 24.9061 11.1752 24.9065C11.1753 24.9067 11.1753 24.9068 11.1753 24.9069C11.1753 24.907 11.1753 24.9071 11.0698 24.9222ZM11.6216 7.36591C11.6884 7.10182 11.7521 6.82883 11.8083 6.55411L12.0172 6.59687C11.9602 6.87535 11.8957 7.15156 11.8283 7.4182L11.6216 7.36591ZM8.50759 6.4016L11.9149 6.46889L11.9107 6.68209L8.50338 6.61479L8.50759 6.4016ZM13.3104 7.83696C13.3994 7.42885 13.484 6.99634 13.5508 6.55939L13.7616 6.59159C13.6939 7.0342 13.6084 7.47129 13.5187 7.8824L13.3104 7.83696ZM24.4269 7.66449C24.479 7.45958 24.5207 7.23944 24.5518 7.0012L24.7632 7.02881C24.7311 7.27455 24.688 7.50307 24.6336 7.71701L24.4269 7.66449ZM24.5518 7.0012C24.5972 6.653 24.6201 6.26638 24.6201 5.83246H24.8334C24.8334 6.27373 24.8101 6.66976 24.7632 7.02881L24.5518 7.0012ZM13.6604 6.46896L24.6617 6.90847L24.6532 7.12154L13.6519 6.68202L13.6604 6.46896ZM25.7309 8.45116C25.88 8.0148 25.9992 7.50125 26.0703 7.00002L26.2815 7.02998C26.2087 7.5428 26.0866 8.06956 25.9327 8.52008L25.7309 8.45116ZM26.0703 7.00002C26.1293 6.58442 26.1548 6.18024 26.1377 5.83777L26.3507 5.82715C26.3686 6.18678 26.3418 6.60507 26.2815 7.02998L26.0703 7.00002ZM25.5698 11.4816L12.5872 11.4816V11.2684L25.5698 11.2684V11.4816ZM25.6706 11.3404L27.848 17.6861L27.6463 17.7553L25.4689 11.4096L25.6706 11.3404ZM23.3111 11.3433L25.8402 19.4768L25.6366 19.5401L23.1075 11.4066L23.3111 11.3433ZM20.952 11.3481L23.1488 19.7706L22.9425 19.8244L20.7457 11.4019L20.952 11.3481ZM18.2546 11.349L20.4464 20.0556L20.2396 20.1076L18.0478 11.401L18.2546 11.349ZM12.6925 11.358L13.9517 19.1439L13.7412 19.178L12.482 11.392L12.6925 11.358ZM8.61142 6.52023L8.30447 9.2232L8.09259 9.19914L8.39955 6.49617L8.61142 6.52023ZM8.30423 9.19721L10.2233 23.7287L10.0119 23.7566L8.09283 9.22513L8.30423 9.19721ZM10.2006 23.6757L11.1527 24.8552L10.9868 24.9892L10.0347 23.8096L10.2006 23.6757ZM15.0546 21.5445L28.2182 20.3532L28.2374 20.5656L15.0738 21.7569L15.0546 21.5445ZM28.34 21.5643L15.2028 23.0184L15.1793 22.8064L28.3166 21.3524L28.34 21.5643ZM12.5872 11.2684L15.4535 11.2684V11.4816L12.5872 11.4816L12.5872 11.2684ZM15.5579 11.3536L16.0797 13.8979L15.8708 13.9407L15.349 11.3964L15.5579 11.3536ZM16.0797 13.8979L16.5147 16.0194L16.3058 16.0622L15.8708 13.9407L16.0797 13.8979ZM16.5147 16.0194L16.9748 18.2633L16.7659 18.3061L16.3058 16.0622L16.5147 16.0194ZM16.9748 18.2633L17.4114 20.3922L17.2025 20.435L16.7659 18.3061L16.9748 18.2633ZM17.3183 20.5196L15.7239 20.6907L15.7012 20.4787L17.2955 20.3076L17.3183 20.5196ZM27.6124 17.4345L16.8798 18.3909L16.8609 18.1785L27.5935 17.2221L27.6124 17.4345ZM16.8798 18.3909L13.7769 18.6674L13.758 18.455L16.8609 18.1785L16.8798 18.3909ZM26.9688 15.5973L16.4158 16.1473L16.4047 15.9343L26.9577 15.3844L26.9688 15.5973ZM16.4158 16.1473L13.4358 16.3026L13.4247 16.0896L16.4047 15.9343L16.4158 16.1473ZM26.685 19.514L17.3183 20.5196L17.2955 20.3076L26.6622 19.302L26.685 19.514ZM17.4114 20.3921L17.4126 20.3981L17.2037 20.4409L17.2025 20.435L17.4114 20.3921ZM26.3184 13.7368L15.9782 14.0259L15.9722 13.8127L26.3125 13.5236L26.3184 13.7368ZM15.9782 14.0259L13.096 14.1065L13.09 13.8933L15.9722 13.8127L15.9782 14.0259ZM11.8083 6.55411C11.9094 6.06013 11.986 5.56203 12.0128 5.10084L12.2257 5.11322C12.1981 5.58799 12.1196 6.09684 12.0172 6.59687L11.8083 6.55411ZM12.0128 5.10084C12.0379 4.6694 12.0192 4.27498 11.9391 3.94824C11.8591 3.62151 11.7201 3.37144 11.5115 3.21472L11.6396 3.04425C11.901 3.24064 12.0592 3.54228 12.1462 3.89751C12.2332 4.25273 12.2514 4.67053 12.2257 5.11322L12.0128 5.10084ZM11.5756 5.00041L12.1192 5.00041V5.21365L11.5756 5.21365V5.00041ZM32.4808 24.8872L9.13599 27.8901L9.10879 27.6786L32.4536 24.6757L32.4808 24.8872ZM9.08609 27.6841C9.04982 27.6972 9.0356 27.725 9.03391 27.7281C9.03018 27.7352 9.02945 27.7393 9.03013 27.7366C9.03132 27.732 9.03371 27.7192 9.03583 27.6942C9.03999 27.6453 9.04202 27.5641 9.0389 27.4391C9.03269 27.1897 9.00632 26.7756 8.94042 26.1153L9.1526 26.0942C9.21872 26.7567 9.24566 27.1768 9.25207 27.4337C9.25526 27.5618 9.25343 27.6519 9.2483 27.7122C9.24579 27.7419 9.24218 27.7683 9.23661 27.7899C9.23391 27.8003 9.22961 27.8143 9.2222 27.8282C9.21682 27.8383 9.1988 27.8701 9.15869 27.8846L9.08609 27.6841ZM9.10678 27.6789L9.10879 27.6786L9.13599 27.8901L9.13398 27.8904L9.10678 27.6789ZM13.7924 5.22008L22.034 5.6012L22.0241 5.81421L13.7825 5.43308L13.7924 5.22008ZM13.5508 6.55939C13.6142 6.14444 13.6614 5.72613 13.681 5.32142L13.894 5.33174C13.8739 5.74556 13.8258 6.17139 13.7616 6.59159L13.5508 6.55939ZM13.681 5.32142C13.7142 4.63674 13.668 3.99766 13.4929 3.48109C13.3186 2.96712 13.0192 2.58071 12.5461 2.38319L12.6283 2.18642C13.1722 2.4135 13.5065 2.85722 13.6948 3.41261C13.8823 3.9654 13.9277 4.6349 13.894 5.33174L13.681 5.32142ZM13.7825 5.43308L13.7625 5.43216L13.7724 5.21915L13.7924 5.22008L13.7825 5.43308ZM15.2028 23.0184C14.8124 23.0616 14.4562 22.7925 14.3909 22.4052L14.6012 22.3698C14.6477 22.6456 14.9013 22.8372 15.1793 22.8064L15.2028 23.0184ZM28.8677 20.8297C28.9447 21.1827 28.6991 21.5246 28.34 21.5643L28.3166 21.3524C28.5498 21.3266 28.7094 21.1044 28.6594 20.8751L28.8677 20.8297ZM28.2182 20.3532C28.5239 20.3256 28.8023 20.5298 28.8677 20.8297L28.6594 20.8751C28.6169 20.6803 28.436 20.5476 28.2374 20.5656L28.2182 20.3532ZM15.0738 21.7569C14.7678 21.7846 14.5502 22.0669 14.6012 22.3698L14.3909 22.4052C14.3193 21.9798 14.6249 21.5834 15.0546 21.5445L15.0738 21.7569ZM13.9517 19.1439C14.0874 19.9831 14.8559 20.5695 15.7012 20.4787L15.7239 20.6907C14.766 20.7936 13.895 20.129 13.7412 19.178L13.9517 19.1439ZM27.848 17.6861C28.1367 18.5274 27.5694 19.4191 26.685 19.514L26.6622 19.302C27.4106 19.2217 27.8906 18.4672 27.6463 17.7553L27.848 17.6861ZM33.6215 23.0822C33.8914 23.9085 33.3429 24.7763 32.4808 24.8872L32.4536 24.6757C33.1831 24.5819 33.6472 23.8475 33.4188 23.1484L33.6215 23.0822ZM31.7808 20.722C32.1301 21.8071 31.4045 22.9419 30.2704 23.0695L30.2466 22.8576C31.2455 22.7452 31.8862 21.7454 31.5778 20.7873L31.7808 20.722ZM27.4853 8.07563C27.3022 7.50708 26.7732 7.12162 26.1759 7.12162V6.90839C26.8658 6.90839 27.4768 7.35359 27.6882 8.01028L27.4853 8.07563Z" fill="#D94F04"/>
</g>
<g id="Vector 13">
<path d="M13.7875 5.32659L22.0291 5.70772L23.3779 5.7701L24.7267 5.83247C24.7267 6.27006 24.7037 6.66139 24.6575 7.01501L13.6562 6.5755C13.72 6.15793 13.7676 5.73586 13.7875 5.32659Z" fill="#FFBD43"/>
<path d="M27.9302 6.00141L33.5202 23.1153C33.7693 23.878 33.263 24.6791 32.4672 24.7815L9.12238 27.7844C9.15313 27.7732 9.17852 27.4275 9.0465 26.1048C9.00308 25.6696 8.79535 23.9969 8.50548 21.7124C7.89507 16.9018 6.92042 9.37859 6.34883 4.98779L10.3953 5.10704L11.5756 5.10704L12.1192 5.10704C12.092 5.57502 12.0145 6.0785 11.9128 6.5755L10.0588 6.53889C9.17847 6.5215 8.42953 7.17703 8.33017 8.05195L8.19852 9.21118L10.1176 23.7427L10.3495 24.0299C10.7992 24.587 11.4909 24.882 12.2036 24.8132C15.3241 24.5117 24.2087 23.6445 30.2585 22.9636C31.325 22.8436 32.0082 21.7763 31.6793 20.7547L27.5868 8.04297C27.3895 7.43035 26.8195 7.01501 26.1759 7.01501C26.2355 6.59476 26.2617 6.18352 26.2442 5.83247L27.9302 6.00141Z" fill="#FFBD43"/>
<path d="M13.7875 5.32659L22.0291 5.70772L23.3779 5.7701L24.7267 5.83247C24.7267 6.27006 24.7037 6.66139 24.6575 7.01501L13.6562 6.5755C13.72 6.15793 13.7676 5.73586 13.7875 5.32659Z" stroke="#D94F04" stroke-width="0.213235"/>
<path d="M27.9302 6.00141L33.5202 23.1153C33.7693 23.878 33.263 24.6791 32.4672 24.7815L9.12238 27.7844C9.15313 27.7732 9.17852 27.4275 9.0465 26.1048C9.00308 25.6696 8.79535 23.9969 8.50548 21.7124C7.89507 16.9018 6.92042 9.37859 6.34883 4.98779L10.3953 5.10704L11.5756 5.10704L12.1192 5.10704C12.092 5.57502 12.0145 6.0785 11.9128 6.5755L10.0588 6.53889C9.17847 6.5215 8.42953 7.17703 8.33017 8.05195L8.19852 9.21118L10.1176 23.7427L10.3495 24.0299C10.7992 24.587 11.4909 24.882 12.2036 24.8132C15.3241 24.5117 24.2087 23.6445 30.2585 22.9636C31.325 22.8436 32.0082 21.7763 31.6793 20.7547L27.5868 8.04297C27.3895 7.43035 26.8195 7.01501 26.1759 7.01501C26.2355 6.59476 26.2617 6.18352 26.2442 5.83247L27.9302 6.00141Z" stroke="#D94F04" stroke-width="0.213235"/>
</g>
<path id="Vector 11" d="M14.496 22.3875C14.4347 22.0234 14.6963 21.684 15.0641 21.6507L28.2278 20.4594C28.4799 20.4366 28.7096 20.6051 28.7635 20.8524C28.827 21.1436 28.6244 21.4256 28.3283 21.4584L15.191 22.9124C14.8568 22.9494 14.5519 22.7191 14.496 22.3875Z" fill="#FFBD43" stroke="#D94F04" stroke-width="0.213235"/>
</g>
<defs>
<filter id="filter0_d_10460_1812" x="0.890625" y="0.5" width="37.1094" height="37" filterUnits="userSpaceOnUse" color-interpolation-filters="sRGB">
<feFlood flood-opacity="0" result="BackgroundImageFix"/>
<feColorMatrix in="SourceAlpha" type="matrix" values="0 0 0 0 0 0 0 0 0 0 0 0 0 0 0 0 0 0 127 0" result="hardAlpha"/>
<feOffset dy="4"/>
<feGaussianBlur stdDeviation="2"/>
<feComposite in2="hardAlpha" operator="out"/>
<feColorMatrix type="matrix" values="0 0 0 0 0 0 0 0 0 0 0 0 0 0 0 0 0 0 0.25 0"/>
<feBlend mode="normal" in2="BackgroundImageFix" result="effect1_dropShadow_10460_1812"/>
<feBlend mode="normal" in="SourceGraphic" in2="effect1_dropShadow_10460_1812" result="shape"/>
</filter>
</defs>
</svg>
