<svg width="38" height="37" viewBox="0 0 38 37" fill="none" xmlns="http://www.w3.org/2000/svg">
<g id="Icon" filter="url(#filter0_d_10460_1362)">
<g id="Vector 5">
<path d="M18.2206 5.19114L17.7941 9.24261L18.2206 9.45585L18.6471 5.61761C18.576 5.47545 18.2206 5.19114 18.2206 5.19114Z" fill="#D94F04"/>
<path d="M17.7941 9.24261L13.5294 9.45585L13.7426 9.66908L18.2206 9.45585L17.7941 9.24261Z" fill="#D94F04"/>
<path d="M17.7941 10.9485L17.3677 15L17.7941 15.2132L18.2206 11.375C18.1495 11.2328 17.7941 10.9485 17.7941 10.9485Z" fill="#D94F04"/>
<path d="M17.3677 15H13.1029L13.3162 15.2132H17.7941L17.3677 15Z" fill="#D94F04"/>
<path d="M17.1544 16.7058L16.5147 20.7573L16.9412 20.9706L17.5809 17.1323C17.5098 16.9902 17.1544 16.7058 17.1544 16.7058Z" fill="#D94F04"/>
<path d="M16.5147 20.7573L12.25 20.3308L12.4632 20.5441L16.9412 20.9706L16.5147 20.7573Z" fill="#D94F04"/>
<path d="M33.7868 6.47055C33.8579 4.76467 33.7441 1.35291 32.7206 1.35291C32.0114 1.8848 31.8919 3.74348 31.7492 6.68379L33.7868 6.47055Z" fill="#D94F04"/>
<path d="M32.7206 1.35291C33.7441 1.35291 33.8579 4.76467 33.7868 6.47055L31.7492 6.68379M32.7206 1.35291C31.4412 1.35291 14.5956 3.05879 13.7426 3.27202C12.8897 3.48526 12.0368 4.3382 11.6103 9.02938C11.1838 13.7206 11.3971 27.3676 5 26.3014M32.7206 1.35291C32.0114 1.8848 31.8919 3.74348 31.7492 6.68379M5 26.3014C5.75217 26.3912 6.28414 26.4781 7.02104 26.5622M5 26.3014C5.47676 26.3809 6.02897 26.4752 7.02104 26.5622M31.7492 6.68379C31.7202 7.27974 31.6904 7.92013 31.6544 8.60291C31.4412 12.6544 31.4412 21.6103 30.5882 26.0882C30.2378 27.9281 29.8873 28.58 29.5221 28.5321M29.5221 28.5321C28.9984 28.4634 28.4443 26.9559 27.8162 25.4485C20.0084 27.1835 11.3536 26.9421 7.02104 26.5622M29.5221 28.5321C26.2684 28.3687 17.4816 27.7549 7.02104 26.5622M13.5294 9.45585L13.9559 5.61761L18.2206 5.19114M13.5294 9.45585L17.7941 9.24261M13.5294 9.45585L13.7426 9.66908L18.2206 9.45585M17.7941 9.24261L18.2206 5.19114M17.7941 9.24261L18.2206 9.45585M18.2206 5.19114C18.2206 5.19114 18.576 5.47545 18.6471 5.61761L18.2206 9.45585M13.1029 15L13.5294 11.1617L17.7941 10.9485M13.1029 15H17.3677M13.1029 15L13.3162 15.2132H17.7941M17.3677 15L17.7941 10.9485M17.3677 15L17.7941 15.2132M17.7941 10.9485C17.7941 10.9485 18.1495 11.2328 18.2206 11.375L17.7941 15.2132M12.25 20.3308L12.8897 16.7058H17.1544M12.25 20.3308L16.5147 20.7573M12.25 20.3308L12.4632 20.5441L16.9412 20.9706M16.5147 20.7573L17.1544 16.7058M16.5147 20.7573L16.9412 20.9706M17.1544 16.7058C17.1544 16.7058 17.5098 16.9902 17.5809 17.1323L16.9412 20.9706M27.7371 19.7395L27.6651 20.1714C27.6296 20.3841 27.4409 20.5369 27.2255 20.5273L18.4882 20.139C18.2326 20.1276 18.0444 19.8952 18.0865 19.6428L18.1585 19.2109C18.1939 18.9982 18.3826 18.8454 18.5981 18.855L27.3353 19.2433C27.591 19.2547 27.7791 19.487 27.7371 19.7395ZM27.9503 18.0336L27.8783 18.4655C27.8428 18.6782 27.6542 18.831 27.4387 18.8214L18.7015 18.4331C18.4458 18.4217 18.2577 18.1894 18.2997 17.9369L18.3717 17.505C18.4072 17.2923 18.5959 17.1395 18.8113 17.1491L27.5486 17.5374C27.8042 17.5488 27.9924 17.7812 27.9503 18.0336ZM28.3712 13.589L28.3007 14.012C28.267 14.2141 28.0945 14.3636 27.8897 14.3683L19.3754 14.5618C19.108 14.5679 18.901 14.3291 18.945 14.0653L19.0155 13.6423C19.0492 13.4403 19.2217 13.2907 19.4265 13.2861L27.9408 13.0926C28.2082 13.0865 28.4152 13.3252 28.3712 13.589ZM28.5844 11.8831L28.5139 12.3061C28.4803 12.5082 28.3077 12.6577 28.1029 12.6624L19.5886 12.8559C19.3212 12.862 19.1143 12.6233 19.1582 12.3594L19.2287 11.9364C19.2624 11.7344 19.4349 11.5848 19.6397 11.5802L28.1541 11.3867C28.4215 11.3806 28.6284 11.6193 28.5844 11.8831ZM28.5803 7.21695L28.5112 7.63129C28.4788 7.82592 28.3171 7.97289 28.1202 7.98662L19.826 8.56529C19.551 8.58447 19.3303 8.34165 19.3756 8.06974L19.4447 7.6554C19.4771 7.46077 19.6388 7.31381 19.8357 7.30007L28.1299 6.72141C28.4049 6.70222 28.6256 6.94504 28.5803 7.21695ZM28.7935 5.51107L28.7244 5.92541C28.692 6.12004 28.5303 6.267 28.3335 6.28074L20.0392 6.8594C19.7642 6.87859 19.5435 6.63577 19.5889 6.36386L19.6579 5.94952C19.6904 5.75489 19.8521 5.60792 20.0489 5.59419L28.3431 5.01552C28.6181 4.99634 28.8388 5.23916 28.7935 5.51107Z" stroke="#D94F04" stroke-width="0.213235"/>
</g>
<g id="Vector 8">
<path d="M20.049 5.59419C19.8522 5.60793 19.6905 5.75489 19.658 5.94952L19.589 6.36386C19.5437 6.63577 19.7643 6.87859 20.0393 6.8594L28.3336 6.28074C28.5304 6.267 28.6921 6.12004 28.7246 5.92541L28.7936 5.51107C28.8389 5.23916 28.6182 4.99634 28.3433 5.01552L20.049 5.59419Z" fill="#FFBD43"/>
<path d="M19.6398 11.5802C19.4351 11.5848 19.2625 11.7344 19.2288 11.9364L19.1583 12.3594C19.1144 12.6233 19.3213 12.862 19.5887 12.8559L28.1031 12.6624C28.3078 12.6577 28.4804 12.5082 28.514 12.3061L28.5845 11.8831C28.6285 11.6193 28.4216 11.3806 28.1542 11.3867L19.6398 11.5802Z" fill="#FFBD43"/>
<path d="M18.8114 17.1491C18.596 17.1395 18.4073 17.2923 18.3718 17.505L18.2998 17.9369C18.2578 18.1894 18.4459 18.4217 18.7016 18.4331L27.4388 18.8214C27.6543 18.831 27.843 18.6782 27.8784 18.4655L27.9504 18.0336C27.9925 17.7812 27.8043 17.5488 27.5487 17.5374L18.8114 17.1491Z" fill="#FFBD43"/>
</g>
<g id="Vector 7">
<path d="M14.8907 6.32302C14.9713 6.28274 15.0677 6.29143 15.1397 6.34547L15.8751 6.89701L16.7419 6.20352C16.8554 6.11274 17.019 6.1218 17.1218 6.22456C17.249 6.35181 17.228 6.56367 17.0783 6.6635L16.0883 7.32348L16.708 7.94317C16.8228 8.05792 16.7914 8.25137 16.6462 8.32394C16.5657 8.36422 16.4693 8.35552 16.3972 8.30149L15.6619 7.74995L14.7055 8.51502C14.6386 8.56859 14.5466 8.57833 14.4699 8.53998C14.3281 8.46908 14.3056 8.27596 14.4274 8.17446L15.4486 7.32348L14.8289 6.70379C14.7142 6.58904 14.7456 6.39559 14.8907 6.32302Z" fill="#183459"/>
<path d="M14.4642 12.0804C14.5448 12.0401 14.6412 12.0488 14.7132 12.1028L15.4486 12.6544L16.3155 11.9609C16.4289 11.8701 16.5925 11.8792 16.6953 11.9819C16.8225 12.1092 16.8016 12.321 16.6518 12.4209L15.6619 13.0808L16.2815 13.7005C16.3963 13.8153 16.3649 14.0087 16.2197 14.0813C16.1392 14.1216 16.0428 14.1129 15.9708 14.0588L15.2354 13.5073L14.279 14.2724C14.2121 14.3259 14.1201 14.3357 14.0434 14.2973C13.9016 14.2264 13.8792 14.0333 14.001 13.9318L15.0221 13.0808L14.4025 12.4611C14.2877 12.3464 14.3191 12.1529 14.4642 12.0804Z" fill="#183459"/>
<path d="M13.8245 17.4113C13.9051 17.371 14.0015 17.3797 14.0735 17.4337L14.8089 17.9852L15.6758 17.2918C15.7892 17.201 15.9528 17.21 16.0556 17.3128C16.1828 17.44 16.1619 17.6519 16.0121 17.7517L15.0221 18.4117L15.6418 19.0314C15.7566 19.1462 15.7252 19.3396 15.58 19.4122C15.4995 19.4525 15.4031 19.4438 15.3311 19.3897L14.5957 18.8382L13.6393 19.6033C13.5724 19.6568 13.4804 19.6666 13.4037 19.6282C13.2619 19.5573 13.2395 19.3642 13.3613 19.2627L14.3824 18.4117L13.7627 17.792C13.648 17.6773 13.6794 17.4838 13.8245 17.4113Z" fill="#183459"/>
</g>
<path id="Vector 6" d="M27.8161 25.4485C20.0084 27.1835 11.3535 26.9421 7.021 26.5622C17.4816 27.7549 26.2684 28.3687 29.522 28.5321C28.9983 28.4634 28.4442 26.9559 27.8161 25.4485Z" fill="#FFBD43" stroke="#D94F04" stroke-width="0.213235"/>
</g>
<defs>
<filter id="filter0_d_10460_1362" x="0.982422" y="0.5" width="37.0176" height="37" filterUnits="userSpaceOnUse" color-interpolation-filters="sRGB">
<feFlood flood-opacity="0" result="BackgroundImageFix"/>
<feColorMatrix in="SourceAlpha" type="matrix" values="0 0 0 0 0 0 0 0 0 0 0 0 0 0 0 0 0 0 127 0" result="hardAlpha"/>
<feOffset dy="4"/>
<feGaussianBlur stdDeviation="2"/>
<feComposite in2="hardAlpha" operator="out"/>
<feColorMatrix type="matrix" values="0 0 0 0 0 0 0 0 0 0 0 0 0 0 0 0 0 0 0.25 0"/>
<feBlend mode="normal" in2="BackgroundImageFix" result="effect1_dropShadow_10460_1362"/>
<feBlend mode="normal" in="SourceGraphic" in2="effect1_dropShadow_10460_1362" result="shape"/>
</filter>
</defs>
</svg>
