<svg width="38" height="38" viewBox="0 0 38 38" fill="none" xmlns="http://www.w3.org/2000/svg">
<g filter="url(#filter0_d_3608_87034)">
<path d="M5 12.325V24.3393C5 25.2714 5.725 26.825 7.58929 27.2393V20.0929V11.3929C6.8811 11.4274 5.45968 11.3721 5.43951 10.875C5.09625 11.1125 5 11.5263 5 12.325Z" fill="#D94F04"/>
<path d="M14.3214 3.31428V10.2536L19.5 10.6679V2.38214L15.7714 3.05328L14.3214 3.31428Z" fill="#D94F04"/>
<path d="M19.5 18.3321L24.2643 21.025V16.675L19.5 14.6036V18.3321Z" fill="#D94F04"/>
<path d="M19.5 1.76071V0.207138L14.6321 1.34642C14.2524 1.51904 13.6793 2.07142 14.425 2.9C15.5021 2.73428 18.2571 2.07142 19.5 1.76071Z" fill="#D94F04"/>
<path d="M33.275 14.6036V2.38214H31.6179M33.275 14.6036C33.8964 14.8107 33.7929 15.3286 33.7929 17.0893C33.7929 18.2286 33.7929 22.2679 33.6893 24.7536C33.4407 27.405 27.3024 28.344 24.2643 28.4821M33.275 14.6036H19.5M33.275 14.6036C34.8493 15.8464 27.9238 16.5024 24.2643 16.675M19.5 2.38214H31.6179M19.5 2.38214V10.6679M19.5 2.38214L15.7714 3.05328M19.5 18.3321L24.2643 21.025M19.5 18.3321V14.6036M19.5 18.3321L7.58929 20.0929M24.2643 21.025V28.4821M24.2643 21.025V16.675M24.2643 21.025C17.47 21.3564 10.3167 20.5417 7.58929 20.0929M24.2643 28.4821C19.2928 29.725 11.0762 28.1714 7.58929 27.2393M19.5 14.6036L24.2643 16.675M19.5 14.6036V10.6679M19.5 0.207138V1.76071M19.5 0.207138C23.3321 0.207138 31.3693 0.207138 32.8607 0.207138M19.5 0.207138L14.6321 1.34642C14.2524 1.51904 13.6793 2.07142 14.425 2.9M19.5 0.207138H32.8607M19.5 1.76071H33.275M19.5 1.76071C18.2571 2.07142 15.5021 2.73428 14.425 2.9M33.275 1.76071C33.4476 1.34642 33.6064 0.45571 32.8607 0.207138M33.275 1.76071L31.6179 2.38214M14.425 2.9L15.7714 3.05328M14.3214 10.2536V3.31428L15.7714 3.05328M14.3214 10.2536L19.5 10.6679M14.3214 10.2536C12.8024 10.2536 9.32929 10.295 7.58929 10.4607C6.46262 10.568 5.80841 10.6197 5.43951 10.875M19.5 10.6679L7.58929 11.3929M5 12.325C5 13.9821 5 23.4071 5 24.3393M5 12.325C5 11.5263 5.09625 11.1125 5.43951 10.875M5 12.325V24.3393M5 24.3393C5 25.2714 5.725 26.825 7.58929 27.2393M7.58929 27.2393C7.58929 25.9136 7.58929 21.9226 7.58929 20.0929M7.58929 27.2393V20.0929M7.58929 20.0929V11.3929M7.58929 11.3929C6.8811 11.4274 5.45968 11.3721 5.43951 10.875" stroke="#D94F04" stroke-width="0.207143"/>
<path d="M19.5 0.207138V1.76071H33.275C33.4476 1.34642 33.6064 0.455709 32.8607 0.207138H19.5Z" fill="#FFBD43" stroke="#D94F04" stroke-width="0.207143"/>
<path d="M19.5 10.6679L14.3214 10.2536C12.8024 10.2536 9.32929 10.295 7.58929 10.4607C6.46263 10.568 5.80842 10.6197 5.43951 10.875C5.45969 11.3721 6.88111 11.4274 7.58929 11.3929L19.5 10.6679Z" fill="#FFBD43"/>
<path d="M33.275 14.6036H19.5L24.2643 16.675C27.9238 16.5024 34.8493 15.8464 33.275 14.6036Z" fill="#FFBD43"/>
<path d="M24.2643 21.025L19.5 18.3321L7.58929 20.0929C10.3167 20.5417 17.47 21.3564 24.2643 21.025Z" fill="#FFBD43"/>
<path d="M27.4315 6.15005V9.83928H26.7033V6.98955L25.8284 7.2677V6.6937L27.3531 6.15005H27.4315Z" fill="#183459"/>
<path d="M14.5035 16.5203V17.0893H11.985V16.6038L13.176 15.3268C13.2957 15.1937 13.3901 15.0765 13.4592 14.9754C13.5283 14.8725 13.578 14.7807 13.6084 14.6998C13.6404 14.6172 13.6564 14.5388 13.6564 14.4646C13.6564 14.3533 13.6379 14.2581 13.6008 14.1789C13.5637 14.0979 13.5089 14.0356 13.4364 13.9917C13.3656 13.9479 13.278 13.926 13.1735 13.926C13.0622 13.926 12.9661 13.953 12.8852 14.0069C12.806 14.0609 12.7453 14.1359 12.7031 14.232C12.6627 14.3281 12.6424 14.4368 12.6424 14.5582H11.9117C11.9117 14.339 11.9639 14.1384 12.0685 13.9563C12.173 13.7726 12.3205 13.6268 12.511 13.5189C12.7014 13.4093 12.9273 13.3545 13.1886 13.3545C13.4465 13.3545 13.664 13.3967 13.841 13.481C14.0197 13.5636 14.1545 13.6833 14.2456 13.84C14.3383 13.9951 14.3847 14.1805 14.3847 14.3963C14.3847 14.5177 14.3653 14.6365 14.3265 14.7529C14.2877 14.8675 14.2321 14.9821 14.1596 15.0967C14.0888 15.2097 14.0028 15.3243 13.9017 15.4406C13.8005 15.557 13.6884 15.6775 13.5654 15.8022L12.9257 16.5203H14.5035Z" fill="#183459"/>
<path d="M29.0952 21.3538H29.4846C29.6094 21.3538 29.7122 21.3327 29.7931 21.2906C29.874 21.2468 29.9339 21.1861 29.9727 21.1085C30.0131 21.0293 30.0333 20.9374 30.0333 20.8329C30.0333 20.7385 30.0148 20.6551 29.9777 20.5826C29.9423 20.5084 29.8875 20.4511 29.8134 20.4106C29.7392 20.3685 29.6456 20.3474 29.5327 20.3474C29.4433 20.3474 29.3607 20.3651 29.2849 20.4005C29.209 20.4359 29.1483 20.4857 29.1028 20.5497C29.0573 20.6138 29.0345 20.6913 29.0345 20.7824H28.3038C28.3038 20.5801 28.3577 20.4039 28.4656 20.2539C28.5752 20.1038 28.7218 19.9867 28.9056 19.9024C29.0893 19.8181 29.2916 19.776 29.5125 19.776C29.7619 19.776 29.9802 19.8164 30.1674 19.8973C30.3545 19.9766 30.5003 20.0937 30.6048 20.2488C30.7093 20.4039 30.7616 20.5961 30.7616 20.8253C30.7616 20.9417 30.7346 21.0546 30.6807 21.1642C30.6267 21.2721 30.5492 21.3698 30.448 21.4575C30.3486 21.5435 30.2272 21.6126 30.0839 21.6648C29.9406 21.7154 29.7796 21.7407 29.601 21.7407H29.0952V21.3538ZM29.0952 21.9076V21.5308H29.601C29.8016 21.5308 29.9777 21.5536 30.1294 21.5991C30.2811 21.6446 30.4084 21.7103 30.5112 21.7963C30.6141 21.8806 30.6916 21.9809 30.7439 22.0972C30.7961 22.2119 30.8223 22.3391 30.8223 22.479C30.8223 22.651 30.7894 22.8044 30.7237 22.9392C30.6579 23.0724 30.5652 23.1854 30.4455 23.2781C30.3275 23.3708 30.1893 23.4416 30.0308 23.4905C29.8724 23.5377 29.6996 23.5613 29.5125 23.5613C29.3574 23.5613 29.2048 23.5402 29.0548 23.4981C28.9064 23.4542 28.7716 23.3893 28.6502 23.3034C28.5305 23.2157 28.4344 23.1061 28.3619 22.9746C28.2911 22.8415 28.2557 22.6839 28.2557 22.5018H28.9865C28.9865 22.5962 29.0101 22.6805 29.0573 22.7547C29.1045 22.8288 29.1694 22.887 29.252 22.9291C29.3363 22.9713 29.4299 22.9923 29.5327 22.9923C29.649 22.9923 29.7485 22.9713 29.8311 22.9291C29.9153 22.8853 29.9794 22.8246 30.0232 22.7471C30.0687 22.6678 30.0915 22.576 30.0915 22.4715C30.0915 22.3366 30.0671 22.2287 30.0182 22.1478C29.9693 22.0652 29.8993 22.0045 29.8083 21.9657C29.7173 21.927 29.6094 21.9076 29.4846 21.9076H29.0952Z" fill="#183459"/>
</g>
<defs>
<filter id="filter0_d_3608_87034" x="0.896423" y="0" width="37.1036" height="37.0482" filterUnits="userSpaceOnUse" color-interpolation-filters="sRGB">
<feFlood flood-opacity="0" result="BackgroundImageFix"/>
<feColorMatrix in="SourceAlpha" type="matrix" values="0 0 0 0 0 0 0 0 0 0 0 0 0 0 0 0 0 0 127 0" result="hardAlpha"/>
<feOffset dy="4"/>
<feGaussianBlur stdDeviation="2"/>
<feComposite in2="hardAlpha" operator="out"/>
<feColorMatrix type="matrix" values="0 0 0 0 0 0 0 0 0 0 0 0 0 0 0 0 0 0 0.25 0"/>
<feBlend mode="normal" in2="BackgroundImageFix" result="effect1_dropShadow_3608_87034"/>
<feBlend mode="normal" in="SourceGraphic" in2="effect1_dropShadow_3608_87034" result="shape"/>
</filter>
</defs>
</svg>
