<svg width="29" height="37" viewBox="0 0 29 37" fill="none" xmlns="http://www.w3.org/2000/svg">
<g filter="url(#filter0_d_3608_85322)">
<path d="M17.9813 12.0832L17.8229 14.2318H18.2736L18.4319 12.0832H17.9813Z" fill="#D94F04"/>
<path d="M20.0686 15.8753L19.9421 18.3142H20.3779L20.5957 15.9507L20.0686 15.8753Z" fill="#D94F04"/>
<path d="M17.8229 19.8035L17.5679 21.6979H18.0185L18.2736 19.8035H17.8229Z" fill="#D94F04"/>
<path d="M23.382 1.18247C23.3515 7.18371 22.8405 18.8469 22.4907 21.6175C22.2378 23.62 21.8963 25.3738 21.6372 26.525C21.6796 26.4716 21.8221 26.4489 22.0988 26.3086C22.3582 26.177 22.5239 25.9186 22.5775 25.6327C23.8375 18.9127 23.9833 7.34939 24.0573 1.47853L24.0594 1.31872L23.382 1.18247Z" fill="#D94F04"/>
<path d="M8.74675 2.63783C10.1579 0.930924 10.4819 1.06116 12.577 0.872596C14.3888 0.709528 19.7251 0.471955 22.6374 0.432207C23.0494 0.426583 23.3841 0.770418 23.382 1.18247V1.18247M8.74675 2.63783C8.48856 2.95013 8.19398 3.32393 7.84551 3.77243C6.27337 5.79583 5.79821 6.40737 5.65461 6.89532M8.74675 2.63783L7.36947 5.77134C7.24088 6.0639 7.00747 6.29774 6.71515 6.42686L5.65461 6.89532M5.65461 6.89532C5.5924 7.10668 5.5924 7.29484 5.5924 7.56451C5.5924 8.42841 6.64847 18.7022 4.87511 22.9987C4.78275 23.2225 4.8701 23.483 5.09634 23.5691C8.00122 24.6752 17.7223 26.9418 21.0315 28.5735C21.2493 27.9289 21.5268 27.0151 21.6372 26.525M23.382 1.18247C23.3515 7.18371 22.8405 18.8469 22.4907 21.6175C22.2378 23.62 21.8963 25.3738 21.6372 26.525M23.382 1.18247L24.0594 1.31872M24.0594 1.31872L24.0573 1.47853M24.0594 1.31872C24.0587 1.37151 24.058 1.42478 24.0573 1.47853M21.6372 26.525C21.6796 26.4716 21.8221 26.4489 22.0988 26.3086C22.3582 26.177 22.5239 25.9186 22.5775 25.6327V25.6327M24.0594 1.76485L24.4425 1.89128C24.6172 1.94896 24.7353 2.10755 24.7351 2.29159C24.727 7.98477 24.4932 19.0078 23.6096 23.9323C23.491 24.5932 23.1499 25.2817 22.5775 25.6327V25.6327M22.5775 25.6327C23.8375 18.9127 23.9833 7.34939 24.0573 1.47853M17.8229 14.2318L9.06346 13.4298V11.8683L17.9813 12.0832M17.8229 14.2318L17.9813 12.0832M17.8229 14.2318H18.2736L18.4319 12.0832H17.9813M19.9421 18.3142L8.83815 16.7347L9.06346 14.9912L20.0686 15.8753M19.9421 18.3142L20.0686 15.8753M19.9421 18.3142H20.3779L20.5957 15.9507L20.0686 15.8753M17.5679 21.6979L8.39497 19.8035L8.62028 18.3142L17.8229 19.8035M17.5679 21.6979L17.8229 19.8035M17.5679 21.6979H18.0185L18.2736 19.8035H17.8229" stroke="#D94F04" stroke-width="0.213235"/>
<path d="M9.06351 11.8683V13.4298L17.823 14.2318L17.9813 12.0832L9.06351 11.8683Z" fill="#FFBD43"/>
<path d="M9.06351 14.9912L8.8382 16.7347L19.9422 18.3142L20.0686 15.8753L9.06351 14.9912Z" fill="#FFBD43"/>
<path d="M8.62033 18.3142L8.39502 19.8035L17.5679 21.6979L17.823 19.8035L8.62033 18.3142Z" fill="#FFBD43"/>
<path d="M9.06351 11.8683V13.4298L17.823 14.2318L17.9813 12.0832L9.06351 11.8683Z" stroke="#D94F04" stroke-width="0.213235"/>
<path d="M9.06351 14.9912L8.8382 16.7347L19.9422 18.3142L20.0686 15.8753L9.06351 14.9912Z" stroke="#D94F04" stroke-width="0.213235"/>
<path d="M8.62033 18.3142L8.39502 19.8035L17.5679 21.6979L17.823 19.8035L8.62033 18.3142Z" stroke="#D94F04" stroke-width="0.213235"/>
<path d="M13.2578 5.33339L12.8543 5.32949L12.86 4.99219L13.2611 4.99606C13.3444 4.99686 13.4149 4.97755 13.4728 4.93813C13.5315 4.89871 13.5762 4.83959 13.607 4.76075C13.6385 4.68109 13.6549 4.58295 13.656 4.46634L13.6568 4.38763C13.6576 4.30018 13.6496 4.22347 13.6328 4.1575C13.6168 4.0907 13.5923 4.03507 13.5594 3.99061C13.5265 3.94531 13.4852 3.91117 13.4355 3.8882C13.3865 3.86524 13.33 3.85345 13.2659 3.85283L12.8611 3.84892L12.8643 3.51034L13.2691 3.51425C13.3924 3.51544 13.5051 3.53777 13.6071 3.58124C13.71 3.62388 13.7985 3.68471 13.8727 3.76373C13.9478 3.84192 14.0052 3.93452 14.045 4.04153C14.0856 4.14771 14.1053 4.26535 14.104 4.39445L14.1033 4.47066C14.1021 4.59893 14.0801 4.71617 14.0374 4.82238C13.9956 4.9286 13.9368 5.02008 13.8611 5.09681C13.7854 5.17355 13.6961 5.23266 13.5932 5.27415C13.4912 5.31482 13.3794 5.33456 13.2578 5.33339ZM13.123 3.51284L13.1054 5.33192L12.6669 5.32768L12.6844 3.5086L13.123 3.51284ZM13.4127 4.30281L13.4104 4.54144L12.4971 4.53262L12.4994 4.29399L13.4127 4.30281ZM15.4722 3.88413L15.702 3.88635C15.701 3.98963 15.6835 4.07817 15.6495 4.15198C15.6163 4.22496 15.5649 4.28069 15.4954 4.31917C15.4268 4.35683 15.3383 4.37513 15.23 4.37409L15.2315 4.21792C15.2948 4.21853 15.3437 4.20567 15.3781 4.17935C15.4125 4.15219 15.4366 4.11369 15.4504 4.06384C15.4642 4.014 15.4715 3.95409 15.4722 3.88413ZM14.2537 4.68078L14.254 4.65454C14.2549 4.55543 14.27 4.46436 14.2991 4.38134C14.3282 4.29749 14.3706 4.22501 14.4261 4.16391C14.4825 4.10281 14.5513 4.05558 14.6324 4.02221C14.7135 3.98801 14.807 3.97142 14.9128 3.97244C15.0194 3.97347 15.1129 3.99186 15.1934 4.02763C15.2747 4.06256 15.3425 4.11111 15.3969 4.17328C15.4513 4.23545 15.4922 4.30873 15.5197 4.39313C15.5472 4.47669 15.5605 4.56803 15.5596 4.66715L15.5593 4.69338C15.5583 4.79167 15.5433 4.88274 15.5142 4.96659C15.4851 5.0496 15.4427 5.12208 15.3871 5.18402C15.3316 5.24512 15.2632 5.29236 15.1821 5.32573C15.101 5.3591 15.0075 5.37527 14.9017 5.37425C14.796 5.37323 14.7024 5.35525 14.6211 5.32031C14.5398 5.28538 14.4716 5.23682 14.4164 5.17465C14.362 5.11165 14.3211 5.03836 14.2935 4.9548C14.266 4.8704 14.2528 4.77906 14.2537 4.68078ZM14.6762 4.65862L14.676 4.68486C14.6755 4.73566 14.6788 4.78318 14.6859 4.82739C14.6929 4.87161 14.7051 4.91046 14.7222 4.94395C14.7394 4.9766 14.7629 5.00223 14.7927 5.02084C14.8225 5.03946 14.8599 5.04898 14.9049 5.04942C14.949 5.04984 14.9858 5.04103 15.0151 5.02299C15.0453 5.00496 15.0688 4.97978 15.0858 4.94746C15.1036 4.91431 15.1165 4.8757 15.1244 4.83163C15.1323 4.78755 15.1365 4.74011 15.137 4.68931L15.1373 4.66307C15.1377 4.61393 15.1344 4.56767 15.1274 4.52428C15.1211 4.48007 15.1094 4.44123 15.0922 4.40774C15.0751 4.37342 15.0516 4.34654 15.0218 4.32709C14.992 4.30765 14.9546 4.29771 14.9096 4.29727C14.8655 4.29685 14.8283 4.30607 14.7982 4.32493C14.7688 4.34381 14.7453 4.37024 14.7274 4.40422C14.7096 4.43737 14.6968 4.47598 14.6888 4.52005C14.6809 4.56329 14.6767 4.60948 14.6762 4.65862ZM16.2266 4.29874L16.2163 5.36195L15.7953 5.35789L15.8083 4.00607L16.2031 4.00989L16.2266 4.29874ZM16.1733 4.63934L16.0746 4.64088C16.0756 4.5376 16.089 4.44569 16.1147 4.36514C16.1405 4.28375 16.1766 4.21496 16.2229 4.15877C16.2693 4.10257 16.3243 4.0602 16.3878 4.03166C16.4523 4.0023 16.5236 3.98799 16.6019 3.98875C16.6644 3.98935 16.7214 3.99906 16.7728 4.01789C16.8251 4.03672 16.8698 4.06672 16.9069 4.10789C16.9448 4.14908 16.9734 4.2035 16.9928 4.27116C17.013 4.33799 17.0226 4.42055 17.0216 4.51883L17.0134 5.36965L16.5899 5.36556L16.5981 4.51349C16.5986 4.45935 16.5915 4.41805 16.5768 4.38959C16.5621 4.36029 16.5406 4.34009 16.5124 4.32899C16.4842 4.31789 16.4497 4.31214 16.4089 4.31175C16.3656 4.31133 16.3288 4.31931 16.2987 4.33567C16.2686 4.35204 16.2442 4.37513 16.2256 4.40494C16.2078 4.43392 16.1945 4.46836 16.1858 4.50826C16.1779 4.54817 16.1738 4.59186 16.1733 4.63934ZM10.1342 6.48412L10.4258 7.09169L10.7289 6.48986L11.2287 6.49469L10.7127 7.39183L11.2249 8.3139L10.7201 8.30903L10.42 7.69013L10.1079 8.30311L9.60194 8.29823L10.133 7.38624L9.63325 6.47928L10.1342 6.48412ZM11.8076 6.96759L11.7946 8.3194L11.3723 8.31532L11.3853 6.96351L11.8076 6.96759ZM11.3637 6.61469C11.3643 6.55472 11.3864 6.50579 11.4301 6.46789C11.4738 6.43 11.5302 6.41139 11.5993 6.41205C11.6685 6.41272 11.7245 6.43242 11.7674 6.47115C11.8104 6.50988 11.8316 6.55924 11.831 6.6192C11.8304 6.67917 11.8083 6.72811 11.7646 6.766C11.7209 6.8039 11.6645 6.82251 11.5954 6.82185C11.5262 6.82118 11.4702 6.80148 11.4273 6.76275C11.3843 6.72401 11.3631 6.67466 11.3637 6.61469ZM12.4783 7.26269L12.468 8.3259L12.047 8.32184L12.06 6.97002L12.4548 6.97383L12.4783 7.26269ZM12.425 7.60329L12.3263 7.60483C12.3273 7.50155 12.3406 7.40963 12.3664 7.32908C12.3922 7.2477 12.4282 7.17891 12.4746 7.12271C12.521 7.06652 12.5759 7.02415 12.6395 6.99561C12.7039 6.96624 12.7753 6.95194 12.8536 6.95269C12.9161 6.9533 12.973 6.96301 13.0245 6.98183C13.0768 7.00066 13.1215 7.03067 13.1586 7.07184C13.1965 7.11302 13.2251 7.16744 13.2445 7.2351C13.2646 7.30194 13.2742 7.3845 13.2733 7.48278L13.2651 8.3336L12.8415 8.32951L12.8498 7.47744C12.8503 7.4233 12.8432 7.382 12.8285 7.35354C12.8138 7.32424 12.7923 7.30404 12.7641 7.29294C12.7359 7.28184 12.7014 7.27609 12.6606 7.2757C12.6172 7.27528 12.5805 7.28325 12.5504 7.29962C12.5202 7.31599 12.4958 7.33908 12.4772 7.36889C12.4595 7.39787 12.4462 7.43231 12.4375 7.47221C12.4296 7.51212 12.4254 7.55581 12.425 7.60329ZM14.8877 7.73202L14.4355 7.72765L14.4387 7.38908L14.891 7.39344C14.9526 7.39404 15.0027 7.38411 15.0412 7.36366C15.0797 7.3432 15.1079 7.31474 15.1258 7.27826C15.1444 7.24095 15.154 7.19898 15.1545 7.15234C15.1549 7.10236 15.1462 7.05605 15.1283 7.01339C15.1112 6.97075 15.0837 6.93633 15.0456 6.91014C15.0075 6.88311 14.9577 6.8693 14.8961 6.86871L14.6087 6.86593L14.5944 8.34643L14.1559 8.3422L14.1734 6.52312L14.8993 6.53013C15.0451 6.53154 15.1702 6.5594 15.2746 6.61372C15.3799 6.66805 15.4604 6.74213 15.5161 6.83596C15.5719 6.92896 15.5992 7.03502 15.598 7.15412C15.5969 7.27156 15.5676 7.37374 15.5101 7.46065C15.4526 7.54755 15.3707 7.61507 15.2645 7.66319C15.1591 7.71048 15.0335 7.73343 14.8877 7.73202ZM16.2334 6.44305L16.2148 8.36208L15.7938 8.35802L15.8123 6.43899L16.2334 6.44305ZM16.1718 7.63946L16.0731 7.64101C16.074 7.54606 16.0865 7.45871 16.1106 7.37898C16.1347 7.29925 16.1687 7.23002 16.2126 7.1713C16.2565 7.11258 16.309 7.06727 16.3701 7.03538C16.4312 7.00348 16.4988 6.98789 16.573 6.98861C16.6396 6.98925 16.7003 6.99942 16.7551 7.0191C16.8107 7.0388 16.8583 7.07008 16.8979 7.11294C16.9383 7.15582 16.969 7.21151 16.99 7.28002C17.0118 7.34853 17.0222 7.43193 17.0213 7.53021L17.0132 8.36979L16.5896 8.3657L16.5978 7.52363C16.5983 7.46865 16.5908 7.4261 16.5753 7.39596C16.5606 7.365 16.5391 7.34355 16.5109 7.33162C16.4827 7.31885 16.4482 7.31227 16.4074 7.31187C16.3583 7.3114 16.3182 7.31934 16.2872 7.3357C16.2562 7.35206 16.2323 7.37516 16.2153 7.40498C16.1992 7.43398 16.1881 7.46844 16.1818 7.50836C16.1756 7.54829 16.1723 7.59199 16.1718 7.63946ZM17.9012 8.40335C17.7913 8.40229 17.6932 8.38427 17.6069 8.34928C17.5206 8.31346 17.4478 8.26486 17.3884 8.20348C17.3298 8.14211 17.2851 8.07171 17.2542 7.99227C17.2242 7.91285 17.2096 7.82899 17.2104 7.7407L17.2109 7.69323C17.2118 7.59411 17.2265 7.50262 17.2548 7.41877C17.2831 7.33407 17.3246 7.26034 17.3794 7.19756C17.4341 7.13478 17.5025 7.0863 17.5844 7.0521C17.6664 7.01707 17.7615 7.00008 17.8698 7.00113C17.9656 7.00205 18.0512 7.01829 18.1267 7.04984C18.2022 7.08139 18.2659 7.12615 18.3178 7.18413C18.3706 7.24212 18.4103 7.31206 18.437 7.39395C18.4646 7.47584 18.4778 7.5676 18.4768 7.66922L18.4752 7.84038L17.3708 7.82972L17.3733 7.5661L18.0667 7.57279L18.067 7.54031C18.0683 7.49534 18.0607 7.45695 18.0444 7.42514C18.0289 7.39334 18.0058 7.36896 17.9751 7.352C17.9445 7.33505 17.9071 7.32635 17.8629 7.32593C17.8171 7.32549 17.7791 7.33512 17.7489 7.35482C17.7196 7.37452 17.6964 7.40179 17.6794 7.43661C17.6633 7.47061 17.6516 7.51006 17.6445 7.55497C17.6374 7.59989 17.6337 7.64733 17.6332 7.69731L17.6327 7.74478C17.6322 7.79476 17.6385 7.84021 17.6514 7.88116C17.6652 7.92211 17.6848 7.95728 17.7103 7.98668C17.7367 8.01526 17.7682 8.03764 17.8047 8.05381C17.842 8.07 17.8844 8.07832 17.9319 8.07878C17.9893 8.07934 18.0461 8.06906 18.1021 8.04794C18.1581 8.02682 18.2063 7.99147 18.2468 7.94188L18.4358 8.17111C18.4079 8.20999 18.3684 8.24751 18.3172 8.28367C18.2669 8.31984 18.2066 8.34924 18.1364 8.37189C18.0663 8.3937 17.9879 8.40419 17.9012 8.40335ZM17.6176 6.84751L17.8688 6.45759L18.3136 6.46189L17.9612 6.85082L17.6176 6.84751ZM19.0764 7.29766L19.0609 8.90935L18.6398 8.90528L18.6579 7.03373L19.0502 7.03752L19.0764 7.29766ZM19.9022 7.70547L19.9019 7.73171C19.901 7.82999 19.8888 7.92109 19.8655 8.00499C19.8422 8.0889 19.8082 8.16187 19.7635 8.22392C19.7187 8.28596 19.6633 8.33415 19.5971 8.3685C19.5318 8.40202 19.4563 8.41837 19.3705 8.41754C19.2897 8.41676 19.2203 8.39818 19.1624 8.3618C19.1044 8.32542 19.0562 8.2754 19.0176 8.21172C18.9791 8.14804 18.9481 8.07527 18.9248 7.99341C18.9014 7.91155 18.8831 7.82516 18.8698 7.73424L18.8701 7.7005C18.8852 7.60319 18.9053 7.513 18.9302 7.42995C18.9552 7.34605 18.9875 7.27306 19.0273 7.21097C19.067 7.14888 19.1158 7.10062 19.1736 7.0662C19.2323 7.03178 19.302 7.01496 19.3828 7.01574C19.4686 7.01657 19.5438 7.03354 19.6084 7.06665C19.6739 7.09977 19.7285 7.14694 19.772 7.20817C19.8164 7.26857 19.8494 7.34094 19.8711 7.42529C19.8928 7.50963 19.9031 7.60302 19.9022 7.70547ZM19.4809 7.72764L19.4811 7.7014C19.4816 7.64893 19.4783 7.601 19.4713 7.55762C19.4642 7.5134 19.4525 7.47497 19.4361 7.44233C19.4206 7.40969 19.3996 7.3845 19.3731 7.36675C19.3467 7.349 19.3138 7.33994 19.2747 7.33956C19.2297 7.33913 19.1918 7.34584 19.1608 7.3597C19.1307 7.37274 19.1063 7.39333 19.0877 7.42147C19.07 7.44879 19.0572 7.48323 19.0493 7.52481C19.0422 7.56555 19.0388 7.61342 19.0391 7.6684L19.0381 7.77085C19.0359 7.83413 19.0416 7.89 19.0553 7.93844C19.069 7.98606 19.0932 8.02336 19.1279 8.05035C19.1626 8.07734 19.21 8.09112 19.2699 8.0917C19.3099 8.09209 19.3433 8.08325 19.3702 8.06518C19.397 8.04628 19.4185 8.02025 19.4346 7.98709C19.4508 7.95309 19.4624 7.91405 19.4695 7.86997C19.4766 7.82589 19.4804 7.77845 19.4809 7.72764Z" fill="#183459"/>
</g>
<defs>
<filter id="filter0_d_3608_85322" x="-4" y="0" width="37" height="37" filterUnits="userSpaceOnUse" color-interpolation-filters="sRGB">
<feFlood flood-opacity="0" result="BackgroundImageFix"/>
<feColorMatrix in="SourceAlpha" type="matrix" values="0 0 0 0 0 0 0 0 0 0 0 0 0 0 0 0 0 0 127 0" result="hardAlpha"/>
<feOffset dy="4"/>
<feGaussianBlur stdDeviation="2"/>
<feComposite in2="hardAlpha" operator="out"/>
<feColorMatrix type="matrix" values="0 0 0 0 0 0 0 0 0 0 0 0 0 0 0 0 0 0 0.25 0"/>
<feBlend mode="normal" in2="BackgroundImageFix" result="effect1_dropShadow_3608_85322"/>
<feBlend mode="normal" in="SourceGraphic" in2="effect1_dropShadow_3608_85322" result="shape"/>
</filter>
</defs>
</svg>
