<svg width="30" height="31" viewBox="0 0 30 31" fill="none" xmlns="http://www.w3.org/2000/svg">
<g id="fi_3670147" clip-path="url(#clip0_3808_113002)">
<g id="Layer 2">
<g id="Color">
<g id="02.YouTube">
<path id="Background" d="M15 30.5C23.2843 30.5 30 23.7843 30 15.5C30 7.21573 23.2843 0.5 15 0.5C6.71573 0.5 0 7.21573 0 15.5C0 23.7843 6.71573 30.5 15 30.5Z" fill="white"/>
<path id="Icon" fill-rule="evenodd" clip-rule="evenodd" d="M19.9085 9.85718H10.0914C9.69909 9.85718 9.31062 9.93448 8.94819 10.0847C8.58576 10.2349 8.25648 10.455 7.97916 10.7325C7.70184 11.01 7.48192 11.3394 7.33197 11.702C7.18201 12.0645 7.10497 12.453 7.10523 12.8453V18.1545C7.10497 18.5469 7.18201 18.9354 7.33197 19.2979C7.48192 19.6604 7.70184 19.9899 7.97916 20.2674C8.25648 20.5449 8.58576 20.765 8.94819 20.9152C9.31062 21.0654 9.69909 21.1427 10.0914 21.1427H19.9085C20.3008 21.1427 20.6893 21.0654 21.0517 20.9152C21.4142 20.765 21.7434 20.5449 22.0208 20.2674C22.2981 19.9899 22.518 19.6604 22.668 19.2979C22.8179 18.9354 22.895 18.5469 22.8947 18.1545V12.8453C22.895 12.453 22.8179 12.0645 22.668 11.702C22.518 11.3394 22.2981 11.01 22.0208 10.7325C21.7434 10.455 21.4142 10.2349 21.0517 10.0847C20.6893 9.93448 20.3008 9.85718 19.9085 9.85718ZM12.8571 12.2857V18.7143L18.2142 15.4999L12.8571 12.2857Z" fill="#D94F04"/>
</g>
</g>
</g>
</g>
<defs>
<clipPath id="clip0_3808_113002">
<rect width="30" height="30" fill="white" transform="translate(0 0.5)"/>
</clipPath>
</defs>
</svg>
